<svg xmlns="http://www.w3.org/2000/svg" xmlns:xlink="http://www.w3.org/1999/xlink" version="1.1" width="256" height="256" viewBox="0 0 256 256" xml:space="preserve">

<defs>
</defs>
<g style="stroke: none; stroke-width: 0; stroke-dasharray: none; stroke-linecap: butt; stroke-linejoin: miter; stroke-miterlimit: 10; fill: none; fill-rule: nonzero; opacity: 1;" transform="translate(1.4065934065934016 1.4065934065934016) scale(2.81 2.81)" >
	<path d="M 78.112 18.499 H 64.196 c -1.977 0 -3.584 -1.608 -3.584 -3.584 V 1 c 0 -0.552 0.447 -1 1 -1 c 0.553 0 1 0.448 1 1 v 13.915 c 0 0.874 0.711 1.584 1.584 1.584 h 13.915 c 0.553 0 1 0.448 1 1 C 79.112 18.051 78.664 18.499 78.112 18.499 z" style="stroke: none; stroke-width: 1; stroke-dasharray: none; stroke-linecap: butt; stroke-linejoin: miter; stroke-miterlimit: 10; fill: rgb(0,0,0); fill-rule: nonzero; opacity: 1;" transform=" matrix(1 0 0 1 0 0) " stroke-linecap="round" />
	<path d="M 22.597 35.588 h -4.386 c -0.552 0 -1 -0.448 -1 -1 v -7.272 c 0 -0.552 0.448 -1 1 -1 h 4.386 c 1.706 0 3.094 1.388 3.094 3.095 v 3.082 C 25.692 34.2 24.303 35.588 22.597 35.588 z M 19.211 33.588 h 3.386 c 0.604 0 1.094 -0.491 1.094 -1.095 v -3.082 c 0 -0.604 -0.491 -1.095 -1.094 -1.095 h -3.386 V 33.588 z" style="stroke: none; stroke-width: 1; stroke-dasharray: none; stroke-linecap: butt; stroke-linejoin: miter; stroke-miterlimit: 10; fill: rgb(0,0,0); fill-rule: nonzero; opacity: 1;" transform=" matrix(1 0 0 1 0 0) " stroke-linecap="round" />
	<path d="M 18.211 40.567 c -0.552 0 -1 -0.448 -1 -1 v -4.979 c 0 -0.552 0.448 -1 1 -1 c 0.552 0 1 0.448 1 1 v 4.979 C 19.211 40.119 18.763 40.567 18.211 40.567 z" style="stroke: none; stroke-width: 1; stroke-dasharray: none; stroke-linecap: butt; stroke-linejoin: miter; stroke-miterlimit: 10; fill: rgb(0,0,0); fill-rule: nonzero; opacity: 1;" transform=" matrix(1 0 0 1 0 0) " stroke-linecap="round" />
	<path d="M 34.666 40.567 h -4.171 c -0.552 0 -1 -0.448 -1 -1 V 27.316 c 0 -0.552 0.448 -1 1 -1 h 4.171 c 1.825 0 3.31 1.485 3.31 3.31 v 7.631 C 37.976 39.082 36.492 40.567 34.666 40.567 z M 31.495 38.567 h 3.171 c 0.722 0 1.31 -0.587 1.31 -1.31 v -7.631 c 0 -0.722 -0.588 -1.31 -1.31 -1.31 h -3.171 V 38.567 z" style="stroke: none; stroke-width: 1; stroke-dasharray: none; stroke-linecap: butt; stroke-linejoin: miter; stroke-miterlimit: 10; fill: rgb(0,0,0); fill-rule: nonzero; opacity: 1;" transform=" matrix(1 0 0 1 0 0) " stroke-linecap="round" />
	<path d="M 43.003 40.567 c -0.552 0 -1 -0.448 -1 -1 V 27.316 c 0 -0.552 0.448 -1 1 -1 c 0.552 0 1 0.448 1 1 v 12.251 C 44.003 40.119 43.556 40.567 43.003 40.567 z" style="stroke: none; stroke-width: 1; stroke-dasharray: none; stroke-linecap: butt; stroke-linejoin: miter; stroke-miterlimit: 10; fill: rgb(0,0,0); fill-rule: nonzero; opacity: 1;" transform=" matrix(1 0 0 1 0 0) " stroke-linecap="round" />
	<path d="M 49.484 28.316 h -6.481 c -0.552 0 -1 -0.448 -1 -1 c 0 -0.552 0.448 -1 1 -1 h 6.481 c 0.553 0 1 0.448 1 1 C 50.484 27.868 50.037 28.316 49.484 28.316 z" style="stroke: none; stroke-width: 1; stroke-dasharray: none; stroke-linecap: butt; stroke-linejoin: miter; stroke-miterlimit: 10; fill: rgb(0,0,0); fill-rule: nonzero; opacity: 1;" transform=" matrix(1 0 0 1 0 0) " stroke-linecap="round" />
	<path d="M 47.248 34.442 h -4.245 c -0.552 0 -1 -0.448 -1 -1 c 0 -0.552 0.448 -1 1 -1 h 4.245 c 0.553 0 1 0.448 1 1 C 48.248 33.994 47.801 34.442 47.248 34.442 z" style="stroke: none; stroke-width: 1; stroke-dasharray: none; stroke-linecap: butt; stroke-linejoin: miter; stroke-miterlimit: 10; fill: rgb(0,0,0); fill-rule: nonzero; opacity: 1;" transform=" matrix(1 0 0 1 0 0) " stroke-linecap="round" />
	<path d="M 53.282 45.801 H 13.938 c -1.682 0 -3.049 -1.335 -3.049 -2.976 V 24.058 c 0 -1.641 1.368 -2.976 3.049 -2.976 h 39.345 c 1.682 0 3.05 1.335 3.05 2.976 v 18.767 C 56.332 44.466 54.964 45.801 53.282 45.801 z M 13.938 23.083 c -0.579 0 -1.049 0.438 -1.049 0.976 v 18.767 c 0 0.538 0.471 0.976 1.049 0.976 h 39.345 c 0.579 0 1.05 -0.438 1.05 -0.976 V 24.058 c 0 -0.538 -0.471 -0.976 -1.05 -0.976 H 13.938 z" style="stroke: none; stroke-width: 1; stroke-dasharray: none; stroke-linecap: butt; stroke-linejoin: miter; stroke-miterlimit: 10; fill: rgb(0,0,0); fill-rule: nonzero; opacity: 1;" transform=" matrix(1 0 0 1 0 0) " stroke-linecap="round" />
	<path d="M 48.054 90 c -0.685 0 -1.368 -0.261 -1.889 -0.781 L 34.68 77.734 c -0.565 -0.565 -0.733 -1.409 -0.427 -2.147 c 0.306 -0.738 1.02 -1.216 1.819 -1.216 h 3.548 V 59.16 c 0 -1.291 1.029 -2.341 2.293 -2.341 h 12.28 c 1.264 0 2.292 1.05 2.292 2.341 v 15.21 h 3.549 c 0.799 0 1.513 0.477 1.819 1.215 c 0.306 0.739 0.139 1.582 -0.426 2.148 L 49.943 89.218 C 49.422 89.739 48.737 90 48.054 90 z M 36.073 76.37 l 11.506 11.434 c 0.262 0.263 0.688 0.262 0.95 -0.001 L 59.963 76.37 h -4.477 c -0.553 0 -1 -0.447 -1 -1 V 59.16 c 0 -0.188 -0.131 -0.341 -0.292 -0.341 h -12.28 c -0.162 0 -0.293 0.153 -0.293 0.341 v 16.21 c 0 0.553 -0.448 1 -1 1 H 36.073 z M 60.035 76.37 h 0.01 H 60.035 z" style="stroke: none; stroke-width: 1; stroke-dasharray: none; stroke-linecap: butt; stroke-linejoin: miter; stroke-miterlimit: 10; fill: rgb(0,0,0); fill-rule: nonzero; opacity: 1;" transform=" matrix(1 0 0 1 0 0) " stroke-linecap="round" />
	<path d="M 33.586 82.945 H 20.832 c -2.115 0 -3.835 -1.721 -3.835 -3.836 V 44.801 c 0 -0.552 0.448 -1 1 -1 c 0.552 0 1 0.448 1 1 v 34.308 c 0 1.013 0.823 1.836 1.835 1.836 h 12.755 c 0.552 0 1 0.447 1 1 C 34.586 82.497 34.139 82.945 33.586 82.945 z" style="stroke: none; stroke-width: 1; stroke-dasharray: none; stroke-linecap: butt; stroke-linejoin: miter; stroke-miterlimit: 10; fill: rgb(0,0,0); fill-rule: nonzero; opacity: 1;" transform=" matrix(1 0 0 1 0 0) " stroke-linecap="round" />
	<path d="M 75.276 82.945 H 62.208 c -0.553 0 -1 -0.447 -1 -1 c 0 -0.553 0.447 -1 1 -1 h 13.068 c 1.013 0 1.836 -0.823 1.836 -1.836 V 18.673 c 0 -0.49 -0.191 -0.951 -0.538 -1.297 L 61.737 2.537 C 61.39 2.19 60.928 2 60.438 2 H 20.832 c -1.012 0 -1.835 0.824 -1.835 1.836 v 18.247 c 0 0.552 -0.448 1 -1 1 c -0.552 0 -1 -0.448 -1 -1 V 3.835 C 16.996 1.72 18.717 0 20.832 0 h 39.606 c 1.024 0 1.987 0.399 2.713 1.123 l 14.837 14.839 c 0.725 0.724 1.124 1.687 1.124 2.712 v 60.436 C 79.112 81.224 77.391 82.945 75.276 82.945 z" style="stroke: none; stroke-width: 1; stroke-dasharray: none; stroke-linecap: butt; stroke-linejoin: miter; stroke-miterlimit: 10; fill: rgb(0,0,0); fill-rule: nonzero; opacity: 1;" transform=" matrix(1 0 0 1 0 0) " stroke-linecap="round" />
</g>
</svg>