<svg width="1879" height="790" viewBox="0 0 1879 790" fill="none" xmlns="http://www.w3.org/2000/svg">
<rect width="1879" height="790" fill="#070705"/>
<mask id="mask0_414_295" style="mask-type:luminance" maskUnits="userSpaceOnUse" x="0" y="0" width="1879" height="790">
<path d="M1826.07 790H52.9349C23.7002 790 3.13954e-07 774.44 3.13954e-07 755.246V34.7538C-0.00314963 15.5601 23.6971 0 52.9349 0H1826.07C1855.3 0 1879 15.5601 1879 34.7538V755.244C1879 774.44 1855.3 790 1826.07 790Z" fill="white"/>
</mask>
<g mask="url(#mask0_414_295)">
<path d="M1826.07 790H52.9349C23.7002 790 3.13954e-07 774.44 3.13954e-07 755.246V34.7538C-0.00314963 15.5601 23.6971 0 52.9349 0H1826.07C1855.3 0 1879 15.5601 1879 34.7538V755.244C1879 774.44 1855.3 790 1826.07 790Z" fill="#070705"/>
<mask id="mask1_414_295" style="mask-type:luminance" maskUnits="userSpaceOnUse" x="0" y="0" width="1879" height="790">
<path d="M1822.92 790H56.0848C25.1082 790 2.96312e-07 773.513 2.96312e-07 753.178V36.8219C-0.00314965 16.4866 25.1082 0 56.0848 0H1822.92C1853.89 0 1879 16.4866 1879 36.8219V753.176C1879 773.513 1853.89 790 1822.92 790Z" fill="white"/>
</mask>
<g mask="url(#mask1_414_295)">
<path d="M1578.16 573.294L1574.76 479.098C1574.26 465.074 1582.84 451.483 1598.37 441.775L1904.49 245.347V233.78L1589.63 435.819C1571.59 447.095 1561.58 462.94 1562.17 479.292L1565.57 573.488C1566.06 587.051 1557.96 600.33 1543.35 609.919L1247.02 804.476H1264.84L1552.26 615.772C1569.29 604.59 1578.74 589.106 1578.16 573.294Z" fill="url(#paint0_linear_414_295)"/>
<path d="M1904.49 404.827L1797.32 475.191C1780.59 486.171 1771.39 500.765 1771.39 516.292V592.266C1771.39 605.583 1763.49 618.098 1749.14 627.516L1479.61 804.476H1497.43L1758.05 633.367C1774.77 622.388 1783.98 607.793 1783.98 592.268V516.292C1783.98 502.976 1791.88 490.458 1806.22 481.04L1904.49 416.524V404.827Z" fill="url(#paint1_linear_414_295)"/>
</g>
<mask id="mask2_414_295" style="mask-type:luminance" maskUnits="userSpaceOnUse" x="0" y="0" width="1879" height="790">
<path d="M1822.92 790H56.0848C25.1082 790 2.96312e-07 773.513 2.96312e-07 753.178V36.8219C-0.00314965 16.4866 25.1082 0 56.0848 0H1822.92C1853.89 0 1879 16.4866 1879 36.8219V753.176C1879 773.513 1853.89 790 1822.92 790Z" fill="white"/>
</mask>
<g mask="url(#mask2_414_295)">
<path d="M1904.49 272.347L1634.27 445.742C1617.48 456.24 1608.21 470.904 1608.76 486.121L1612.16 580.317C1612.7 595.075 1604 609.334 1588.1 619.774L1306.77 804.477H1539.37L1793.9 637.367C1809.32 627.242 1817.98 613.51 1817.98 599.19V523.216C1817.98 508.897 1826.64 495.165 1842.07 485.039L1904.49 444.059V272.347Z" fill="url(#paint2_linear_414_295)"/>
</g>
<mask id="mask3_414_295" style="mask-type:luminance" maskUnits="userSpaceOnUse" x="0" y="0" width="1879" height="790">
<path d="M1822.92 790H56.0848C25.1082 790 2.96312e-07 773.513 2.96312e-07 753.178V36.8219C-0.00314965 16.4866 25.1082 0 56.0848 0H1822.92C1853.89 0 1879 16.4866 1879 36.8219V753.176C1879 773.513 1853.89 790 1822.92 790Z" fill="white"/>
</mask>
<g mask="url(#mask3_414_295)">
<path d="M889.964 866.421C886.483 867.741 882.029 866.959 880.02 864.672L657.378 611.493C655.368 609.208 656.562 606.284 660.043 604.964C663.524 603.645 667.978 604.429 669.987 606.714L892.629 859.892C894.638 862.177 893.445 865.102 889.964 866.421Z" fill="url(#paint3_linear_414_295)"/>
</g>
<mask id="mask4_414_295" style="mask-type:luminance" maskUnits="userSpaceOnUse" x="0" y="0" width="1879" height="790">
<path d="M1822.92 790H56.0848C25.1082 790 2.96312e-07 773.513 2.96312e-07 753.178V36.8219C-0.00314965 16.4866 25.1082 0 56.0848 0H1822.92C1853.89 0 1879 16.4866 1879 36.8219V753.176C1879 773.513 1853.89 790 1822.92 790Z" fill="white"/>
</mask>
<g mask="url(#mask4_414_295)">
<path d="M1854.53 420.011C1851.05 421.331 1846.59 420.547 1844.58 418.262L1621.94 165.083C1619.93 162.798 1621.13 159.874 1624.61 158.554C1628.09 157.235 1632.54 158.017 1634.55 160.304L1857.19 413.482C1859.2 415.768 1858.01 418.692 1854.53 420.011Z" fill="url(#paint4_linear_414_295)"/>
</g>
<mask id="mask5_414_295" style="mask-type:luminance" maskUnits="userSpaceOnUse" x="0" y="0" width="1879" height="790">
<path d="M1822.92 790H56.0848C25.1082 790 2.96312e-07 773.513 2.96312e-07 753.178V36.8219C-0.00314965 16.4866 25.1082 0 56.0848 0H1822.92C1853.89 0 1879 16.4866 1879 36.8219V753.176C1879 773.513 1853.89 790 1822.92 790Z" fill="white"/>
</mask>
<g mask="url(#mask5_414_295)">
<path d="M819.011 823.259C817.509 823.827 815.59 823.49 814.724 822.504L718.723 713.335C717.857 712.348 718.37 711.089 719.873 710.52C721.376 709.951 723.294 710.289 724.16 711.275L820.161 820.444C821.027 821.428 820.511 822.688 819.011 823.259Z" fill="url(#paint5_linear_414_295)"/>
</g>
<mask id="mask6_414_295" style="mask-type:luminance" maskUnits="userSpaceOnUse" x="0" y="0" width="1879" height="790">
<path d="M1822.92 790H56.0848C25.1082 790 2.96312e-07 773.513 2.96312e-07 753.178V36.8219C-0.00314965 16.4866 25.1082 0 56.0848 0H1822.92C1853.89 0 1879 16.4866 1879 36.8219V753.176C1879 773.513 1853.89 790 1822.92 790Z" fill="white"/>
</mask>
<g mask="url(#mask6_414_295)">
<path d="M1897.38 501.563C1895.88 502.132 1893.96 501.795 1893.09 500.808L1797.09 391.639C1796.23 390.653 1796.74 389.393 1798.24 388.825C1799.74 388.256 1801.66 388.593 1802.53 389.579L1898.53 498.748C1899.4 499.735 1898.88 500.994 1897.38 501.563Z" fill="url(#paint6_linear_414_295)"/>
</g>
<mask id="mask7_414_295" style="mask-type:luminance" maskUnits="userSpaceOnUse" x="0" y="0" width="1879" height="790">
<path d="M1822.92 790H56.0848C25.1082 790 2.96312e-07 773.513 2.96312e-07 753.178V36.8219C-0.00314965 16.4866 25.1082 0 56.0848 0H1822.92C1853.89 0 1879 16.4866 1879 36.8219V753.176C1879 773.513 1853.89 790 1822.92 790Z" fill="white"/>
</mask>
<g mask="url(#mask7_414_295)">
<path d="M1716.26 224.451C1714.76 225.02 1712.84 224.683 1711.97 223.696L1615.97 114.527C1615.11 113.541 1615.62 112.281 1617.12 111.713C1618.63 111.144 1620.54 111.481 1621.41 112.467L1717.41 221.636C1718.28 222.623 1717.76 223.882 1716.26 224.451Z" fill="url(#paint7_linear_414_295)"/>
</g>
<mask id="mask8_414_295" style="mask-type:luminance" maskUnits="userSpaceOnUse" x="0" y="0" width="1879" height="790">
<path d="M1822.92 790H56.0848C25.1082 790 2.96312e-07 773.513 2.96312e-07 753.178V36.8219C-0.00314965 16.4866 25.1082 0 56.0848 0H1822.92C1853.89 0 1879 16.4866 1879 36.8219V753.176C1879 773.513 1853.89 790 1822.92 790Z" fill="white"/>
</mask>
<g mask="url(#mask8_414_295)">
<path d="M202.097 101.854L191.624 97.8877C167.832 88.8812 137.848 91.2326 117.959 103.666L-26.4281 193.928V415.253L30.6269 377.794C42.2439 370.167 48.7706 359.822 48.7706 349.035V291.802C48.7706 281.015 55.2973 270.67 66.9143 263.041L214.955 165.846C243.768 146.932 237.396 115.218 202.097 101.854Z" fill="url(#paint8_linear_414_295)"/>
</g>
<mask id="mask9_414_295" style="mask-type:luminance" maskUnits="userSpaceOnUse" x="0" y="0" width="1879" height="790">
<path d="M1822.92 790H56.0848C25.1082 790 2.96312e-07 773.513 2.96312e-07 753.178V36.8219C-0.00314965 16.4866 25.1082 0 56.0848 0H1822.92C1853.89 0 1879 16.4866 1879 36.8219V753.176C1879 773.513 1853.89 790 1822.92 790Z" fill="white"/>
</mask>
<g mask="url(#mask9_414_295)">
<path d="M258.346 131.361C255.612 117.753 243.655 106.013 225.539 99.1554L215.066 95.1909C189.636 85.562 157.022 88.1182 135.76 101.412L-32.728 206.738V215.343L142.305 105.924C153.16 99.1389 167.457 95.6149 181.859 95.6149C191.652 95.6149 201.496 97.2445 210.325 100.589L220.799 104.553C236.334 110.435 246.59 120.502 248.934 132.174C251.281 143.848 245.353 155.316 232.671 163.642L84.6296 260.837C72.033 269.107 65.0937 280.103 65.0937 291.8V349.033C65.0937 359.065 59.1434 368.496 48.3391 375.589L-32.728 428.819V437.633L55.0579 379.998C67.6546 371.73 74.5939 360.734 74.5939 349.035V291.802C74.5939 281.769 80.5441 272.339 91.3485 265.246L239.386 168.051C254.172 158.343 261.08 144.971 258.346 131.361Z" fill="url(#paint9_linear_414_295)"/>
</g>
<mask id="mask10_414_295" style="mask-type:luminance" maskUnits="userSpaceOnUse" x="0" y="0" width="1879" height="790">
<path d="M1822.92 790H56.0848C25.1082 790 2.96312e-07 773.513 2.96312e-07 753.178V36.8219C-0.00314965 16.4866 25.1082 0 56.0848 0H1822.92C1853.89 0 1879 16.4866 1879 36.8219V753.176C1879 773.513 1853.89 790 1822.92 790Z" fill="white"/>
</mask>
<g mask="url(#mask10_414_295)">
<path d="M21.6653 630.995C21.6653 633.036 19.1454 634.691 16.0364 634.691C12.9274 634.691 10.4074 633.036 10.4074 630.995C10.4074 628.954 12.9274 627.299 16.0364 627.299C19.1454 627.299 21.6653 628.954 21.6653 630.995Z" fill="url(#paint10_linear_414_295)"/>
<path d="M58.378 630.995C58.378 633.036 55.858 634.691 52.749 634.691C49.64 634.691 47.12 633.036 47.12 630.995C47.12 628.954 49.64 627.299 52.749 627.299C55.858 627.299 58.378 628.954 58.378 630.995Z" fill="url(#paint11_linear_414_295)"/>
<path d="M95.0906 630.995C95.0906 633.036 92.5706 634.691 89.4616 634.691C86.3526 634.691 83.8327 633.036 83.8327 630.995C83.8327 628.954 86.3526 627.299 89.4616 627.299C92.5706 627.299 95.0906 628.954 95.0906 630.995Z" fill="url(#paint12_linear_414_295)"/>
<path d="M131.806 630.995C131.806 633.036 129.286 634.691 126.177 634.691C123.068 634.691 120.548 633.036 120.548 630.995C120.548 628.954 123.068 627.299 126.177 627.299C129.286 627.299 131.806 628.954 131.806 630.995Z" fill="url(#paint13_linear_414_295)"/>
<path d="M168.519 630.995C168.519 633.036 165.999 634.691 162.89 634.691C159.781 634.691 157.261 633.036 157.261 630.995C157.261 628.954 159.781 627.299 162.89 627.299C165.999 627.299 168.519 628.954 168.519 630.995Z" fill="url(#paint14_linear_414_295)"/>
<path d="M205.232 630.995C205.232 633.036 202.712 634.691 199.603 634.691C196.494 634.691 193.974 633.036 193.974 630.995C193.974 628.954 196.494 627.299 199.603 627.299C202.712 627.299 205.232 628.954 205.232 630.995Z" fill="url(#paint15_linear_414_295)"/>
<path d="M241.947 630.995C241.947 633.036 239.427 634.691 236.318 634.691C233.209 634.691 230.69 633.036 230.69 630.995C230.69 628.954 233.209 627.299 236.318 627.299C239.427 627.299 241.947 628.954 241.947 630.995Z" fill="url(#paint16_linear_414_295)"/>
<path d="M278.66 630.995C278.66 633.036 276.14 634.691 273.031 634.691C269.922 634.691 267.402 633.036 267.402 630.995C267.402 628.954 269.922 627.299 273.031 627.299C276.14 627.299 278.66 628.954 278.66 630.995Z" fill="url(#paint17_linear_414_295)"/>
<path d="M315.373 630.995C315.373 633.036 312.853 634.691 309.744 634.691C306.635 634.691 304.115 633.036 304.115 630.995C304.115 628.954 306.635 627.299 309.744 627.299C312.853 627.299 315.373 628.954 315.373 630.995Z" fill="url(#paint18_linear_414_295)"/>
<path d="M352.088 630.995C352.088 633.036 349.568 634.691 346.459 634.691C343.35 634.691 340.831 633.036 340.831 630.995C340.831 628.954 343.35 627.299 346.459 627.299C349.568 627.299 352.088 628.954 352.088 630.995Z" fill="url(#paint19_linear_414_295)"/>
<path d="M388.801 630.995C388.801 633.036 386.281 634.691 383.172 634.691C380.063 634.691 377.543 633.036 377.543 630.995C377.543 628.954 380.063 627.299 383.172 627.299C386.281 627.299 388.801 628.954 388.801 630.995Z" fill="url(#paint20_linear_414_295)"/>
<path d="M425.517 630.995C425.517 633.036 422.997 634.691 419.888 634.691C416.779 634.691 414.259 633.036 414.259 630.995C414.259 628.954 416.779 627.299 419.888 627.299C422.997 627.299 425.517 628.954 425.517 630.995Z" fill="url(#paint21_linear_414_295)"/>
<path d="M462.23 630.995C462.23 633.036 459.71 634.691 456.601 634.691C453.492 634.691 450.972 633.036 450.972 630.995C450.972 628.954 453.492 627.299 456.601 627.299C459.71 627.299 462.23 628.954 462.23 630.995Z" fill="url(#paint22_linear_414_295)"/>
<path d="M498.942 630.995C498.942 633.036 496.422 634.691 493.313 634.691C490.204 634.691 487.684 633.036 487.684 630.995C487.684 628.954 490.204 627.299 493.313 627.299C496.422 627.299 498.942 628.954 498.942 630.995Z" fill="url(#paint23_linear_414_295)"/>
<path d="M21.6653 647.707C21.6653 649.748 19.1454 651.402 16.0364 651.402C12.9274 651.402 10.4074 649.748 10.4074 647.707C10.4074 645.666 12.9274 644.011 16.0364 644.011C19.1454 644.011 21.6653 645.666 21.6653 647.707Z" fill="url(#paint24_linear_414_295)"/>
<path d="M58.378 647.707C58.378 649.748 55.858 651.402 52.749 651.402C49.64 651.402 47.12 649.748 47.12 647.707C47.12 645.666 49.64 644.011 52.749 644.011C55.858 644.011 58.378 645.666 58.378 647.707Z" fill="url(#paint25_linear_414_295)"/>
<path d="M95.0906 647.707C95.0906 649.748 92.5706 651.402 89.4616 651.402C86.3526 651.402 83.8327 649.748 83.8327 647.707C83.8327 645.666 86.3526 644.011 89.4616 644.011C92.5706 644.011 95.0906 645.666 95.0906 647.707Z" fill="url(#paint26_linear_414_295)"/>
<path d="M131.806 647.707C131.806 649.748 129.286 651.402 126.177 651.402C123.068 651.402 120.548 649.748 120.548 647.707C120.548 645.666 123.068 644.011 126.177 644.011C129.286 644.011 131.806 645.666 131.806 647.707Z" fill="url(#paint27_linear_414_295)"/>
<path d="M168.519 647.707C168.519 649.748 165.999 651.402 162.89 651.402C159.781 651.402 157.261 649.748 157.261 647.707C157.261 645.666 159.781 644.011 162.89 644.011C165.999 644.011 168.519 645.666 168.519 647.707Z" fill="url(#paint28_linear_414_295)"/>
<path d="M205.232 647.707C205.232 649.748 202.712 651.402 199.603 651.402C196.494 651.402 193.974 649.748 193.974 647.707C193.974 645.666 196.494 644.011 199.603 644.011C202.712 644.011 205.232 645.666 205.232 647.707Z" fill="url(#paint29_linear_414_295)"/>
<path d="M241.947 647.707C241.947 649.748 239.427 651.402 236.318 651.402C233.209 651.402 230.69 649.748 230.69 647.707C230.69 645.666 233.209 644.011 236.318 644.011C239.427 644.011 241.947 645.666 241.947 647.707Z" fill="url(#paint30_linear_414_295)"/>
<path d="M278.66 647.707C278.66 649.748 276.14 651.402 273.031 651.402C269.922 651.402 267.402 649.748 267.402 647.707C267.402 645.666 269.922 644.011 273.031 644.011C276.14 644.011 278.66 645.666 278.66 647.707Z" fill="url(#paint31_linear_414_295)"/>
<path d="M315.373 647.707C315.373 649.748 312.853 651.402 309.744 651.402C306.635 651.402 304.115 649.748 304.115 647.707C304.115 645.666 306.635 644.011 309.744 644.011C312.853 644.011 315.373 645.666 315.373 647.707Z" fill="url(#paint32_linear_414_295)"/>
<path d="M352.088 647.707C352.088 649.748 349.568 651.402 346.459 651.402C343.35 651.402 340.831 649.748 340.831 647.707C340.831 645.666 343.35 644.011 346.459 644.011C349.568 644.011 352.088 645.666 352.088 647.707Z" fill="url(#paint33_linear_414_295)"/>
<path d="M388.801 647.707C388.801 649.748 386.281 651.402 383.172 651.402C380.063 651.402 377.543 649.748 377.543 647.707C377.543 645.666 380.063 644.011 383.172 644.011C386.281 644.011 388.801 645.666 388.801 647.707Z" fill="url(#paint34_linear_414_295)"/>
<path d="M425.517 647.707C425.517 649.748 422.997 651.402 419.888 651.402C416.779 651.402 414.259 649.748 414.259 647.707C414.259 645.666 416.779 644.011 419.888 644.011C422.997 644.011 425.517 645.666 425.517 647.707Z" fill="url(#paint35_linear_414_295)"/>
<path d="M462.23 647.707C462.23 649.748 459.71 651.402 456.601 651.402C453.492 651.402 450.972 649.748 450.972 647.707C450.972 645.666 453.492 644.011 456.601 644.011C459.71 644.011 462.23 645.666 462.23 647.707Z" fill="url(#paint36_linear_414_295)"/>
<path d="M498.942 647.707C498.942 649.748 496.422 651.402 493.313 651.402C490.204 651.402 487.684 649.748 487.684 647.707C487.684 645.666 490.204 644.011 493.313 644.011C496.422 644.011 498.942 645.666 498.942 647.707Z" fill="url(#paint37_linear_414_295)"/>
<path d="M21.6653 664.419C21.6653 666.46 19.1454 668.115 16.0364 668.115C12.9274 668.115 10.4074 666.46 10.4074 664.419C10.4074 662.378 12.9274 660.723 16.0364 660.723C19.1454 660.723 21.6653 662.378 21.6653 664.419Z" fill="url(#paint38_linear_414_295)"/>
<path d="M58.378 664.419C58.378 666.46 55.858 668.115 52.749 668.115C49.64 668.115 47.12 666.46 47.12 664.419C47.12 662.378 49.64 660.723 52.749 660.723C55.858 660.723 58.378 662.378 58.378 664.419Z" fill="url(#paint39_linear_414_295)"/>
<path d="M95.0906 664.419C95.0906 666.46 92.5706 668.115 89.4616 668.115C86.3526 668.115 83.8327 666.46 83.8327 664.419C83.8327 662.378 86.3526 660.723 89.4616 660.723C92.5706 660.723 95.0906 662.378 95.0906 664.419Z" fill="url(#paint40_linear_414_295)"/>
<path d="M131.806 664.419C131.806 666.46 129.286 668.115 126.177 668.115C123.068 668.115 120.548 666.46 120.548 664.419C120.548 662.378 123.068 660.723 126.177 660.723C129.286 660.723 131.806 662.378 131.806 664.419Z" fill="url(#paint41_linear_414_295)"/>
<path d="M168.519 664.419C168.519 666.46 165.999 668.115 162.89 668.115C159.781 668.115 157.261 666.46 157.261 664.419C157.261 662.378 159.781 660.723 162.89 660.723C165.999 660.723 168.519 662.378 168.519 664.419Z" fill="url(#paint42_linear_414_295)"/>
<path d="M205.232 664.419C205.232 666.46 202.712 668.115 199.603 668.115C196.494 668.115 193.974 666.46 193.974 664.419C193.974 662.378 196.494 660.723 199.603 660.723C202.712 660.723 205.232 662.378 205.232 664.419Z" fill="url(#paint43_linear_414_295)"/>
<path d="M241.947 664.419C241.947 666.46 239.427 668.115 236.318 668.115C233.209 668.115 230.69 666.46 230.69 664.419C230.69 662.378 233.209 660.723 236.318 660.723C239.427 660.723 241.947 662.378 241.947 664.419Z" fill="url(#paint44_linear_414_295)"/>
<path d="M278.66 664.419C278.66 666.46 276.14 668.115 273.031 668.115C269.922 668.115 267.402 666.46 267.402 664.419C267.402 662.378 269.922 660.723 273.031 660.723C276.14 660.723 278.66 662.378 278.66 664.419Z" fill="url(#paint45_linear_414_295)"/>
<path d="M315.373 664.419C315.373 666.46 312.853 668.115 309.744 668.115C306.635 668.115 304.115 666.46 304.115 664.419C304.115 662.378 306.635 660.723 309.744 660.723C312.853 660.723 315.373 662.378 315.373 664.419Z" fill="url(#paint46_linear_414_295)"/>
<path d="M352.088 664.419C352.088 666.46 349.568 668.115 346.459 668.115C343.35 668.115 340.831 666.46 340.831 664.419C340.831 662.378 343.35 660.723 346.459 660.723C349.568 660.723 352.088 662.378 352.088 664.419Z" fill="url(#paint47_linear_414_295)"/>
<path d="M388.801 664.419C388.801 666.46 386.281 668.115 383.172 668.115C380.063 668.115 377.543 666.46 377.543 664.419C377.543 662.378 380.063 660.723 383.172 660.723C386.281 660.723 388.801 662.378 388.801 664.419Z" fill="url(#paint48_linear_414_295)"/>
<path d="M425.517 664.419C425.517 666.46 422.997 668.115 419.888 668.115C416.779 668.115 414.259 666.46 414.259 664.419C414.259 662.378 416.779 660.723 419.888 660.723C422.997 660.723 425.517 662.378 425.517 664.419Z" fill="url(#paint49_linear_414_295)"/>
<path d="M462.23 664.419C462.23 666.46 459.71 668.115 456.601 668.115C453.492 668.115 450.972 666.46 450.972 664.419C450.972 662.378 453.492 660.723 456.601 660.723C459.71 660.723 462.23 662.378 462.23 664.419Z" fill="url(#paint50_linear_414_295)"/>
<path d="M498.942 664.419C498.942 666.46 496.422 668.115 493.313 668.115C490.204 668.115 487.684 666.46 487.684 664.419C487.684 662.378 490.204 660.723 493.313 660.723C496.422 660.723 498.942 662.378 498.942 664.419Z" fill="url(#paint51_linear_414_295)"/>
<path d="M21.6653 681.131C21.6653 683.172 19.1454 684.827 16.0364 684.827C12.9274 684.827 10.4074 683.172 10.4074 681.131C10.4074 679.09 12.9274 677.435 16.0364 677.435C19.1454 677.435 21.6653 679.09 21.6653 681.131Z" fill="url(#paint52_linear_414_295)"/>
<path d="M58.378 681.131C58.378 683.172 55.858 684.827 52.749 684.827C49.64 684.827 47.12 683.172 47.12 681.131C47.12 679.09 49.64 677.435 52.749 677.435C55.858 677.435 58.378 679.09 58.378 681.131Z" fill="url(#paint53_linear_414_295)"/>
<path d="M95.0906 681.131C95.0906 683.172 92.5706 684.827 89.4616 684.827C86.3526 684.827 83.8327 683.172 83.8327 681.131C83.8327 679.09 86.3526 677.435 89.4616 677.435C92.5706 677.435 95.0906 679.09 95.0906 681.131Z" fill="url(#paint54_linear_414_295)"/>
<path d="M131.806 681.131C131.806 683.172 129.286 684.827 126.177 684.827C123.068 684.827 120.548 683.172 120.548 681.131C120.548 679.09 123.068 677.435 126.177 677.435C129.286 677.435 131.806 679.09 131.806 681.131Z" fill="url(#paint55_linear_414_295)"/>
<path d="M168.519 681.131C168.519 683.172 165.999 684.827 162.89 684.827C159.781 684.827 157.261 683.172 157.261 681.131C157.261 679.09 159.781 677.435 162.89 677.435C165.999 677.435 168.519 679.09 168.519 681.131Z" fill="url(#paint56_linear_414_295)"/>
<path d="M205.232 681.131C205.232 683.172 202.712 684.827 199.603 684.827C196.494 684.827 193.974 683.172 193.974 681.131C193.974 679.09 196.494 677.435 199.603 677.435C202.712 677.435 205.232 679.09 205.232 681.131Z" fill="url(#paint57_linear_414_295)"/>
<path d="M241.947 681.131C241.947 683.172 239.427 684.827 236.318 684.827C233.209 684.827 230.69 683.172 230.69 681.131C230.69 679.09 233.209 677.435 236.318 677.435C239.427 677.435 241.947 679.09 241.947 681.131Z" fill="url(#paint58_linear_414_295)"/>
<path d="M278.66 681.131C278.66 683.172 276.14 684.827 273.031 684.827C269.922 684.827 267.402 683.172 267.402 681.131C267.402 679.09 269.922 677.435 273.031 677.435C276.14 677.435 278.66 679.09 278.66 681.131Z" fill="url(#paint59_linear_414_295)"/>
<path d="M315.373 681.131C315.373 683.172 312.853 684.827 309.744 684.827C306.635 684.827 304.115 683.172 304.115 681.131C304.115 679.09 306.635 677.435 309.744 677.435C312.853 677.435 315.373 679.09 315.373 681.131Z" fill="url(#paint60_linear_414_295)"/>
<path d="M352.088 681.131C352.088 683.172 349.568 684.827 346.459 684.827C343.35 684.827 340.831 683.172 340.831 681.131C340.831 679.09 343.35 677.435 346.459 677.435C349.568 677.435 352.088 679.09 352.088 681.131Z" fill="url(#paint61_linear_414_295)"/>
<path d="M388.801 681.131C388.801 683.172 386.281 684.827 383.172 684.827C380.063 684.827 377.543 683.172 377.543 681.131C377.543 679.09 380.063 677.435 383.172 677.435C386.281 677.435 388.801 679.09 388.801 681.131Z" fill="url(#paint62_linear_414_295)"/>
<path d="M425.517 681.131C425.517 683.172 422.997 684.827 419.888 684.827C416.779 684.827 414.259 683.172 414.259 681.131C414.259 679.09 416.779 677.435 419.888 677.435C422.997 677.435 425.517 679.09 425.517 681.131Z" fill="url(#paint63_linear_414_295)"/>
<path d="M462.23 681.131C462.23 683.172 459.71 684.827 456.601 684.827C453.492 684.827 450.972 683.172 450.972 681.131C450.972 679.09 453.492 677.435 456.601 677.435C459.71 677.435 462.23 679.09 462.23 681.131Z" fill="url(#paint64_linear_414_295)"/>
<path d="M498.942 681.131C498.942 683.172 496.422 684.827 493.313 684.827C490.204 684.827 487.684 683.172 487.684 681.131C487.684 679.09 490.204 677.435 493.313 677.435C496.422 677.435 498.942 679.09 498.942 681.131Z" fill="url(#paint65_linear_414_295)"/>
<path d="M21.6653 697.843C21.6653 699.884 19.1454 701.539 16.0364 701.539C12.9274 701.539 10.4074 699.884 10.4074 697.843C10.4074 695.802 12.9274 694.147 16.0364 694.147C19.1454 694.147 21.6653 695.802 21.6653 697.843Z" fill="url(#paint66_linear_414_295)"/>
<path d="M58.378 697.843C58.378 699.884 55.858 701.539 52.749 701.539C49.64 701.539 47.12 699.884 47.12 697.843C47.12 695.802 49.64 694.147 52.749 694.147C55.858 694.147 58.378 695.802 58.378 697.843Z" fill="url(#paint67_linear_414_295)"/>
<path d="M95.0906 697.843C95.0906 699.884 92.5706 701.539 89.4616 701.539C86.3526 701.539 83.8327 699.884 83.8327 697.843C83.8327 695.802 86.3526 694.147 89.4616 694.147C92.5706 694.147 95.0906 695.802 95.0906 697.843Z" fill="url(#paint68_linear_414_295)"/>
<path d="M131.806 697.843C131.806 699.884 129.286 701.539 126.177 701.539C123.068 701.539 120.548 699.884 120.548 697.843C120.548 695.802 123.068 694.147 126.177 694.147C129.286 694.147 131.806 695.802 131.806 697.843Z" fill="url(#paint69_linear_414_295)"/>
<path d="M162.89 701.539C165.999 701.539 168.519 699.884 168.519 697.843C168.519 695.802 165.999 694.147 162.89 694.147C159.781 694.147 157.261 695.802 157.261 697.843C157.261 699.884 159.781 701.539 162.89 701.539Z" fill="url(#paint70_linear_414_295)"/>
<path d="M205.232 697.843C205.232 699.884 202.712 701.539 199.603 701.539C196.494 701.539 193.974 699.884 193.974 697.843C193.974 695.802 196.494 694.147 199.603 694.147C202.712 694.147 205.232 695.802 205.232 697.843Z" fill="url(#paint71_linear_414_295)"/>
<path d="M241.947 697.843C241.947 699.884 239.427 701.539 236.318 701.539C233.209 701.539 230.69 699.884 230.69 697.843C230.69 695.802 233.209 694.147 236.318 694.147C239.427 694.147 241.947 695.802 241.947 697.843Z" fill="url(#paint72_linear_414_295)"/>
<path d="M278.66 697.843C278.66 699.884 276.14 701.539 273.031 701.539C269.922 701.539 267.402 699.884 267.402 697.843C267.402 695.802 269.922 694.147 273.031 694.147C276.14 694.147 278.66 695.802 278.66 697.843Z" fill="url(#paint73_linear_414_295)"/>
<path d="M315.373 697.843C315.373 699.884 312.853 701.539 309.744 701.539C306.635 701.539 304.115 699.884 304.115 697.843C304.115 695.802 306.635 694.147 309.744 694.147C312.853 694.147 315.373 695.802 315.373 697.843Z" fill="url(#paint74_linear_414_295)"/>
<path d="M352.088 697.843C352.088 699.884 349.568 701.539 346.459 701.539C343.35 701.539 340.831 699.884 340.831 697.843C340.831 695.802 343.35 694.147 346.459 694.147C349.568 694.147 352.088 695.802 352.088 697.843Z" fill="url(#paint75_linear_414_295)"/>
<path d="M388.801 697.843C388.801 699.884 386.281 701.539 383.172 701.539C380.063 701.539 377.543 699.884 377.543 697.843C377.543 695.802 380.063 694.147 383.172 694.147C386.281 694.147 388.801 695.802 388.801 697.843Z" fill="url(#paint76_linear_414_295)"/>
<path d="M425.517 697.843C425.517 699.884 422.997 701.539 419.888 701.539C416.779 701.539 414.259 699.884 414.259 697.843C414.259 695.802 416.779 694.147 419.888 694.147C422.997 694.147 425.517 695.802 425.517 697.843Z" fill="url(#paint77_linear_414_295)"/>
<path d="M462.23 697.843C462.23 699.884 459.71 701.539 456.601 701.539C453.492 701.539 450.972 699.884 450.972 697.843C450.972 695.802 453.492 694.147 456.601 694.147C459.71 694.147 462.23 695.802 462.23 697.843Z" fill="url(#paint78_linear_414_295)"/>
<path d="M493.313 701.539C496.422 701.539 498.942 699.884 498.942 697.843C498.942 695.802 496.422 694.147 493.313 694.147C490.204 694.147 487.684 695.802 487.684 697.843C487.684 699.884 490.204 701.539 493.313 701.539Z" fill="url(#paint79_linear_414_295)"/>
<path d="M21.6653 714.555C21.6653 716.596 19.1454 718.251 16.0364 718.251C12.9274 718.251 10.4074 716.596 10.4074 714.555C10.4074 712.514 12.9274 710.859 16.0364 710.859C19.1454 710.859 21.6653 712.514 21.6653 714.555Z" fill="url(#paint80_linear_414_295)"/>
<path d="M58.378 714.555C58.378 716.596 55.858 718.251 52.749 718.251C49.64 718.251 47.12 716.596 47.12 714.555C47.12 712.514 49.64 710.859 52.749 710.859C55.858 710.859 58.378 712.514 58.378 714.555Z" fill="url(#paint81_linear_414_295)"/>
<path d="M95.0906 714.555C95.0906 716.596 92.5706 718.251 89.4616 718.251C86.3526 718.251 83.8327 716.596 83.8327 714.555C83.8327 712.514 86.3526 710.859 89.4616 710.859C92.5706 710.859 95.0906 712.514 95.0906 714.555Z" fill="url(#paint82_linear_414_295)"/>
<path d="M131.806 714.555C131.806 716.596 129.286 718.251 126.177 718.251C123.068 718.251 120.548 716.596 120.548 714.555C120.548 712.514 123.068 710.859 126.177 710.859C129.286 710.859 131.806 712.514 131.806 714.555Z" fill="url(#paint83_linear_414_295)"/>
<path d="M168.519 714.555C168.519 716.596 165.999 718.251 162.89 718.251C159.781 718.251 157.261 716.596 157.261 714.555C157.261 712.514 159.781 710.859 162.89 710.859C165.999 710.859 168.519 712.514 168.519 714.555Z" fill="url(#paint84_linear_414_295)"/>
<path d="M205.232 714.555C205.232 716.596 202.712 718.251 199.603 718.251C196.494 718.251 193.974 716.596 193.974 714.555C193.974 712.514 196.494 710.859 199.603 710.859C202.712 710.859 205.232 712.514 205.232 714.555Z" fill="url(#paint85_linear_414_295)"/>
<path d="M241.947 714.555C241.947 716.596 239.427 718.251 236.318 718.251C233.209 718.251 230.69 716.596 230.69 714.555C230.69 712.514 233.209 710.859 236.318 710.859C239.427 710.859 241.947 712.514 241.947 714.555Z" fill="url(#paint86_linear_414_295)"/>
<path d="M278.66 714.555C278.66 716.596 276.14 718.251 273.031 718.251C269.922 718.251 267.402 716.596 267.402 714.555C267.402 712.514 269.922 710.859 273.031 710.859C276.14 710.859 278.66 712.514 278.66 714.555Z" fill="url(#paint87_linear_414_295)"/>
<path d="M315.373 714.555C315.373 716.596 312.853 718.251 309.744 718.251C306.635 718.251 304.115 716.596 304.115 714.555C304.115 712.514 306.635 710.859 309.744 710.859C312.853 710.859 315.373 712.514 315.373 714.555Z" fill="url(#paint88_linear_414_295)"/>
<path d="M352.088 714.555C352.088 716.596 349.568 718.251 346.459 718.251C343.35 718.251 340.831 716.596 340.831 714.555C340.831 712.514 343.35 710.859 346.459 710.859C349.568 710.859 352.088 712.514 352.088 714.555Z" fill="url(#paint89_linear_414_295)"/>
<path d="M388.801 714.555C388.801 716.596 386.281 718.251 383.172 718.251C380.063 718.251 377.543 716.596 377.543 714.555C377.543 712.514 380.063 710.859 383.172 710.859C386.281 710.859 388.801 712.514 388.801 714.555Z" fill="url(#paint90_linear_414_295)"/>
<path d="M425.517 714.555C425.517 716.596 422.997 718.251 419.888 718.251C416.779 718.251 414.259 716.596 414.259 714.555C414.259 712.514 416.779 710.859 419.888 710.859C422.997 710.859 425.517 712.514 425.517 714.555Z" fill="url(#paint91_linear_414_295)"/>
<path d="M462.23 714.555C462.23 716.596 459.71 718.251 456.601 718.251C453.492 718.251 450.972 716.596 450.972 714.555C450.972 712.514 453.492 710.859 456.601 710.859C459.71 710.859 462.23 712.514 462.23 714.555Z" fill="url(#paint92_linear_414_295)"/>
<path d="M498.942 714.555C498.942 716.596 496.422 718.251 493.313 718.251C490.204 718.251 487.684 716.596 487.684 714.555C487.684 712.514 490.204 710.859 493.313 710.859C496.422 710.859 498.942 712.514 498.942 714.555Z" fill="url(#paint93_linear_414_295)"/>
<path d="M21.6653 731.267C21.6653 733.308 19.1454 734.963 16.0364 734.963C12.9274 734.963 10.4074 733.308 10.4074 731.267C10.4074 729.226 12.9274 727.571 16.0364 727.571C19.1454 727.571 21.6653 729.226 21.6653 731.267Z" fill="url(#paint94_linear_414_295)"/>
<path d="M58.378 731.267C58.378 733.308 55.858 734.963 52.749 734.963C49.64 734.963 47.12 733.308 47.12 731.267C47.12 729.226 49.64 727.571 52.749 727.571C55.858 727.571 58.378 729.226 58.378 731.267Z" fill="url(#paint95_linear_414_295)"/>
<path d="M95.0906 731.267C95.0906 733.308 92.5706 734.963 89.4616 734.963C86.3526 734.963 83.8327 733.308 83.8327 731.267C83.8327 729.226 86.3526 727.571 89.4616 727.571C92.5706 727.571 95.0906 729.226 95.0906 731.267Z" fill="url(#paint96_linear_414_295)"/>
<path d="M131.806 731.267C131.806 733.308 129.286 734.963 126.177 734.963C123.068 734.963 120.548 733.308 120.548 731.267C120.548 729.226 123.068 727.571 126.177 727.571C129.286 727.571 131.806 729.226 131.806 731.267Z" fill="url(#paint97_linear_414_295)"/>
<path d="M168.519 731.267C168.519 733.308 165.999 734.963 162.89 734.963C159.781 734.963 157.261 733.308 157.261 731.267C157.261 729.226 159.781 727.571 162.89 727.571C165.999 727.571 168.519 729.226 168.519 731.267Z" fill="url(#paint98_linear_414_295)"/>
<path d="M205.232 731.267C205.232 733.308 202.712 734.963 199.603 734.963C196.494 734.963 193.974 733.308 193.974 731.267C193.974 729.226 196.494 727.571 199.603 727.571C202.712 727.571 205.232 729.226 205.232 731.267Z" fill="url(#paint99_linear_414_295)"/>
<path d="M241.947 731.267C241.947 733.308 239.427 734.963 236.318 734.963C233.209 734.963 230.69 733.308 230.69 731.267C230.69 729.226 233.209 727.571 236.318 727.571C239.427 727.571 241.947 729.226 241.947 731.267Z" fill="url(#paint100_linear_414_295)"/>
<path d="M278.66 731.267C278.66 733.308 276.14 734.963 273.031 734.963C269.922 734.963 267.402 733.308 267.402 731.267C267.402 729.226 269.922 727.571 273.031 727.571C276.14 727.571 278.66 729.226 278.66 731.267Z" fill="url(#paint101_linear_414_295)"/>
<path d="M315.373 731.267C315.373 733.308 312.853 734.963 309.744 734.963C306.635 734.963 304.115 733.308 304.115 731.267C304.115 729.226 306.635 727.571 309.744 727.571C312.853 727.571 315.373 729.226 315.373 731.267Z" fill="url(#paint102_linear_414_295)"/>
<path d="M352.088 731.267C352.088 733.308 349.568 734.963 346.459 734.963C343.35 734.963 340.831 733.308 340.831 731.267C340.831 729.226 343.35 727.571 346.459 727.571C349.568 727.571 352.088 729.226 352.088 731.267Z" fill="url(#paint103_linear_414_295)"/>
<path d="M388.801 731.267C388.801 733.308 386.281 734.963 383.172 734.963C380.063 734.963 377.543 733.308 377.543 731.267C377.543 729.226 380.063 727.571 383.172 727.571C386.281 727.571 388.801 729.226 388.801 731.267Z" fill="url(#paint104_linear_414_295)"/>
<path d="M425.517 731.267C425.517 733.308 422.997 734.963 419.888 734.963C416.779 734.963 414.259 733.308 414.259 731.267C414.259 729.226 416.779 727.571 419.888 727.571C422.997 727.571 425.517 729.226 425.517 731.267Z" fill="url(#paint105_linear_414_295)"/>
<path d="M462.23 731.267C462.23 733.308 459.71 734.963 456.601 734.963C453.492 734.963 450.972 733.308 450.972 731.267C450.972 729.226 453.492 727.571 456.601 727.571C459.71 727.571 462.23 729.226 462.23 731.267Z" fill="url(#paint106_linear_414_295)"/>
<path d="M498.942 731.267C498.942 733.308 496.422 734.963 493.313 734.963C490.204 734.963 487.684 733.308 487.684 731.267C487.684 729.226 490.204 727.571 493.313 727.571C496.422 727.571 498.942 729.226 498.942 731.267Z" fill="url(#paint107_linear_414_295)"/>
<path d="M21.6653 747.979C21.6653 750.02 19.1454 751.675 16.0364 751.675C12.9274 751.675 10.4074 750.02 10.4074 747.979C10.4074 745.938 12.9274 744.283 16.0364 744.283C19.1454 744.283 21.6653 745.938 21.6653 747.979Z" fill="url(#paint108_linear_414_295)"/>
<path d="M58.378 747.979C58.378 750.02 55.858 751.675 52.749 751.675C49.64 751.675 47.12 750.02 47.12 747.979C47.12 745.938 49.64 744.283 52.749 744.283C55.858 744.283 58.378 745.938 58.378 747.979Z" fill="url(#paint109_linear_414_295)"/>
<path d="M95.0906 747.979C95.0906 750.02 92.5706 751.675 89.4616 751.675C86.3526 751.675 83.8327 750.02 83.8327 747.979C83.8327 745.938 86.3526 744.283 89.4616 744.283C92.5706 744.283 95.0906 745.938 95.0906 747.979Z" fill="url(#paint110_linear_414_295)"/>
<path d="M131.806 747.979C131.806 750.02 129.286 751.675 126.177 751.675C123.068 751.675 120.548 750.02 120.548 747.979C120.548 745.938 123.068 744.283 126.177 744.283C129.286 744.283 131.806 745.938 131.806 747.979Z" fill="url(#paint111_linear_414_295)"/>
<path d="M168.519 747.979C168.519 750.02 165.999 751.675 162.89 751.675C159.781 751.675 157.261 750.02 157.261 747.979C157.261 745.938 159.781 744.283 162.89 744.283C165.999 744.283 168.519 745.938 168.519 747.979Z" fill="url(#paint112_linear_414_295)"/>
<path d="M205.232 747.979C205.232 750.02 202.712 751.675 199.603 751.675C196.494 751.675 193.974 750.02 193.974 747.979C193.974 745.938 196.494 744.283 199.603 744.283C202.712 744.283 205.232 745.938 205.232 747.979Z" fill="url(#paint113_linear_414_295)"/>
<path d="M241.947 747.979C241.947 750.02 239.427 751.675 236.318 751.675C233.209 751.675 230.69 750.02 230.69 747.979C230.69 745.938 233.209 744.283 236.318 744.283C239.427 744.283 241.947 745.938 241.947 747.979Z" fill="url(#paint114_linear_414_295)"/>
<path d="M278.66 747.979C278.66 750.02 276.14 751.675 273.031 751.675C269.922 751.675 267.402 750.02 267.402 747.979C267.402 745.938 269.922 744.283 273.031 744.283C276.14 744.283 278.66 745.938 278.66 747.979Z" fill="url(#paint115_linear_414_295)"/>
<path d="M315.373 747.979C315.373 750.02 312.853 751.675 309.744 751.675C306.635 751.675 304.115 750.02 304.115 747.979C304.115 745.938 306.635 744.283 309.744 744.283C312.853 744.283 315.373 745.938 315.373 747.979Z" fill="url(#paint116_linear_414_295)"/>
<path d="M352.088 747.979C352.088 750.02 349.568 751.675 346.459 751.675C343.35 751.675 340.831 750.02 340.831 747.979C340.831 745.938 343.35 744.283 346.459 744.283C349.568 744.283 352.088 745.938 352.088 747.979Z" fill="url(#paint117_linear_414_295)"/>
<path d="M388.801 747.979C388.801 750.02 386.281 751.675 383.172 751.675C380.063 751.675 377.543 750.02 377.543 747.979C377.543 745.938 380.063 744.283 383.172 744.283C386.281 744.283 388.801 745.938 388.801 747.979Z" fill="url(#paint118_linear_414_295)"/>
<path d="M425.517 747.979C425.517 750.02 422.997 751.675 419.888 751.675C416.779 751.675 414.259 750.02 414.259 747.979C414.259 745.938 416.779 744.283 419.888 744.283C422.997 744.283 425.517 745.938 425.517 747.979Z" fill="url(#paint119_linear_414_295)"/>
<path d="M462.23 747.979C462.23 750.02 459.71 751.675 456.601 751.675C453.492 751.675 450.972 750.02 450.972 747.979C450.972 745.938 453.492 744.283 456.601 744.283C459.71 744.283 462.23 745.938 462.23 747.979Z" fill="url(#paint120_linear_414_295)"/>
<path d="M498.942 747.979C498.942 750.02 496.422 751.675 493.313 751.675C490.204 751.675 487.684 750.02 487.684 747.979C487.684 745.938 490.204 744.283 493.313 744.283C496.422 744.283 498.942 745.938 498.942 747.979Z" fill="url(#paint121_linear_414_295)"/>
<path d="M21.6653 764.691C21.6653 766.732 19.1454 768.387 16.0364 768.387C12.9274 768.387 10.4074 766.732 10.4074 764.691C10.4074 762.65 12.9274 760.995 16.0364 760.995C19.1454 760.995 21.6653 762.65 21.6653 764.691Z" fill="url(#paint122_linear_414_295)"/>
<path d="M58.378 764.691C58.378 766.732 55.858 768.387 52.749 768.387C49.64 768.387 47.12 766.732 47.12 764.691C47.12 762.65 49.64 760.995 52.749 760.995C55.858 760.995 58.378 762.65 58.378 764.691Z" fill="url(#paint123_linear_414_295)"/>
<path d="M95.0906 764.691C95.0906 766.732 92.5706 768.387 89.4616 768.387C86.3526 768.387 83.8327 766.732 83.8327 764.691C83.8327 762.65 86.3526 760.995 89.4616 760.995C92.5706 760.995 95.0906 762.65 95.0906 764.691Z" fill="url(#paint124_linear_414_295)"/>
<path d="M131.806 764.691C131.806 766.732 129.286 768.387 126.177 768.387C123.068 768.387 120.548 766.732 120.548 764.691C120.548 762.65 123.068 760.995 126.177 760.995C129.286 760.995 131.806 762.65 131.806 764.691Z" fill="url(#paint125_linear_414_295)"/>
<path d="M168.519 764.691C168.519 766.732 165.999 768.387 162.89 768.387C159.781 768.387 157.261 766.732 157.261 764.691C157.261 762.65 159.781 760.995 162.89 760.995C165.999 760.995 168.519 762.65 168.519 764.691Z" fill="url(#paint126_linear_414_295)"/>
<path d="M205.232 764.691C205.232 766.732 202.712 768.387 199.603 768.387C196.494 768.387 193.974 766.732 193.974 764.691C193.974 762.65 196.494 760.995 199.603 760.995C202.712 760.995 205.232 762.65 205.232 764.691Z" fill="url(#paint127_linear_414_295)"/>
<path d="M241.947 764.691C241.947 766.732 239.427 768.387 236.318 768.387C233.209 768.387 230.69 766.732 230.69 764.691C230.69 762.65 233.209 760.995 236.318 760.995C239.427 760.995 241.947 762.65 241.947 764.691Z" fill="url(#paint128_linear_414_295)"/>
<path d="M278.66 764.691C278.66 766.732 276.14 768.387 273.031 768.387C269.922 768.387 267.402 766.732 267.402 764.691C267.402 762.65 269.922 760.995 273.031 760.995C276.14 760.995 278.66 762.65 278.66 764.691Z" fill="url(#paint129_linear_414_295)"/>
<path d="M315.373 764.691C315.373 766.732 312.853 768.387 309.744 768.387C306.635 768.387 304.115 766.732 304.115 764.691C304.115 762.65 306.635 760.995 309.744 760.995C312.853 760.995 315.373 762.65 315.373 764.691Z" fill="url(#paint130_linear_414_295)"/>
<path d="M352.088 764.691C352.088 766.732 349.568 768.387 346.459 768.387C343.35 768.387 340.831 766.732 340.831 764.691C340.831 762.65 343.35 760.995 346.459 760.995C349.568 760.995 352.088 762.65 352.088 764.691Z" fill="url(#paint131_linear_414_295)"/>
<path d="M388.801 764.691C388.801 766.732 386.281 768.387 383.172 768.387C380.063 768.387 377.543 766.732 377.543 764.691C377.543 762.65 380.063 760.995 383.172 760.995C386.281 760.995 388.801 762.65 388.801 764.691Z" fill="url(#paint132_linear_414_295)"/>
<path d="M425.517 764.691C425.517 766.732 422.997 768.387 419.888 768.387C416.779 768.387 414.259 766.732 414.259 764.691C414.259 762.65 416.779 760.995 419.888 760.995C422.997 760.995 425.517 762.65 425.517 764.691Z" fill="url(#paint133_linear_414_295)"/>
<path d="M462.23 764.691C462.23 766.732 459.71 768.387 456.601 768.387C453.492 768.387 450.972 766.732 450.972 764.691C450.972 762.65 453.492 760.995 456.601 760.995C459.71 760.995 462.23 762.65 462.23 764.691Z" fill="url(#paint134_linear_414_295)"/>
<path d="M498.942 764.691C498.942 766.732 496.422 768.387 493.313 768.387C490.204 768.387 487.684 766.732 487.684 764.691C487.684 762.65 490.204 760.995 493.313 760.995C496.422 760.995 498.942 762.65 498.942 764.691Z" fill="url(#paint135_linear_414_295)"/>
<path d="M21.6653 781.403C21.6653 783.444 19.1454 785.099 16.0364 785.099C12.9274 785.099 10.4074 783.444 10.4074 781.403C10.4074 779.362 12.9274 777.708 16.0364 777.708C19.1454 777.708 21.6653 779.362 21.6653 781.403Z" fill="url(#paint136_linear_414_295)"/>
<path d="M58.378 781.403C58.378 783.444 55.858 785.099 52.749 785.099C49.64 785.099 47.12 783.444 47.12 781.403C47.12 779.362 49.64 777.708 52.749 777.708C55.858 777.708 58.378 779.362 58.378 781.403Z" fill="url(#paint137_linear_414_295)"/>
<path d="M95.0906 781.403C95.0906 783.444 92.5706 785.099 89.4616 785.099C86.3526 785.099 83.8327 783.444 83.8327 781.403C83.8327 779.362 86.3526 777.708 89.4616 777.708C92.5706 777.708 95.0906 779.362 95.0906 781.403Z" fill="url(#paint138_linear_414_295)"/>
<path d="M131.806 781.403C131.806 783.444 129.286 785.099 126.177 785.099C123.068 785.099 120.548 783.444 120.548 781.403C120.548 779.362 123.068 777.708 126.177 777.708C129.286 777.708 131.806 779.362 131.806 781.403Z" fill="url(#paint139_linear_414_295)"/>
<path d="M168.519 781.403C168.519 783.444 165.999 785.099 162.89 785.099C159.781 785.099 157.261 783.444 157.261 781.403C157.261 779.362 159.781 777.708 162.89 777.708C165.999 777.708 168.519 779.362 168.519 781.403Z" fill="url(#paint140_linear_414_295)"/>
<path d="M205.232 781.403C205.232 783.444 202.712 785.099 199.603 785.099C196.494 785.099 193.974 783.444 193.974 781.403C193.974 779.362 196.494 777.708 199.603 777.708C202.712 777.708 205.232 779.362 205.232 781.403Z" fill="url(#paint141_linear_414_295)"/>
<path d="M241.947 781.403C241.947 783.444 239.427 785.099 236.318 785.099C233.209 785.099 230.69 783.444 230.69 781.403C230.69 779.362 233.209 777.708 236.318 777.708C239.427 777.708 241.947 779.362 241.947 781.403Z" fill="url(#paint142_linear_414_295)"/>
<path d="M278.66 781.403C278.66 783.444 276.14 785.099 273.031 785.099C269.922 785.099 267.402 783.444 267.402 781.403C267.402 779.362 269.922 777.708 273.031 777.708C276.14 777.708 278.66 779.362 278.66 781.403Z" fill="url(#paint143_linear_414_295)"/>
<path d="M315.373 781.403C315.373 783.444 312.853 785.099 309.744 785.099C306.635 785.099 304.115 783.444 304.115 781.403C304.115 779.362 306.635 777.708 309.744 777.708C312.853 777.708 315.373 779.362 315.373 781.403Z" fill="url(#paint144_linear_414_295)"/>
<path d="M352.088 781.403C352.088 783.444 349.568 785.099 346.459 785.099C343.35 785.099 340.831 783.444 340.831 781.403C340.831 779.362 343.35 777.708 346.459 777.708C349.568 777.708 352.088 779.362 352.088 781.403Z" fill="url(#paint145_linear_414_295)"/>
<path d="M388.801 781.403C388.801 783.444 386.281 785.099 383.172 785.099C380.063 785.099 377.543 783.444 377.543 781.403C377.543 779.362 380.063 777.708 383.172 777.708C386.281 777.708 388.801 779.362 388.801 781.403Z" fill="url(#paint146_linear_414_295)"/>
<path d="M425.517 781.403C425.517 783.444 422.997 785.099 419.888 785.099C416.779 785.099 414.259 783.444 414.259 781.403C414.259 779.362 416.779 777.708 419.888 777.708C422.997 777.708 425.517 779.362 425.517 781.403Z" fill="url(#paint147_linear_414_295)"/>
<path d="M462.23 781.403C462.23 783.444 459.71 785.099 456.601 785.099C453.492 785.099 450.972 783.444 450.972 781.403C450.972 779.362 453.492 777.708 456.601 777.708C459.71 777.708 462.23 779.362 462.23 781.403Z" fill="url(#paint148_linear_414_295)"/>
<path d="M498.942 781.403C498.942 783.444 496.422 785.099 493.313 785.099C490.204 785.099 487.684 783.444 487.684 781.403C487.684 779.362 490.204 777.708 493.313 777.708C496.422 777.708 498.942 779.362 498.942 781.403Z" fill="url(#paint149_linear_414_295)"/>
</g>
<path d="M1257.94 718.741H1346.49L1204.16 556.886L1346.49 395.031H1257.94L1115.6 556.886L1257.94 718.741Z" fill="url(#paint150_linear_414_295)"/>
<path d="M1120.61 718.741H1209.16L1066.83 556.886L1209.16 395.031H1120.61L978.276 556.886L1120.61 718.741Z" fill="url(#paint151_linear_414_295)"/>
<path d="M983.278 718.741H1071.83L929.496 556.886L1071.83 395.031H983.278L840.944 556.886L983.278 718.741Z" fill="url(#paint152_linear_414_295)"/>
<path d="M845.947 718.741H934.501L792.168 556.886L934.501 395.031H845.947L703.616 556.886L845.947 718.741Z" fill="url(#paint153_linear_414_295)"/>
<path d="M1366.58 338.929H1319.85L1394.97 253.505L1319.85 168.082H1366.58L1441.7 253.505L1366.58 338.929Z" fill="url(#paint154_linear_414_295)"/>
<path d="M1439.06 338.929H1392.33L1467.45 253.505L1392.33 168.082H1439.06L1514.18 253.505L1439.06 338.929Z" fill="url(#paint155_linear_414_295)"/>
<path d="M1511.54 338.929H1464.81L1539.93 253.505L1464.81 168.082H1511.54L1586.66 253.505L1511.54 338.929Z" fill="url(#paint156_linear_414_295)"/>
<path d="M1584.02 338.929H1537.29L1612.41 253.505L1537.29 168.082H1584.02L1659.14 253.505L1584.02 338.929Z" fill="url(#paint157_linear_414_295)"/>
</g>
<defs>
<linearGradient id="paint0_linear_414_295" x1="1205.56" y1="519.129" x2="2113.55" y2="519.129" gradientUnits="userSpaceOnUse">
<stop stop-color="#FF5404"/>
<stop offset="0.9946" stop-color="#EEC700"/>
</linearGradient>
<linearGradient id="paint1_linear_414_295" x1="1205.56" y1="604.652" x2="2113.56" y2="604.652" gradientUnits="userSpaceOnUse">
<stop stop-color="#FF5404"/>
<stop offset="0.9946" stop-color="#EEC700"/>
</linearGradient>
<linearGradient id="paint2_linear_414_295" x1="1252.22" y1="538.412" x2="2147.55" y2="538.412" gradientUnits="userSpaceOnUse">
<stop stop-color="#FF5404"/>
<stop offset="0.9946" stop-color="#EEC700"/>
</linearGradient>
<linearGradient id="paint3_linear_414_295" x1="828.426" y1="876.666" x2="780.79" y2="585.047" gradientUnits="userSpaceOnUse">
<stop stop-color="#FF5404"/>
<stop offset="0.9946" stop-color="#EEC700"/>
</linearGradient>
<linearGradient id="paint4_linear_414_295" x1="1792.99" y1="430.255" x2="1745.35" y2="138.637" gradientUnits="userSpaceOnUse">
<stop stop-color="#FF5404"/>
<stop offset="0.9946" stop-color="#EEC700"/>
</linearGradient>
<linearGradient id="paint5_linear_414_295" x1="792.476" y1="827.675" x2="771.936" y2="701.931" gradientUnits="userSpaceOnUse">
<stop stop-color="white"/>
<stop offset="0.9946" stop-color="#EEC700" stop-opacity="0"/>
</linearGradient>
<linearGradient id="paint6_linear_414_295" x1="1870.84" y1="505.981" x2="1850.3" y2="380.236" gradientUnits="userSpaceOnUse">
<stop stop-color="white"/>
<stop offset="0.9946" stop-color="#EEC700" stop-opacity="0"/>
</linearGradient>
<linearGradient id="paint7_linear_414_295" x1="1547.66" y1="34.1164" x2="1636.54" y2="266.17" gradientUnits="userSpaceOnUse">
<stop stop-color="white"/>
<stop offset="0.9946" stop-color="#EEC700" stop-opacity="0"/>
</linearGradient>
<linearGradient id="paint8_linear_414_295" x1="-438.095" y1="253.852" x2="233.107" y2="253.852" gradientUnits="userSpaceOnUse">
<stop stop-color="#FF5404"/>
<stop offset="0.9946" stop-color="#EEC700"/>
</linearGradient>
<linearGradient id="paint9_linear_414_295" x1="-421.767" y1="263.512" x2="258.934" y2="263.512" gradientUnits="userSpaceOnUse">
<stop stop-color="#FF5404"/>
<stop offset="0.9946" stop-color="#EEC700"/>
</linearGradient>
<linearGradient id="paint10_linear_414_295" x1="-113.309" y1="926.58" x2="-39.5037" y2="535.287" gradientUnits="userSpaceOnUse">
<stop stop-color="white"/>
<stop offset="0.9946" stop-color="#EEC700" stop-opacity="0"/>
</linearGradient>
<linearGradient id="paint11_linear_414_295" x1="-79.395" y1="932.977" x2="-5.58934" y2="541.684" gradientUnits="userSpaceOnUse">
<stop stop-color="white"/>
<stop offset="0.9946" stop-color="#EEC700" stop-opacity="0"/>
</linearGradient>
<linearGradient id="paint12_linear_414_295" x1="-45.4807" y1="939.375" x2="28.3248" y2="548.081" gradientUnits="userSpaceOnUse">
<stop stop-color="white"/>
<stop offset="0.9946" stop-color="#EEC700" stop-opacity="0"/>
</linearGradient>
<linearGradient id="paint13_linear_414_295" x1="-11.5665" y1="945.773" x2="62.2394" y2="554.478" gradientUnits="userSpaceOnUse">
<stop stop-color="white"/>
<stop offset="0.9946" stop-color="#EEC700" stop-opacity="0"/>
</linearGradient>
<linearGradient id="paint14_linear_414_295" x1="22.348" y1="952.168" x2="96.1537" y2="560.874" gradientUnits="userSpaceOnUse">
<stop stop-color="white"/>
<stop offset="0.9946" stop-color="#EEC700" stop-opacity="0"/>
</linearGradient>
<linearGradient id="paint15_linear_414_295" x1="56.2623" y1="958.566" x2="130.068" y2="567.271" gradientUnits="userSpaceOnUse">
<stop stop-color="white"/>
<stop offset="0.9946" stop-color="#EEC700" stop-opacity="0"/>
</linearGradient>
<linearGradient id="paint16_linear_414_295" x1="90.1778" y1="964.963" x2="163.984" y2="573.669" gradientUnits="userSpaceOnUse">
<stop stop-color="white"/>
<stop offset="0.9946" stop-color="#EEC700" stop-opacity="0"/>
</linearGradient>
<linearGradient id="paint17_linear_414_295" x1="124.092" y1="971.36" x2="197.898" y2="580.065" gradientUnits="userSpaceOnUse">
<stop stop-color="white"/>
<stop offset="0.9946" stop-color="#EEC700" stop-opacity="0"/>
</linearGradient>
<linearGradient id="paint18_linear_414_295" x1="158.007" y1="977.756" x2="231.813" y2="586.462" gradientUnits="userSpaceOnUse">
<stop stop-color="white"/>
<stop offset="0.9946" stop-color="#EEC700" stop-opacity="0"/>
</linearGradient>
<linearGradient id="paint19_linear_414_295" x1="191.921" y1="984.153" x2="265.726" y2="592.859" gradientUnits="userSpaceOnUse">
<stop stop-color="white"/>
<stop offset="0.9946" stop-color="#EEC700" stop-opacity="0"/>
</linearGradient>
<linearGradient id="paint20_linear_414_295" x1="225.835" y1="990.551" x2="299.641" y2="599.256" gradientUnits="userSpaceOnUse">
<stop stop-color="white"/>
<stop offset="0.9946" stop-color="#EEC700" stop-opacity="0"/>
</linearGradient>
<linearGradient id="paint21_linear_414_295" x1="259.75" y1="996.947" x2="333.555" y2="605.653" gradientUnits="userSpaceOnUse">
<stop stop-color="white"/>
<stop offset="0.9946" stop-color="#EEC700" stop-opacity="0"/>
</linearGradient>
<linearGradient id="paint22_linear_414_295" x1="293.664" y1="1003.34" x2="367.469" y2="612.05" gradientUnits="userSpaceOnUse">
<stop stop-color="white"/>
<stop offset="0.9946" stop-color="#EEC700" stop-opacity="0"/>
</linearGradient>
<linearGradient id="paint23_linear_414_295" x1="327.578" y1="1009.74" x2="401.384" y2="618.447" gradientUnits="userSpaceOnUse">
<stop stop-color="white"/>
<stop offset="0.9946" stop-color="#EEC700" stop-opacity="0"/>
</linearGradient>
<linearGradient id="paint24_linear_414_295" x1="-106.554" y1="927.854" x2="-32.7481" y2="536.561" gradientUnits="userSpaceOnUse">
<stop stop-color="white"/>
<stop offset="0.9946" stop-color="#EEC700" stop-opacity="0"/>
</linearGradient>
<linearGradient id="paint25_linear_414_295" x1="-72.6393" y1="934.251" x2="1.16622" y2="542.958" gradientUnits="userSpaceOnUse">
<stop stop-color="white"/>
<stop offset="0.9946" stop-color="#EEC700" stop-opacity="0"/>
</linearGradient>
<linearGradient id="paint26_linear_414_295" x1="-38.725" y1="940.648" x2="35.0803" y2="549.355" gradientUnits="userSpaceOnUse">
<stop stop-color="white"/>
<stop offset="0.9946" stop-color="#EEC700" stop-opacity="0"/>
</linearGradient>
<linearGradient id="paint27_linear_414_295" x1="-4.8105" y1="947.045" x2="68.9953" y2="555.751" gradientUnits="userSpaceOnUse">
<stop stop-color="white"/>
<stop offset="0.9946" stop-color="#EEC700" stop-opacity="0"/>
</linearGradient>
<linearGradient id="paint28_linear_414_295" x1="29.104" y1="953.442" x2="102.909" y2="562.149" gradientUnits="userSpaceOnUse">
<stop stop-color="white"/>
<stop offset="0.9946" stop-color="#EEC700" stop-opacity="0"/>
</linearGradient>
<linearGradient id="paint29_linear_414_295" x1="63.018" y1="959.84" x2="136.824" y2="568.545" gradientUnits="userSpaceOnUse">
<stop stop-color="white"/>
<stop offset="0.9946" stop-color="#EEC700" stop-opacity="0"/>
</linearGradient>
<linearGradient id="paint30_linear_414_295" x1="96.9334" y1="966.236" x2="170.739" y2="574.943" gradientUnits="userSpaceOnUse">
<stop stop-color="white"/>
<stop offset="0.9946" stop-color="#EEC700" stop-opacity="0"/>
</linearGradient>
<linearGradient id="paint31_linear_414_295" x1="130.848" y1="972.633" x2="204.654" y2="581.339" gradientUnits="userSpaceOnUse">
<stop stop-color="white"/>
<stop offset="0.9946" stop-color="#EEC700" stop-opacity="0"/>
</linearGradient>
<linearGradient id="paint32_linear_414_295" x1="164.762" y1="979.029" x2="238.568" y2="587.736" gradientUnits="userSpaceOnUse">
<stop stop-color="white"/>
<stop offset="0.9946" stop-color="#EEC700" stop-opacity="0"/>
</linearGradient>
<linearGradient id="paint33_linear_414_295" x1="198.676" y1="985.427" x2="272.482" y2="594.134" gradientUnits="userSpaceOnUse">
<stop stop-color="white"/>
<stop offset="0.9946" stop-color="#EEC700" stop-opacity="0"/>
</linearGradient>
<linearGradient id="paint34_linear_414_295" x1="232.591" y1="991.824" x2="306.396" y2="600.53" gradientUnits="userSpaceOnUse">
<stop stop-color="white"/>
<stop offset="0.9946" stop-color="#EEC700" stop-opacity="0"/>
</linearGradient>
<linearGradient id="paint35_linear_414_295" x1="266.506" y1="998.22" x2="340.311" y2="606.927" gradientUnits="userSpaceOnUse">
<stop stop-color="white"/>
<stop offset="0.9946" stop-color="#EEC700" stop-opacity="0"/>
</linearGradient>
<linearGradient id="paint36_linear_414_295" x1="300.42" y1="1004.62" x2="374.225" y2="613.324" gradientUnits="userSpaceOnUse">
<stop stop-color="white"/>
<stop offset="0.9946" stop-color="#EEC700" stop-opacity="0"/>
</linearGradient>
<linearGradient id="paint37_linear_414_295" x1="334.334" y1="1011.01" x2="408.14" y2="619.721" gradientUnits="userSpaceOnUse">
<stop stop-color="white"/>
<stop offset="0.9946" stop-color="#EEC700" stop-opacity="0"/>
</linearGradient>
<linearGradient id="paint38_linear_414_295" x1="-99.7984" y1="929.126" x2="-25.9942" y2="537.836" gradientUnits="userSpaceOnUse">
<stop stop-color="white"/>
<stop offset="0.9946" stop-color="#EEC700" stop-opacity="0"/>
</linearGradient>
<linearGradient id="paint39_linear_414_295" x1="-65.8839" y1="935.523" x2="7.92036" y2="544.233" gradientUnits="userSpaceOnUse">
<stop stop-color="white"/>
<stop offset="0.9946" stop-color="#EEC700" stop-opacity="0"/>
</linearGradient>
<linearGradient id="paint40_linear_414_295" x1="-31.9696" y1="941.92" x2="41.8345" y2="550.631" gradientUnits="userSpaceOnUse">
<stop stop-color="white"/>
<stop offset="0.9946" stop-color="#EEC700" stop-opacity="0"/>
</linearGradient>
<linearGradient id="paint41_linear_414_295" x1="1.94487" y1="948.317" x2="75.7493" y2="557.027" gradientUnits="userSpaceOnUse">
<stop stop-color="white"/>
<stop offset="0.9946" stop-color="#EEC700" stop-opacity="0"/>
</linearGradient>
<linearGradient id="paint42_linear_414_295" x1="35.8591" y1="954.714" x2="109.663" y2="563.424" gradientUnits="userSpaceOnUse">
<stop stop-color="white"/>
<stop offset="0.9946" stop-color="#EEC700" stop-opacity="0"/>
</linearGradient>
<linearGradient id="paint43_linear_414_295" x1="69.7734" y1="961.111" x2="143.578" y2="569.821" gradientUnits="userSpaceOnUse">
<stop stop-color="white"/>
<stop offset="0.9946" stop-color="#EEC700" stop-opacity="0"/>
</linearGradient>
<linearGradient id="paint44_linear_414_295" x1="103.689" y1="967.507" x2="177.493" y2="576.217" gradientUnits="userSpaceOnUse">
<stop stop-color="white"/>
<stop offset="0.9946" stop-color="#EEC700" stop-opacity="0"/>
</linearGradient>
<linearGradient id="paint45_linear_414_295" x1="137.603" y1="973.905" x2="211.408" y2="582.614" gradientUnits="userSpaceOnUse">
<stop stop-color="white"/>
<stop offset="0.9946" stop-color="#EEC700" stop-opacity="0"/>
</linearGradient>
<linearGradient id="paint46_linear_414_295" x1="171.518" y1="980.301" x2="245.322" y2="589.012" gradientUnits="userSpaceOnUse">
<stop stop-color="white"/>
<stop offset="0.9946" stop-color="#EEC700" stop-opacity="0"/>
</linearGradient>
<linearGradient id="paint47_linear_414_295" x1="205.432" y1="986.698" x2="279.236" y2="595.409" gradientUnits="userSpaceOnUse">
<stop stop-color="white"/>
<stop offset="0.9946" stop-color="#EEC700" stop-opacity="0"/>
</linearGradient>
<linearGradient id="paint48_linear_414_295" x1="239.346" y1="993.096" x2="313.15" y2="601.804" gradientUnits="userSpaceOnUse">
<stop stop-color="white"/>
<stop offset="0.9946" stop-color="#EEC700" stop-opacity="0"/>
</linearGradient>
<linearGradient id="paint49_linear_414_295" x1="273.261" y1="999.492" x2="347.065" y2="608.202" gradientUnits="userSpaceOnUse">
<stop stop-color="white"/>
<stop offset="0.9946" stop-color="#EEC700" stop-opacity="0"/>
</linearGradient>
<linearGradient id="paint50_linear_414_295" x1="307.175" y1="1005.89" x2="380.979" y2="614.599" gradientUnits="userSpaceOnUse">
<stop stop-color="white"/>
<stop offset="0.9946" stop-color="#EEC700" stop-opacity="0"/>
</linearGradient>
<linearGradient id="paint51_linear_414_295" x1="341.09" y1="1012.29" x2="414.894" y2="620.995" gradientUnits="userSpaceOnUse">
<stop stop-color="white"/>
<stop offset="0.9946" stop-color="#EEC700" stop-opacity="0"/>
</linearGradient>
<linearGradient id="paint52_linear_414_295" x1="-93.043" y1="930.403" x2="-19.2374" y2="539.109" gradientUnits="userSpaceOnUse">
<stop stop-color="white"/>
<stop offset="0.9946" stop-color="#EEC700" stop-opacity="0"/>
</linearGradient>
<linearGradient id="paint53_linear_414_295" x1="-59.1288" y1="936.8" x2="14.6768" y2="545.506" gradientUnits="userSpaceOnUse">
<stop stop-color="white"/>
<stop offset="0.9946" stop-color="#EEC700" stop-opacity="0"/>
</linearGradient>
<linearGradient id="paint54_linear_414_295" x1="-25.2145" y1="943.197" x2="48.5909" y2="551.904" gradientUnits="userSpaceOnUse">
<stop stop-color="white"/>
<stop offset="0.9946" stop-color="#EEC700" stop-opacity="0"/>
</linearGradient>
<linearGradient id="paint55_linear_414_295" x1="8.69993" y1="949.594" x2="82.5058" y2="558.3" gradientUnits="userSpaceOnUse">
<stop stop-color="white"/>
<stop offset="0.9946" stop-color="#EEC700" stop-opacity="0"/>
</linearGradient>
<linearGradient id="paint56_linear_414_295" x1="42.6145" y1="955.991" x2="116.42" y2="564.697" gradientUnits="userSpaceOnUse">
<stop stop-color="white"/>
<stop offset="0.9946" stop-color="#EEC700" stop-opacity="0"/>
</linearGradient>
<linearGradient id="paint57_linear_414_295" x1="76.5287" y1="962.389" x2="150.334" y2="571.094" gradientUnits="userSpaceOnUse">
<stop stop-color="white"/>
<stop offset="0.9946" stop-color="#EEC700" stop-opacity="0"/>
</linearGradient>
<linearGradient id="paint58_linear_414_295" x1="110.444" y1="968.784" x2="184.25" y2="577.491" gradientUnits="userSpaceOnUse">
<stop stop-color="white"/>
<stop offset="0.9946" stop-color="#EEC700" stop-opacity="0"/>
</linearGradient>
<linearGradient id="paint59_linear_414_295" x1="144.358" y1="975.183" x2="218.164" y2="583.888" gradientUnits="userSpaceOnUse">
<stop stop-color="white"/>
<stop offset="0.9946" stop-color="#EEC700" stop-opacity="0"/>
</linearGradient>
<linearGradient id="paint60_linear_414_295" x1="178.273" y1="981.579" x2="252.079" y2="590.285" gradientUnits="userSpaceOnUse">
<stop stop-color="white"/>
<stop offset="0.9946" stop-color="#EEC700" stop-opacity="0"/>
</linearGradient>
<linearGradient id="paint61_linear_414_295" x1="212.187" y1="987.975" x2="285.993" y2="596.681" gradientUnits="userSpaceOnUse">
<stop stop-color="white"/>
<stop offset="0.9946" stop-color="#EEC700" stop-opacity="0"/>
</linearGradient>
<linearGradient id="paint62_linear_414_295" x1="246.101" y1="994.373" x2="319.907" y2="603.078" gradientUnits="userSpaceOnUse">
<stop stop-color="white"/>
<stop offset="0.9946" stop-color="#EEC700" stop-opacity="0"/>
</linearGradient>
<linearGradient id="paint63_linear_414_295" x1="280.016" y1="1000.77" x2="353.822" y2="609.476" gradientUnits="userSpaceOnUse">
<stop stop-color="white"/>
<stop offset="0.9946" stop-color="#EEC700" stop-opacity="0"/>
</linearGradient>
<linearGradient id="paint64_linear_414_295" x1="313.93" y1="1007.17" x2="387.736" y2="615.873" gradientUnits="userSpaceOnUse">
<stop stop-color="white"/>
<stop offset="0.9946" stop-color="#EEC700" stop-opacity="0"/>
</linearGradient>
<linearGradient id="paint65_linear_414_295" x1="347.845" y1="1013.56" x2="421.651" y2="622.269" gradientUnits="userSpaceOnUse">
<stop stop-color="white"/>
<stop offset="0.9946" stop-color="#EEC700" stop-opacity="0"/>
</linearGradient>
<linearGradient id="paint66_linear_414_295" x1="-86.2902" y1="931.683" x2="-12.4829" y2="540.38" gradientUnits="userSpaceOnUse">
<stop stop-color="white"/>
<stop offset="0.9946" stop-color="#EEC700" stop-opacity="0"/>
</linearGradient>
<linearGradient id="paint67_linear_414_295" x1="-52.376" y1="938.08" x2="21.4313" y2="546.777" gradientUnits="userSpaceOnUse">
<stop stop-color="white"/>
<stop offset="0.9946" stop-color="#EEC700" stop-opacity="0"/>
</linearGradient>
<linearGradient id="paint68_linear_414_295" x1="-18.4614" y1="944.477" x2="55.3458" y2="553.174" gradientUnits="userSpaceOnUse">
<stop stop-color="white"/>
<stop offset="0.9946" stop-color="#EEC700" stop-opacity="0"/>
</linearGradient>
<linearGradient id="paint69_linear_414_295" x1="15.4528" y1="950.875" x2="89.2604" y2="559.571" gradientUnits="userSpaceOnUse">
<stop stop-color="white"/>
<stop offset="0.9946" stop-color="#EEC700" stop-opacity="0"/>
</linearGradient>
<linearGradient id="paint70_linear_414_295" x1="49.3674" y1="957.271" x2="123.175" y2="565.968" gradientUnits="userSpaceOnUse">
<stop stop-color="white"/>
<stop offset="0.9946" stop-color="#EEC700" stop-opacity="0"/>
</linearGradient>
<linearGradient id="paint71_linear_414_295" x1="83.2813" y1="963.669" x2="157.089" y2="572.365" gradientUnits="userSpaceOnUse">
<stop stop-color="white"/>
<stop offset="0.9946" stop-color="#EEC700" stop-opacity="0"/>
</linearGradient>
<linearGradient id="paint72_linear_414_295" x1="117.197" y1="970.065" x2="191.004" y2="578.762" gradientUnits="userSpaceOnUse">
<stop stop-color="white"/>
<stop offset="0.9946" stop-color="#EEC700" stop-opacity="0"/>
</linearGradient>
<linearGradient id="paint73_linear_414_295" x1="151.111" y1="976.463" x2="224.919" y2="585.159" gradientUnits="userSpaceOnUse">
<stop stop-color="white"/>
<stop offset="0.9946" stop-color="#EEC700" stop-opacity="0"/>
</linearGradient>
<linearGradient id="paint74_linear_414_295" x1="185.025" y1="982.86" x2="258.833" y2="591.557" gradientUnits="userSpaceOnUse">
<stop stop-color="white"/>
<stop offset="0.9946" stop-color="#EEC700" stop-opacity="0"/>
</linearGradient>
<linearGradient id="paint75_linear_414_295" x1="218.94" y1="989.256" x2="292.747" y2="597.954" gradientUnits="userSpaceOnUse">
<stop stop-color="white"/>
<stop offset="0.9946" stop-color="#EEC700" stop-opacity="0"/>
</linearGradient>
<linearGradient id="paint76_linear_414_295" x1="252.854" y1="995.654" x2="326.661" y2="604.351" gradientUnits="userSpaceOnUse">
<stop stop-color="white"/>
<stop offset="0.9946" stop-color="#EEC700" stop-opacity="0"/>
</linearGradient>
<linearGradient id="paint77_linear_414_295" x1="286.768" y1="1002.05" x2="360.576" y2="610.748" gradientUnits="userSpaceOnUse">
<stop stop-color="white"/>
<stop offset="0.9946" stop-color="#EEC700" stop-opacity="0"/>
</linearGradient>
<linearGradient id="paint78_linear_414_295" x1="320.683" y1="1008.45" x2="394.49" y2="617.145" gradientUnits="userSpaceOnUse">
<stop stop-color="white"/>
<stop offset="0.9946" stop-color="#EEC700" stop-opacity="0"/>
</linearGradient>
<linearGradient id="paint79_linear_414_295" x1="354.597" y1="1014.84" x2="428.405" y2="623.542" gradientUnits="userSpaceOnUse">
<stop stop-color="white"/>
<stop offset="0.9946" stop-color="#EEC700" stop-opacity="0"/>
</linearGradient>
<linearGradient id="paint80_linear_414_295" x1="-79.5323" y1="932.952" x2="-5.72669" y2="541.658" gradientUnits="userSpaceOnUse">
<stop stop-color="white"/>
<stop offset="0.9946" stop-color="#EEC700" stop-opacity="0"/>
</linearGradient>
<linearGradient id="paint81_linear_414_295" x1="-45.6181" y1="939.349" x2="28.1875" y2="548.055" gradientUnits="userSpaceOnUse">
<stop stop-color="white"/>
<stop offset="0.9946" stop-color="#EEC700" stop-opacity="0"/>
</linearGradient>
<linearGradient id="paint82_linear_414_295" x1="-11.7035" y1="945.745" x2="62.102" y2="554.452" gradientUnits="userSpaceOnUse">
<stop stop-color="white"/>
<stop offset="0.9946" stop-color="#EEC700" stop-opacity="0"/>
</linearGradient>
<linearGradient id="paint83_linear_414_295" x1="22.2107" y1="952.143" x2="96.0166" y2="560.848" gradientUnits="userSpaceOnUse">
<stop stop-color="white"/>
<stop offset="0.9946" stop-color="#EEC700" stop-opacity="0"/>
</linearGradient>
<linearGradient id="paint84_linear_414_295" x1="56.1253" y1="958.54" x2="129.931" y2="567.246" gradientUnits="userSpaceOnUse">
<stop stop-color="white"/>
<stop offset="0.9946" stop-color="#EEC700" stop-opacity="0"/>
</linearGradient>
<linearGradient id="paint85_linear_414_295" x1="90.0398" y1="964.937" x2="163.845" y2="573.642" gradientUnits="userSpaceOnUse">
<stop stop-color="white"/>
<stop offset="0.9946" stop-color="#EEC700" stop-opacity="0"/>
</linearGradient>
<linearGradient id="paint86_linear_414_295" x1="123.955" y1="971.333" x2="197.761" y2="580.039" gradientUnits="userSpaceOnUse">
<stop stop-color="white"/>
<stop offset="0.9946" stop-color="#EEC700" stop-opacity="0"/>
</linearGradient>
<linearGradient id="paint87_linear_414_295" x1="157.869" y1="977.731" x2="231.675" y2="586.436" gradientUnits="userSpaceOnUse">
<stop stop-color="white"/>
<stop offset="0.9946" stop-color="#EEC700" stop-opacity="0"/>
</linearGradient>
<linearGradient id="paint88_linear_414_295" x1="191.784" y1="984.127" x2="265.589" y2="592.834" gradientUnits="userSpaceOnUse">
<stop stop-color="white"/>
<stop offset="0.9946" stop-color="#EEC700" stop-opacity="0"/>
</linearGradient>
<linearGradient id="paint89_linear_414_295" x1="225.698" y1="990.524" x2="299.503" y2="599.23" gradientUnits="userSpaceOnUse">
<stop stop-color="white"/>
<stop offset="0.9946" stop-color="#EEC700" stop-opacity="0"/>
</linearGradient>
<linearGradient id="paint90_linear_414_295" x1="259.612" y1="996.922" x2="333.418" y2="605.627" gradientUnits="userSpaceOnUse">
<stop stop-color="white"/>
<stop offset="0.9946" stop-color="#EEC700" stop-opacity="0"/>
</linearGradient>
<linearGradient id="paint91_linear_414_295" x1="293.527" y1="1003.32" x2="367.332" y2="612.024" gradientUnits="userSpaceOnUse">
<stop stop-color="white"/>
<stop offset="0.9946" stop-color="#EEC700" stop-opacity="0"/>
</linearGradient>
<linearGradient id="paint92_linear_414_295" x1="327.441" y1="1009.72" x2="401.247" y2="618.42" gradientUnits="userSpaceOnUse">
<stop stop-color="white"/>
<stop offset="0.9946" stop-color="#EEC700" stop-opacity="0"/>
</linearGradient>
<linearGradient id="paint93_linear_414_295" x1="361.356" y1="1016.11" x2="435.161" y2="624.818" gradientUnits="userSpaceOnUse">
<stop stop-color="white"/>
<stop offset="0.9946" stop-color="#EEC700" stop-opacity="0"/>
</linearGradient>
<linearGradient id="paint94_linear_414_295" x1="-72.7769" y1="934.225" x2="1.0287" y2="542.932" gradientUnits="userSpaceOnUse">
<stop stop-color="white"/>
<stop offset="0.9946" stop-color="#EEC700" stop-opacity="0"/>
</linearGradient>
<linearGradient id="paint95_linear_414_295" x1="-38.8624" y1="940.623" x2="34.9431" y2="549.33" gradientUnits="userSpaceOnUse">
<stop stop-color="white"/>
<stop offset="0.9946" stop-color="#EEC700" stop-opacity="0"/>
</linearGradient>
<linearGradient id="paint96_linear_414_295" x1="-4.94776" y1="947.019" x2="68.8576" y2="555.726" gradientUnits="userSpaceOnUse">
<stop stop-color="white"/>
<stop offset="0.9946" stop-color="#EEC700" stop-opacity="0"/>
</linearGradient>
<linearGradient id="paint97_linear_414_295" x1="28.9663" y1="953.417" x2="102.772" y2="562.123" gradientUnits="userSpaceOnUse">
<stop stop-color="white"/>
<stop offset="0.9946" stop-color="#EEC700" stop-opacity="0"/>
</linearGradient>
<linearGradient id="paint98_linear_414_295" x1="62.881" y1="959.813" x2="136.686" y2="568.52" gradientUnits="userSpaceOnUse">
<stop stop-color="white"/>
<stop offset="0.9946" stop-color="#EEC700" stop-opacity="0"/>
</linearGradient>
<linearGradient id="paint99_linear_414_295" x1="96.7955" y1="966.21" x2="170.601" y2="574.916" gradientUnits="userSpaceOnUse">
<stop stop-color="white"/>
<stop offset="0.9946" stop-color="#EEC700" stop-opacity="0"/>
</linearGradient>
<linearGradient id="paint100_linear_414_295" x1="130.711" y1="972.607" x2="204.516" y2="581.314" gradientUnits="userSpaceOnUse">
<stop stop-color="white"/>
<stop offset="0.9946" stop-color="#EEC700" stop-opacity="0"/>
</linearGradient>
<linearGradient id="paint101_linear_414_295" x1="164.625" y1="979.005" x2="238.43" y2="587.711" gradientUnits="userSpaceOnUse">
<stop stop-color="white"/>
<stop offset="0.9946" stop-color="#EEC700" stop-opacity="0"/>
</linearGradient>
<linearGradient id="paint102_linear_414_295" x1="198.54" y1="985.4" x2="272.345" y2="594.107" gradientUnits="userSpaceOnUse">
<stop stop-color="white"/>
<stop offset="0.9946" stop-color="#EEC700" stop-opacity="0"/>
</linearGradient>
<linearGradient id="paint103_linear_414_295" x1="232.454" y1="991.797" x2="306.259" y2="600.504" gradientUnits="userSpaceOnUse">
<stop stop-color="white"/>
<stop offset="0.9946" stop-color="#EEC700" stop-opacity="0"/>
</linearGradient>
<linearGradient id="paint104_linear_414_295" x1="266.367" y1="998.195" x2="340.173" y2="606.901" gradientUnits="userSpaceOnUse">
<stop stop-color="white"/>
<stop offset="0.9946" stop-color="#EEC700" stop-opacity="0"/>
</linearGradient>
<linearGradient id="paint105_linear_414_295" x1="300.283" y1="1004.59" x2="374.088" y2="613.299" gradientUnits="userSpaceOnUse">
<stop stop-color="white"/>
<stop offset="0.9946" stop-color="#EEC700" stop-opacity="0"/>
</linearGradient>
<linearGradient id="paint106_linear_414_295" x1="334.197" y1="1010.99" x2="408.002" y2="619.695" gradientUnits="userSpaceOnUse">
<stop stop-color="white"/>
<stop offset="0.9946" stop-color="#EEC700" stop-opacity="0"/>
</linearGradient>
<linearGradient id="paint107_linear_414_295" x1="368.111" y1="1017.39" x2="441.917" y2="626.092" gradientUnits="userSpaceOnUse">
<stop stop-color="white"/>
<stop offset="0.9946" stop-color="#EEC700" stop-opacity="0"/>
</linearGradient>
<linearGradient id="paint108_linear_414_295" x1="-66.0216" y1="935.498" x2="7.78268" y2="544.209" gradientUnits="userSpaceOnUse">
<stop stop-color="white"/>
<stop offset="0.9946" stop-color="#EEC700" stop-opacity="0"/>
</linearGradient>
<linearGradient id="paint109_linear_414_295" x1="-32.1067" y1="941.895" x2="41.6975" y2="550.605" gradientUnits="userSpaceOnUse">
<stop stop-color="white"/>
<stop offset="0.9946" stop-color="#EEC700" stop-opacity="0"/>
</linearGradient>
<linearGradient id="paint110_linear_414_295" x1="1.80764" y1="948.292" x2="75.6117" y2="557.002" gradientUnits="userSpaceOnUse">
<stop stop-color="white"/>
<stop offset="0.9946" stop-color="#EEC700" stop-opacity="0"/>
</linearGradient>
<linearGradient id="paint111_linear_414_295" x1="35.7217" y1="954.689" x2="109.526" y2="563.398" gradientUnits="userSpaceOnUse">
<stop stop-color="white"/>
<stop offset="0.9946" stop-color="#EEC700" stop-opacity="0"/>
</linearGradient>
<linearGradient id="paint112_linear_414_295" x1="69.6361" y1="961.086" x2="143.44" y2="569.796" gradientUnits="userSpaceOnUse">
<stop stop-color="white"/>
<stop offset="0.9946" stop-color="#EEC700" stop-opacity="0"/>
</linearGradient>
<linearGradient id="paint113_linear_414_295" x1="103.551" y1="967.483" x2="177.355" y2="576.192" gradientUnits="userSpaceOnUse">
<stop stop-color="white"/>
<stop offset="0.9946" stop-color="#EEC700" stop-opacity="0"/>
</linearGradient>
<linearGradient id="paint114_linear_414_295" x1="137.466" y1="973.879" x2="211.27" y2="582.59" gradientUnits="userSpaceOnUse">
<stop stop-color="white"/>
<stop offset="0.9946" stop-color="#EEC700" stop-opacity="0"/>
</linearGradient>
<linearGradient id="paint115_linear_414_295" x1="171.38" y1="980.277" x2="245.185" y2="588.986" gradientUnits="userSpaceOnUse">
<stop stop-color="white"/>
<stop offset="0.9946" stop-color="#EEC700" stop-opacity="0"/>
</linearGradient>
<linearGradient id="paint116_linear_414_295" x1="205.295" y1="986.673" x2="279.099" y2="595.383" gradientUnits="userSpaceOnUse">
<stop stop-color="white"/>
<stop offset="0.9946" stop-color="#EEC700" stop-opacity="0"/>
</linearGradient>
<linearGradient id="paint117_linear_414_295" x1="239.209" y1="993.07" x2="313.013" y2="601.78" gradientUnits="userSpaceOnUse">
<stop stop-color="white"/>
<stop offset="0.9946" stop-color="#EEC700" stop-opacity="0"/>
</linearGradient>
<linearGradient id="paint118_linear_414_295" x1="273.123" y1="999.468" x2="346.927" y2="608.177" gradientUnits="userSpaceOnUse">
<stop stop-color="white"/>
<stop offset="0.9946" stop-color="#EEC700" stop-opacity="0"/>
</linearGradient>
<linearGradient id="paint119_linear_414_295" x1="307.038" y1="1005.86" x2="380.842" y2="614.573" gradientUnits="userSpaceOnUse">
<stop stop-color="white"/>
<stop offset="0.9946" stop-color="#EEC700" stop-opacity="0"/>
</linearGradient>
<linearGradient id="paint120_linear_414_295" x1="340.952" y1="1012.26" x2="414.757" y2="620.97" gradientUnits="userSpaceOnUse">
<stop stop-color="white"/>
<stop offset="0.9946" stop-color="#EEC700" stop-opacity="0"/>
</linearGradient>
<linearGradient id="paint121_linear_414_295" x1="374.867" y1="1018.66" x2="448.671" y2="627.367" gradientUnits="userSpaceOnUse">
<stop stop-color="white"/>
<stop offset="0.9946" stop-color="#EEC700" stop-opacity="0"/>
</linearGradient>
<linearGradient id="paint122_linear_414_295" x1="-59.2662" y1="936.775" x2="14.5394" y2="545.481" gradientUnits="userSpaceOnUse">
<stop stop-color="white"/>
<stop offset="0.9946" stop-color="#EEC700" stop-opacity="0"/>
</linearGradient>
<linearGradient id="paint123_linear_414_295" x1="-25.3517" y1="943.171" x2="48.4541" y2="551.877" gradientUnits="userSpaceOnUse">
<stop stop-color="white"/>
<stop offset="0.9946" stop-color="#EEC700" stop-opacity="0"/>
</linearGradient>
<linearGradient id="paint124_linear_414_295" x1="8.56269" y1="949.568" x2="82.3682" y2="558.274" gradientUnits="userSpaceOnUse">
<stop stop-color="white"/>
<stop offset="0.9946" stop-color="#EEC700" stop-opacity="0"/>
</linearGradient>
<linearGradient id="paint125_linear_414_295" x1="42.4771" y1="955.966" x2="116.283" y2="564.671" gradientUnits="userSpaceOnUse">
<stop stop-color="white"/>
<stop offset="0.9946" stop-color="#EEC700" stop-opacity="0"/>
</linearGradient>
<linearGradient id="paint126_linear_414_295" x1="76.3918" y1="962.362" x2="150.197" y2="571.068" gradientUnits="userSpaceOnUse">
<stop stop-color="white"/>
<stop offset="0.9946" stop-color="#EEC700" stop-opacity="0"/>
</linearGradient>
<linearGradient id="paint127_linear_414_295" x1="110.306" y1="968.759" x2="184.112" y2="577.464" gradientUnits="userSpaceOnUse">
<stop stop-color="white"/>
<stop offset="0.9946" stop-color="#EEC700" stop-opacity="0"/>
</linearGradient>
<linearGradient id="paint128_linear_414_295" x1="144.221" y1="975.156" x2="218.027" y2="583.862" gradientUnits="userSpaceOnUse">
<stop stop-color="white"/>
<stop offset="0.9946" stop-color="#EEC700" stop-opacity="0"/>
</linearGradient>
<linearGradient id="paint129_linear_414_295" x1="178.135" y1="981.554" x2="251.941" y2="590.259" gradientUnits="userSpaceOnUse">
<stop stop-color="white"/>
<stop offset="0.9946" stop-color="#EEC700" stop-opacity="0"/>
</linearGradient>
<linearGradient id="paint130_linear_414_295" x1="212.05" y1="987.949" x2="285.856" y2="596.656" gradientUnits="userSpaceOnUse">
<stop stop-color="white"/>
<stop offset="0.9946" stop-color="#EEC700" stop-opacity="0"/>
</linearGradient>
<linearGradient id="paint131_linear_414_295" x1="245.964" y1="994.347" x2="319.77" y2="603.053" gradientUnits="userSpaceOnUse">
<stop stop-color="white"/>
<stop offset="0.9946" stop-color="#EEC700" stop-opacity="0"/>
</linearGradient>
<linearGradient id="paint132_linear_414_295" x1="279.878" y1="1000.74" x2="353.684" y2="609.449" gradientUnits="userSpaceOnUse">
<stop stop-color="white"/>
<stop offset="0.9946" stop-color="#EEC700" stop-opacity="0"/>
</linearGradient>
<linearGradient id="paint133_linear_414_295" x1="313.793" y1="1007.14" x2="387.599" y2="615.846" gradientUnits="userSpaceOnUse">
<stop stop-color="white"/>
<stop offset="0.9946" stop-color="#EEC700" stop-opacity="0"/>
</linearGradient>
<linearGradient id="paint134_linear_414_295" x1="347.707" y1="1013.54" x2="421.513" y2="622.243" gradientUnits="userSpaceOnUse">
<stop stop-color="white"/>
<stop offset="0.9946" stop-color="#EEC700" stop-opacity="0"/>
</linearGradient>
<linearGradient id="paint135_linear_414_295" x1="381.622" y1="1019.93" x2="455.428" y2="628.64" gradientUnits="userSpaceOnUse">
<stop stop-color="white"/>
<stop offset="0.9946" stop-color="#EEC700" stop-opacity="0"/>
</linearGradient>
<linearGradient id="paint136_linear_414_295" x1="-52.5105" y1="938.048" x2="21.2951" y2="546.755" gradientUnits="userSpaceOnUse">
<stop stop-color="white"/>
<stop offset="0.9946" stop-color="#EEC700" stop-opacity="0"/>
</linearGradient>
<linearGradient id="paint137_linear_414_295" x1="-18.596" y1="944.445" x2="55.2095" y2="553.152" gradientUnits="userSpaceOnUse">
<stop stop-color="white"/>
<stop offset="0.9946" stop-color="#EEC700" stop-opacity="0"/>
</linearGradient>
<linearGradient id="paint138_linear_414_295" x1="15.3184" y1="950.842" x2="89.1237" y2="559.549" gradientUnits="userSpaceOnUse">
<stop stop-color="white"/>
<stop offset="0.9946" stop-color="#EEC700" stop-opacity="0"/>
</linearGradient>
<linearGradient id="paint139_linear_414_295" x1="49.2325" y1="957.24" x2="123.038" y2="565.946" gradientUnits="userSpaceOnUse">
<stop stop-color="white"/>
<stop offset="0.9946" stop-color="#EEC700" stop-opacity="0"/>
</linearGradient>
<linearGradient id="paint140_linear_414_295" x1="83.1475" y1="963.636" x2="156.953" y2="572.342" gradientUnits="userSpaceOnUse">
<stop stop-color="white"/>
<stop offset="0.9946" stop-color="#EEC700" stop-opacity="0"/>
</linearGradient>
<linearGradient id="paint141_linear_414_295" x1="117.062" y1="970.033" x2="190.867" y2="578.739" gradientUnits="userSpaceOnUse">
<stop stop-color="white"/>
<stop offset="0.9946" stop-color="#EEC700" stop-opacity="0"/>
</linearGradient>
<linearGradient id="paint142_linear_414_295" x1="150.977" y1="976.43" x2="224.782" y2="585.137" gradientUnits="userSpaceOnUse">
<stop stop-color="white"/>
<stop offset="0.9946" stop-color="#EEC700" stop-opacity="0"/>
</linearGradient>
<linearGradient id="paint143_linear_414_295" x1="184.891" y1="982.827" x2="258.697" y2="591.533" gradientUnits="userSpaceOnUse">
<stop stop-color="white"/>
<stop offset="0.9946" stop-color="#EEC700" stop-opacity="0"/>
</linearGradient>
<linearGradient id="paint144_linear_414_295" x1="218.806" y1="989.223" x2="292.611" y2="597.93" gradientUnits="userSpaceOnUse">
<stop stop-color="white"/>
<stop offset="0.9946" stop-color="#EEC700" stop-opacity="0"/>
</linearGradient>
<linearGradient id="paint145_linear_414_295" x1="252.72" y1="995.62" x2="326.525" y2="604.327" gradientUnits="userSpaceOnUse">
<stop stop-color="white"/>
<stop offset="0.9946" stop-color="#EEC700" stop-opacity="0"/>
</linearGradient>
<linearGradient id="paint146_linear_414_295" x1="286.634" y1="1002.02" x2="360.439" y2="610.724" gradientUnits="userSpaceOnUse">
<stop stop-color="white"/>
<stop offset="0.9946" stop-color="#EEC700" stop-opacity="0"/>
</linearGradient>
<linearGradient id="paint147_linear_414_295" x1="320.549" y1="1008.41" x2="394.355" y2="617.121" gradientUnits="userSpaceOnUse">
<stop stop-color="white"/>
<stop offset="0.9946" stop-color="#EEC700" stop-opacity="0"/>
</linearGradient>
<linearGradient id="paint148_linear_414_295" x1="354.463" y1="1014.81" x2="428.269" y2="623.517" gradientUnits="userSpaceOnUse">
<stop stop-color="white"/>
<stop offset="0.9946" stop-color="#EEC700" stop-opacity="0"/>
</linearGradient>
<linearGradient id="paint149_linear_414_295" x1="388.378" y1="1021.21" x2="462.183" y2="629.915" gradientUnits="userSpaceOnUse">
<stop stop-color="white"/>
<stop offset="0.9946" stop-color="#EEC700" stop-opacity="0"/>
</linearGradient>
<linearGradient id="paint150_linear_414_295" x1="493.237" y1="556.885" x2="1283.24" y2="556.885" gradientUnits="userSpaceOnUse">
<stop stop-color="white"/>
<stop offset="0.9946" stop-color="#EEC700" stop-opacity="0"/>
</linearGradient>
<linearGradient id="paint151_linear_414_295" x1="493.237" y1="556.885" x2="1283.24" y2="556.885" gradientUnits="userSpaceOnUse">
<stop stop-color="white"/>
<stop offset="0.9946" stop-color="#EEC700" stop-opacity="0"/>
</linearGradient>
<linearGradient id="paint152_linear_414_295" x1="493.237" y1="556.885" x2="1283.24" y2="556.885" gradientUnits="userSpaceOnUse">
<stop stop-color="white"/>
<stop offset="0.9946" stop-color="#EEC700" stop-opacity="0"/>
</linearGradient>
<linearGradient id="paint153_linear_414_295" x1="493.237" y1="556.885" x2="1283.24" y2="556.885" gradientUnits="userSpaceOnUse">
<stop stop-color="white"/>
<stop offset="0.9946" stop-color="#EEC700" stop-opacity="0"/>
</linearGradient>
<linearGradient id="paint154_linear_414_295" x1="1770.18" y1="253.505" x2="1353.23" y2="253.505" gradientUnits="userSpaceOnUse">
<stop stop-color="white"/>
<stop offset="0.9946" stop-color="#EEC700" stop-opacity="0"/>
</linearGradient>
<linearGradient id="paint155_linear_414_295" x1="1770.18" y1="253.505" x2="1353.23" y2="253.505" gradientUnits="userSpaceOnUse">
<stop stop-color="white"/>
<stop offset="0.9946" stop-color="#EEC700" stop-opacity="0"/>
</linearGradient>
<linearGradient id="paint156_linear_414_295" x1="1770.18" y1="253.505" x2="1353.23" y2="253.505" gradientUnits="userSpaceOnUse">
<stop stop-color="white"/>
<stop offset="0.9946" stop-color="#EEC700" stop-opacity="0"/>
</linearGradient>
<linearGradient id="paint157_linear_414_295" x1="1770.18" y1="253.505" x2="1353.23" y2="253.505" gradientUnits="userSpaceOnUse">
<stop stop-color="white"/>
<stop offset="0.9946" stop-color="#EEC700" stop-opacity="0"/>
</linearGradient>
</defs>
</svg>
