<svg width="1881" height="793" viewBox="0 0 1881 793" fill="none" xmlns="http://www.w3.org/2000/svg">
<mask id="mask0_414_295" style="mask-type:luminance" maskUnits="userSpaceOnUse" x="0" y="0" width="1881" height="793">
<path d="M1827.16 792.486H53.6264C24.385 792.486 0.679428 776.881 0.679428 757.633V35.0716C0.676278 15.8228 24.3819 0.218018 53.6264 0.218018H1827.16C1856.4 0.218018 1880.11 15.8228 1880.11 35.0716V757.63C1880.11 776.881 1856.4 792.486 1827.16 792.486Z" fill="white"/>
</mask>
<g mask="url(#mask0_414_295)">
<path d="M1827.16 792.486H53.6264C24.385 792.486 0.679428 776.881 0.679428 757.633V35.0716C0.676278 15.8228 24.3819 0.218018 53.6264 0.218018H1827.16C1856.4 0.218018 1880.11 15.8228 1880.11 35.0716V757.63C1880.11 776.881 1856.4 792.486 1827.16 792.486Z" fill="#070705"/>
<mask id="mask1_414_295" style="mask-type:luminance" maskUnits="userSpaceOnUse" x="0" y="0" width="1881" height="793">
<path d="M1824.01 792.486H56.777C25.7934 792.486 0.679428 775.952 0.679428 755.559V37.1456C0.676278 16.7519 25.7934 0.218018 56.777 0.218018H1824.01C1854.99 0.218018 1880.11 16.7519 1880.11 37.1456V755.556C1880.11 775.952 1854.99 792.486 1824.01 792.486Z" fill="white"/>
</mask>
<g mask="url(#mask1_414_295)">
<path d="M1579.2 575.158L1575.8 480.691C1575.29 466.627 1583.88 452.997 1599.42 443.262L1905.6 246.269V234.669L1590.67 437.289C1572.63 448.596 1562.61 464.487 1563.21 480.886L1566.6 575.353C1567.09 588.954 1559 602.271 1544.38 611.888L1247.98 807.004H1265.8L1553.29 617.758C1570.33 606.544 1579.78 591.016 1579.2 575.158Z" fill="url(#paint0_linear_414_295)"/>
<path d="M1905.6 406.208L1798.41 476.773C1781.68 487.784 1772.47 502.42 1772.47 517.992V594.185C1772.47 607.539 1764.57 620.091 1750.22 629.536L1480.63 807.004H1498.45L1759.13 635.403C1775.86 624.392 1785.07 609.756 1785.07 594.187V517.992C1785.07 504.637 1792.97 492.084 1807.32 482.639L1905.6 417.938V406.208Z" fill="url(#paint1_linear_414_295)"/>
</g>
<mask id="mask2_414_295" style="mask-type:luminance" maskUnits="userSpaceOnUse" x="0" y="0" width="1881" height="793">
<path d="M1824.01 792.486H56.777C25.7934 792.486 0.679428 775.952 0.679428 755.559V37.1456C0.676278 16.7519 25.7934 0.218018 56.777 0.218018H1824.01C1854.99 0.218018 1880.11 16.7519 1880.11 37.1456V755.556C1880.11 775.952 1854.99 792.486 1824.01 792.486Z" fill="white"/>
</mask>
<g mask="url(#mask2_414_295)">
<path d="M1905.6 273.347L1635.32 447.24C1618.52 457.767 1609.26 472.474 1609.81 487.734L1613.21 582.201C1613.75 597.001 1605.05 611.301 1589.14 621.771L1307.75 807.004H1540.4L1794.99 639.414C1810.41 629.26 1819.08 615.489 1819.08 601.128V524.936C1819.08 510.575 1827.74 496.804 1843.17 486.65L1905.6 445.551V273.347Z" fill="url(#paint2_linear_414_295)"/>
</g>
<mask id="mask3_414_295" style="mask-type:luminance" maskUnits="userSpaceOnUse" x="0" y="0" width="1881" height="793">
<path d="M1824.01 792.486H56.777C25.7934 792.486 0.679428 775.952 0.679428 755.559V37.1456C0.676278 16.7519 25.7934 0.218018 56.777 0.218018H1824.01C1854.99 0.218018 1880.11 16.7519 1880.11 37.1456V755.556C1880.11 775.952 1854.99 792.486 1824.01 792.486Z" fill="white"/>
</mask>
<g mask="url(#mask3_414_295)">
<path d="M890.847 869.126C887.365 870.45 882.91 869.666 880.9 867.372L658.208 613.467C656.198 611.175 657.392 608.242 660.873 606.919C664.355 605.596 668.81 606.382 670.82 608.674L893.512 862.579C895.522 864.871 894.328 867.803 890.847 869.126Z" fill="url(#paint3_linear_414_295)"/>
</g>
<mask id="mask4_414_295" style="mask-type:luminance" maskUnits="userSpaceOnUse" x="0" y="0" width="1881" height="793">
<path d="M1824.01 792.486H56.777C25.7934 792.486 0.679428 775.952 0.679428 755.559V37.1456C0.676278 16.7519 25.7934 0.218018 56.777 0.218018H1824.01C1854.99 0.218018 1880.11 16.7519 1880.11 37.1456V755.556C1880.11 775.952 1854.99 792.486 1824.01 792.486Z" fill="white"/>
</mask>
<g mask="url(#mask4_414_295)">
<path d="M1855.63 421.435C1852.15 422.758 1847.69 421.972 1845.68 419.68L1622.99 165.775C1620.98 163.483 1622.18 160.551 1625.66 159.227C1629.14 157.904 1633.59 158.688 1635.6 160.982L1858.3 414.887C1860.31 417.179 1859.11 420.112 1855.63 421.435Z" fill="url(#paint4_linear_414_295)"/>
</g>
<mask id="mask5_414_295" style="mask-type:luminance" maskUnits="userSpaceOnUse" x="0" y="0" width="1881" height="793">
<path d="M1824.01 792.486H56.777C25.7934 792.486 0.679428 775.952 0.679428 755.559V37.1456C0.676278 16.7519 25.7934 0.218018 56.777 0.218018H1824.01C1854.99 0.218018 1880.11 16.7519 1880.11 37.1456V755.556C1880.11 775.952 1854.99 792.486 1824.01 792.486Z" fill="white"/>
</mask>
<g mask="url(#mask5_414_295)">
<path d="M819.878 825.84C818.375 826.41 816.456 826.072 815.59 825.083L719.567 715.601C718.701 714.611 719.214 713.348 720.717 712.778C722.22 712.208 724.139 712.546 725.005 713.535L821.028 823.017C821.894 824.005 821.378 825.268 819.878 825.84Z" fill="url(#paint5_linear_414_295)"/>
</g>
<mask id="mask6_414_295" style="mask-type:luminance" maskUnits="userSpaceOnUse" x="0" y="0" width="1881" height="793">
<path d="M1824.01 792.486H56.777C25.7934 792.486 0.679428 775.952 0.679428 755.559V37.1456C0.676278 16.7519 25.7934 0.218018 56.777 0.218018H1824.01C1854.99 0.218018 1880.11 16.7519 1880.11 37.1456V755.556C1880.11 775.952 1854.99 792.486 1824.01 792.486Z" fill="white"/>
</mask>
<g mask="url(#mask6_414_295)">
<path d="M1898.49 503.221C1896.99 503.791 1895.07 503.453 1894.2 502.464L1798.18 392.982C1797.32 391.992 1797.83 390.729 1799.33 390.159C1800.83 389.589 1802.75 389.927 1803.62 390.916L1899.64 500.398C1900.51 501.388 1899.99 502.651 1898.49 503.221Z" fill="url(#paint6_linear_414_295)"/>
</g>
<mask id="mask7_414_295" style="mask-type:luminance" maskUnits="userSpaceOnUse" x="0" y="0" width="1881" height="793">
<path d="M1824.01 792.486H56.777C25.7934 792.486 0.679428 775.952 0.679428 755.559V37.1456C0.676278 16.7519 25.7934 0.218018 56.777 0.218018H1824.01C1854.99 0.218018 1880.11 16.7519 1880.11 37.1456V755.556C1880.11 775.952 1854.99 792.486 1824.01 792.486Z" fill="white"/>
</mask>
<g mask="url(#mask7_414_295)">
<path d="M1717.33 225.313C1715.83 225.884 1713.91 225.546 1713.04 224.556L1617.02 115.074C1616.16 114.085 1616.67 112.822 1618.17 112.251C1619.67 111.681 1621.59 112.019 1622.46 113.008L1718.48 222.491C1719.35 223.48 1718.84 224.743 1717.33 225.313Z" fill="url(#paint7_linear_414_295)"/>
</g>
<mask id="mask8_414_295" style="mask-type:luminance" maskUnits="userSpaceOnUse" x="0" y="0" width="1881" height="793">
<path d="M1824.01 792.486H56.777C25.7934 792.486 0.679428 775.952 0.679428 755.559V37.1456C0.676278 16.7519 25.7934 0.218018 56.777 0.218018H1824.01C1854.99 0.218018 1880.11 16.7519 1880.11 37.1456V755.556C1880.11 775.952 1854.99 792.486 1824.01 792.486Z" fill="white"/>
</mask>
<g mask="url(#mask8_414_295)">
<path d="M202.823 102.365L192.347 98.3867C168.55 89.3544 138.559 91.7125 118.666 104.181L-25.7547 194.703V416.663L31.3134 379.096C42.933 371.447 49.4612 361.073 49.4612 350.255V292.857C49.4612 282.039 55.9894 271.665 67.609 264.014L215.684 166.54C244.503 147.572 238.129 115.767 202.823 102.365Z" fill="url(#paint8_linear_414_295)"/>
</g>
<mask id="mask9_414_295" style="mask-type:luminance" maskUnits="userSpaceOnUse" x="0" y="0" width="1881" height="793">
<path d="M1824.01 792.486H56.777C25.7934 792.486 0.679428 775.952 0.679428 755.559V37.1456C0.676278 16.7519 25.7934 0.218018 56.777 0.218018H1824.01C1854.99 0.218018 1880.11 16.7519 1880.11 37.1456V755.556C1880.11 775.952 1854.99 792.486 1824.01 792.486Z" fill="white"/>
</mask>
<g mask="url(#mask9_414_295)">
<path d="M259.085 131.956C256.35 118.31 244.39 106.535 226.27 99.6581L215.794 95.6822C190.359 86.0256 157.737 88.5891 136.47 101.921L-32.056 207.55V216.18L143.017 106.446C153.874 99.6415 168.175 96.1074 182.58 96.1074C192.375 96.1074 202.221 97.7417 211.053 101.095L221.529 105.071C237.068 110.97 247.326 121.066 249.67 132.772C252.018 144.479 246.088 155.98 233.403 164.33L85.3284 261.803C72.7289 270.097 65.788 281.125 65.788 292.855V350.253C65.788 360.314 59.8363 369.772 49.0296 376.885L-32.056 430.268V439.108L55.7499 381.307C68.3495 373.015 75.2904 361.988 75.2904 350.255V292.857C75.2904 282.796 81.242 273.339 92.0488 266.225L240.121 168.751C254.91 159.016 261.819 145.605 259.085 131.956Z" fill="url(#paint9_linear_414_295)"/>
</g>
<mask id="mask10_414_295" style="mask-type:luminance" maskUnits="userSpaceOnUse" x="0" y="0" width="1881" height="793">
<path d="M1824.01 792.486H56.777C25.7934 792.486 0.679428 775.952 0.679428 755.558V37.1456C0.676278 16.7519 25.7934 0.218018 56.777 0.218018H1824.01C1854.99 0.218018 1880.11 16.7519 1880.11 37.1456V755.556C1880.11 775.952 1854.99 792.486 1824.01 792.486Z" fill="white"/>
</mask>
<g mask="url(#mask10_414_295)">
<path d="M22.3497 633.025C22.3497 635.072 19.8292 636.731 16.7195 636.731C13.6098 636.731 11.0892 635.072 11.0892 633.025C11.0892 630.978 13.6098 629.318 16.7195 629.318C19.8292 629.318 22.3497 630.978 22.3497 633.025Z" fill="url(#paint10_linear_414_295)"/>
<path d="M59.0707 633.025C59.0707 635.072 56.5502 636.731 53.4405 636.731C50.3308 636.731 47.8102 635.072 47.8102 633.025C47.8102 630.978 50.3308 629.318 53.4405 629.318C56.5502 629.318 59.0707 630.978 59.0707 633.025Z" fill="url(#paint11_linear_414_295)"/>
<path d="M95.7918 633.025C95.7918 635.072 93.2712 636.731 90.1615 636.731C87.0518 636.731 84.5313 635.072 84.5313 633.025C84.5313 630.978 87.0518 629.318 90.1615 629.318C93.2712 629.318 95.7918 630.978 95.7918 633.025Z" fill="url(#paint12_linear_414_295)"/>
<path d="M132.516 633.025C132.516 635.072 129.995 636.731 126.886 636.731C123.776 636.731 121.255 635.072 121.255 633.025C121.255 630.978 123.776 629.318 126.886 629.318C129.995 629.318 132.516 630.978 132.516 633.025Z" fill="url(#paint13_linear_414_295)"/>
<path d="M169.237 633.025C169.237 635.072 166.716 636.731 163.607 636.731C160.497 636.731 157.976 635.072 157.976 633.025C157.976 630.978 160.497 629.318 163.607 629.318C166.716 629.318 169.237 630.978 169.237 633.025Z" fill="url(#paint14_linear_414_295)"/>
<path d="M205.958 633.025C205.958 635.072 203.437 636.731 200.328 636.731C197.218 636.731 194.697 635.072 194.697 633.025C194.697 630.978 197.218 629.318 200.328 629.318C203.437 629.318 205.958 630.978 205.958 633.025Z" fill="url(#paint15_linear_414_295)"/>
<path d="M242.682 633.025C242.682 635.072 240.162 636.731 237.052 636.731C233.942 636.731 231.422 635.072 231.422 633.025C231.422 630.978 233.942 629.318 237.052 629.318C240.162 629.318 242.682 630.978 242.682 633.025Z" fill="url(#paint16_linear_414_295)"/>
<path d="M279.403 633.025C279.403 635.072 276.883 636.731 273.773 636.731C270.663 636.731 268.143 635.072 268.143 633.025C268.143 630.978 270.663 629.318 273.773 629.318C276.883 629.318 279.403 630.978 279.403 633.025Z" fill="url(#paint17_linear_414_295)"/>
<path d="M316.124 633.025C316.124 635.072 313.604 636.731 310.494 636.731C307.384 636.731 304.864 635.072 304.864 633.025C304.864 630.978 307.384 629.318 310.494 629.318C313.604 629.318 316.124 630.978 316.124 633.025Z" fill="url(#paint18_linear_414_295)"/>
<path d="M352.848 633.025C352.848 635.072 350.328 636.731 347.218 636.731C344.108 636.731 341.588 635.072 341.588 633.025C341.588 630.978 344.108 629.318 347.218 629.318C350.328 629.318 352.848 630.978 352.848 633.025Z" fill="url(#paint19_linear_414_295)"/>
<path d="M389.569 633.025C389.569 635.072 387.049 636.731 383.939 636.731C380.829 636.731 378.309 635.072 378.309 633.025C378.309 630.978 380.829 629.318 383.939 629.318C387.049 629.318 389.569 630.978 389.569 633.025Z" fill="url(#paint20_linear_414_295)"/>
<path d="M426.294 633.025C426.294 635.072 423.773 636.731 420.663 636.731C417.554 636.731 415.033 635.072 415.033 633.025C415.033 630.978 417.554 629.318 420.663 629.318C423.773 629.318 426.294 630.978 426.294 633.025Z" fill="url(#paint21_linear_414_295)"/>
<path d="M463.015 633.025C463.015 635.072 460.494 636.731 457.384 636.731C454.275 636.731 451.754 635.072 451.754 633.025C451.754 630.978 454.275 629.318 457.384 629.318C460.494 629.318 463.015 630.978 463.015 633.025Z" fill="url(#paint22_linear_414_295)"/>
<path d="M499.736 633.025C499.736 635.072 497.215 636.731 494.105 636.731C490.996 636.731 488.475 635.072 488.475 633.025C488.475 630.978 490.996 629.318 494.105 629.318C497.215 629.318 499.736 630.978 499.736 633.025Z" fill="url(#paint23_linear_414_295)"/>
<path d="M22.3497 649.785C22.3497 651.832 19.8292 653.491 16.7195 653.491C13.6098 653.491 11.0892 651.832 11.0892 649.785C11.0892 647.738 13.6098 646.078 16.7195 646.078C19.8292 646.078 22.3497 647.738 22.3497 649.785Z" fill="url(#paint24_linear_414_295)"/>
<path d="M59.0707 649.785C59.0707 651.832 56.5502 653.491 53.4405 653.491C50.3308 653.491 47.8102 651.832 47.8102 649.785C47.8102 647.738 50.3308 646.078 53.4405 646.078C56.5502 646.078 59.0707 647.738 59.0707 649.785Z" fill="url(#paint25_linear_414_295)"/>
<path d="M95.7918 649.785C95.7918 651.832 93.2712 653.491 90.1615 653.491C87.0518 653.491 84.5313 651.832 84.5313 649.785C84.5313 647.738 87.0518 646.078 90.1615 646.078C93.2712 646.078 95.7918 647.738 95.7918 649.785Z" fill="url(#paint26_linear_414_295)"/>
<path d="M132.516 649.785C132.516 651.832 129.995 653.491 126.886 653.491C123.776 653.491 121.255 651.832 121.255 649.785C121.255 647.738 123.776 646.078 126.886 646.078C129.995 646.078 132.516 647.738 132.516 649.785Z" fill="url(#paint27_linear_414_295)"/>
<path d="M169.237 649.785C169.237 651.832 166.716 653.491 163.607 653.491C160.497 653.491 157.976 651.832 157.976 649.785C157.976 647.738 160.497 646.078 163.607 646.078C166.716 646.078 169.237 647.738 169.237 649.785Z" fill="url(#paint28_linear_414_295)"/>
<path d="M205.958 649.785C205.958 651.832 203.437 653.491 200.328 653.491C197.218 653.491 194.697 651.832 194.697 649.785C194.697 647.738 197.218 646.078 200.328 646.078C203.437 646.078 205.958 647.738 205.958 649.785Z" fill="url(#paint29_linear_414_295)"/>
<path d="M242.682 649.785C242.682 651.832 240.162 653.491 237.052 653.491C233.942 653.491 231.422 651.832 231.422 649.785C231.422 647.738 233.942 646.078 237.052 646.078C240.162 646.078 242.682 647.738 242.682 649.785Z" fill="url(#paint30_linear_414_295)"/>
<path d="M279.403 649.785C279.403 651.832 276.883 653.491 273.773 653.491C270.663 653.491 268.143 651.832 268.143 649.785C268.143 647.738 270.663 646.078 273.773 646.078C276.883 646.078 279.403 647.738 279.403 649.785Z" fill="url(#paint31_linear_414_295)"/>
<path d="M316.124 649.785C316.124 651.832 313.604 653.491 310.494 653.491C307.384 653.491 304.864 651.832 304.864 649.785C304.864 647.738 307.384 646.078 310.494 646.078C313.604 646.078 316.124 647.738 316.124 649.785Z" fill="url(#paint32_linear_414_295)"/>
<path d="M352.848 649.785C352.848 651.832 350.328 653.491 347.218 653.491C344.108 653.491 341.588 651.832 341.588 649.785C341.588 647.738 344.108 646.078 347.218 646.078C350.328 646.078 352.848 647.738 352.848 649.785Z" fill="url(#paint33_linear_414_295)"/>
<path d="M389.569 649.785C389.569 651.832 387.049 653.491 383.939 653.491C380.829 653.491 378.309 651.832 378.309 649.785C378.309 647.738 380.829 646.078 383.939 646.078C387.049 646.078 389.569 647.738 389.569 649.785Z" fill="url(#paint34_linear_414_295)"/>
<path d="M426.294 649.785C426.294 651.832 423.773 653.491 420.663 653.491C417.554 653.491 415.033 651.832 415.033 649.785C415.033 647.738 417.554 646.078 420.663 646.078C423.773 646.078 426.294 647.738 426.294 649.785Z" fill="url(#paint35_linear_414_295)"/>
<path d="M463.015 649.785C463.015 651.832 460.494 653.491 457.384 653.491C454.275 653.491 451.754 651.832 451.754 649.785C451.754 647.738 454.275 646.078 457.384 646.078C460.494 646.078 463.015 647.738 463.015 649.785Z" fill="url(#paint36_linear_414_295)"/>
<path d="M499.736 649.785C499.736 651.832 497.215 653.491 494.105 653.491C490.996 653.491 488.475 651.832 488.475 649.785C488.475 647.738 490.996 646.078 494.105 646.078C497.215 646.078 499.736 647.738 499.736 649.785Z" fill="url(#paint37_linear_414_295)"/>
<path d="M22.3497 666.545C22.3497 668.592 19.8292 670.251 16.7195 670.251C13.6098 670.251 11.0892 668.592 11.0892 666.545C11.0892 664.498 13.6098 662.838 16.7195 662.838C19.8292 662.838 22.3497 664.498 22.3497 666.545Z" fill="url(#paint38_linear_414_295)"/>
<path d="M59.0707 666.545C59.0707 668.592 56.5502 670.251 53.4405 670.251C50.3308 670.251 47.8102 668.592 47.8102 666.545C47.8102 664.498 50.3308 662.838 53.4405 662.838C56.5502 662.838 59.0707 664.498 59.0707 666.545Z" fill="url(#paint39_linear_414_295)"/>
<path d="M95.7918 666.545C95.7918 668.592 93.2712 670.251 90.1615 670.251C87.0518 670.251 84.5313 668.592 84.5313 666.545C84.5313 664.498 87.0518 662.838 90.1615 662.838C93.2712 662.838 95.7918 664.498 95.7918 666.545Z" fill="url(#paint40_linear_414_295)"/>
<path d="M132.516 666.545C132.516 668.592 129.995 670.251 126.886 670.251C123.776 670.251 121.255 668.592 121.255 666.545C121.255 664.498 123.776 662.838 126.886 662.838C129.995 662.838 132.516 664.498 132.516 666.545Z" fill="url(#paint41_linear_414_295)"/>
<path d="M169.237 666.545C169.237 668.592 166.716 670.251 163.607 670.251C160.497 670.251 157.976 668.592 157.976 666.545C157.976 664.498 160.497 662.838 163.607 662.838C166.716 662.838 169.237 664.498 169.237 666.545Z" fill="url(#paint42_linear_414_295)"/>
<path d="M205.958 666.545C205.958 668.592 203.437 670.251 200.328 670.251C197.218 670.251 194.697 668.592 194.697 666.545C194.697 664.498 197.218 662.838 200.328 662.838C203.437 662.838 205.958 664.498 205.958 666.545Z" fill="url(#paint43_linear_414_295)"/>
<path d="M242.682 666.545C242.682 668.592 240.162 670.251 237.052 670.251C233.942 670.251 231.422 668.592 231.422 666.545C231.422 664.498 233.942 662.838 237.052 662.838C240.162 662.838 242.682 664.498 242.682 666.545Z" fill="url(#paint44_linear_414_295)"/>
<path d="M279.403 666.545C279.403 668.592 276.883 670.251 273.773 670.251C270.663 670.251 268.143 668.592 268.143 666.545C268.143 664.498 270.663 662.838 273.773 662.838C276.883 662.838 279.403 664.498 279.403 666.545Z" fill="url(#paint45_linear_414_295)"/>
<path d="M316.124 666.545C316.124 668.592 313.604 670.251 310.494 670.251C307.384 670.251 304.864 668.592 304.864 666.545C304.864 664.498 307.384 662.838 310.494 662.838C313.604 662.838 316.124 664.498 316.124 666.545Z" fill="url(#paint46_linear_414_295)"/>
<path d="M352.848 666.545C352.848 668.592 350.328 670.251 347.218 670.251C344.108 670.251 341.588 668.592 341.588 666.545C341.588 664.498 344.108 662.838 347.218 662.838C350.328 662.838 352.848 664.498 352.848 666.545Z" fill="url(#paint47_linear_414_295)"/>
<path d="M389.569 666.545C389.569 668.592 387.049 670.251 383.939 670.251C380.829 670.251 378.309 668.592 378.309 666.545C378.309 664.498 380.829 662.838 383.939 662.838C387.049 662.838 389.569 664.498 389.569 666.545Z" fill="url(#paint48_linear_414_295)"/>
<path d="M426.294 666.545C426.294 668.592 423.773 670.251 420.663 670.251C417.554 670.251 415.033 668.592 415.033 666.545C415.033 664.498 417.554 662.838 420.663 662.838C423.773 662.838 426.294 664.498 426.294 666.545Z" fill="url(#paint49_linear_414_295)"/>
<path d="M463.015 666.545C463.015 668.592 460.494 670.251 457.384 670.251C454.275 670.251 451.754 668.592 451.754 666.545C451.754 664.498 454.275 662.838 457.384 662.838C460.494 662.838 463.015 664.498 463.015 666.545Z" fill="url(#paint50_linear_414_295)"/>
<path d="M499.736 666.545C499.736 668.592 497.215 670.251 494.105 670.251C490.996 670.251 488.475 668.592 488.475 666.545C488.475 664.498 490.996 662.838 494.105 662.838C497.215 662.838 499.736 664.498 499.736 666.545Z" fill="url(#paint51_linear_414_295)"/>
<path d="M22.3497 683.305C22.3497 685.352 19.8292 687.011 16.7195 687.011C13.6098 687.011 11.0892 685.352 11.0892 683.305C11.0892 681.258 13.6098 679.598 16.7195 679.598C19.8292 679.598 22.3497 681.258 22.3497 683.305Z" fill="url(#paint52_linear_414_295)"/>
<path d="M59.0707 683.305C59.0707 685.352 56.5502 687.011 53.4405 687.011C50.3308 687.011 47.8102 685.352 47.8102 683.305C47.8102 681.258 50.3308 679.598 53.4405 679.598C56.5502 679.598 59.0707 681.258 59.0707 683.305Z" fill="url(#paint53_linear_414_295)"/>
<path d="M95.7918 683.305C95.7918 685.352 93.2712 687.011 90.1615 687.011C87.0518 687.011 84.5313 685.352 84.5313 683.305C84.5313 681.258 87.0518 679.598 90.1615 679.598C93.2712 679.598 95.7918 681.258 95.7918 683.305Z" fill="url(#paint54_linear_414_295)"/>
<path d="M132.516 683.305C132.516 685.352 129.995 687.011 126.886 687.011C123.776 687.011 121.255 685.352 121.255 683.305C121.255 681.258 123.776 679.598 126.886 679.598C129.995 679.598 132.516 681.258 132.516 683.305Z" fill="url(#paint55_linear_414_295)"/>
<path d="M169.237 683.305C169.237 685.352 166.716 687.011 163.607 687.011C160.497 687.011 157.976 685.352 157.976 683.305C157.976 681.258 160.497 679.598 163.607 679.598C166.716 679.598 169.237 681.258 169.237 683.305Z" fill="url(#paint56_linear_414_295)"/>
<path d="M205.958 683.305C205.958 685.352 203.437 687.011 200.328 687.011C197.218 687.011 194.697 685.352 194.697 683.305C194.697 681.258 197.218 679.598 200.328 679.598C203.437 679.598 205.958 681.258 205.958 683.305Z" fill="url(#paint57_linear_414_295)"/>
<path d="M242.682 683.305C242.682 685.352 240.162 687.011 237.052 687.011C233.942 687.011 231.422 685.352 231.422 683.305C231.422 681.258 233.942 679.598 237.052 679.598C240.162 679.598 242.682 681.258 242.682 683.305Z" fill="url(#paint58_linear_414_295)"/>
<path d="M279.403 683.305C279.403 685.352 276.883 687.011 273.773 687.011C270.663 687.011 268.143 685.352 268.143 683.305C268.143 681.258 270.663 679.598 273.773 679.598C276.883 679.598 279.403 681.258 279.403 683.305Z" fill="url(#paint59_linear_414_295)"/>
<path d="M316.124 683.305C316.124 685.352 313.604 687.011 310.494 687.011C307.384 687.011 304.864 685.352 304.864 683.305C304.864 681.258 307.384 679.598 310.494 679.598C313.604 679.598 316.124 681.258 316.124 683.305Z" fill="url(#paint60_linear_414_295)"/>
<path d="M352.848 683.305C352.848 685.352 350.328 687.011 347.218 687.011C344.108 687.011 341.588 685.352 341.588 683.305C341.588 681.258 344.108 679.598 347.218 679.598C350.328 679.598 352.848 681.258 352.848 683.305Z" fill="url(#paint61_linear_414_295)"/>
<path d="M389.569 683.305C389.569 685.352 387.049 687.011 383.939 687.011C380.829 687.011 378.309 685.352 378.309 683.305C378.309 681.258 380.829 679.598 383.939 679.598C387.049 679.598 389.569 681.258 389.569 683.305Z" fill="url(#paint62_linear_414_295)"/>
<path d="M426.294 683.305C426.294 685.352 423.773 687.011 420.663 687.011C417.554 687.011 415.033 685.352 415.033 683.305C415.033 681.258 417.554 679.598 420.663 679.598C423.773 679.598 426.294 681.258 426.294 683.305Z" fill="url(#paint63_linear_414_295)"/>
<path d="M463.015 683.305C463.015 685.352 460.494 687.011 457.384 687.011C454.275 687.011 451.754 685.352 451.754 683.305C451.754 681.258 454.275 679.598 457.384 679.598C460.494 679.598 463.015 681.258 463.015 683.305Z" fill="url(#paint64_linear_414_295)"/>
<path d="M499.736 683.305C499.736 685.352 497.215 687.011 494.105 687.011C490.996 687.011 488.475 685.352 488.475 683.305C488.475 681.258 490.996 679.598 494.105 679.598C497.215 679.598 499.736 681.258 499.736 683.305Z" fill="url(#paint65_linear_414_295)"/>
<path d="M22.3497 700.065C22.3497 702.112 19.8292 703.771 16.7195 703.771C13.6098 703.771 11.0892 702.112 11.0892 700.065C11.0892 698.018 13.6098 696.358 16.7195 696.358C19.8292 696.358 22.3497 698.018 22.3497 700.065Z" fill="url(#paint66_linear_414_295)"/>
<path d="M59.0707 700.065C59.0707 702.112 56.5502 703.771 53.4405 703.771C50.3308 703.771 47.8102 702.112 47.8102 700.065C47.8102 698.018 50.3308 696.358 53.4405 696.358C56.5502 696.358 59.0707 698.018 59.0707 700.065Z" fill="url(#paint67_linear_414_295)"/>
<path d="M95.7918 700.065C95.7918 702.112 93.2712 703.771 90.1615 703.771C87.0518 703.771 84.5313 702.112 84.5313 700.065C84.5313 698.018 87.0518 696.358 90.1615 696.358C93.2712 696.358 95.7918 698.018 95.7918 700.065Z" fill="url(#paint68_linear_414_295)"/>
<path d="M132.516 700.065C132.516 702.112 129.995 703.771 126.886 703.771C123.776 703.771 121.255 702.112 121.255 700.065C121.255 698.018 123.776 696.358 126.886 696.358C129.995 696.358 132.516 698.018 132.516 700.065Z" fill="url(#paint69_linear_414_295)"/>
<path d="M163.607 703.771C166.716 703.771 169.237 702.112 169.237 700.065C169.237 698.018 166.716 696.358 163.607 696.358C160.497 696.358 157.976 698.018 157.976 700.065C157.976 702.112 160.497 703.771 163.607 703.771Z" fill="url(#paint70_linear_414_295)"/>
<path d="M205.958 700.065C205.958 702.112 203.437 703.771 200.328 703.771C197.218 703.771 194.697 702.112 194.697 700.065C194.697 698.018 197.218 696.358 200.328 696.358C203.437 696.358 205.958 698.018 205.958 700.065Z" fill="url(#paint71_linear_414_295)"/>
<path d="M242.682 700.065C242.682 702.112 240.162 703.771 237.052 703.771C233.942 703.771 231.422 702.112 231.422 700.065C231.422 698.018 233.942 696.358 237.052 696.358C240.162 696.358 242.682 698.018 242.682 700.065Z" fill="url(#paint72_linear_414_295)"/>
<path d="M279.403 700.065C279.403 702.112 276.883 703.771 273.773 703.771C270.663 703.771 268.143 702.112 268.143 700.065C268.143 698.018 270.663 696.358 273.773 696.358C276.883 696.358 279.403 698.018 279.403 700.065Z" fill="url(#paint73_linear_414_295)"/>
<path d="M316.124 700.065C316.124 702.112 313.604 703.771 310.494 703.771C307.384 703.771 304.864 702.112 304.864 700.065C304.864 698.018 307.384 696.358 310.494 696.358C313.604 696.358 316.124 698.018 316.124 700.065Z" fill="url(#paint74_linear_414_295)"/>
<path d="M352.848 700.065C352.848 702.112 350.328 703.771 347.218 703.771C344.108 703.771 341.588 702.112 341.588 700.065C341.588 698.018 344.108 696.358 347.218 696.358C350.328 696.358 352.848 698.018 352.848 700.065Z" fill="url(#paint75_linear_414_295)"/>
<path d="M389.569 700.065C389.569 702.112 387.049 703.771 383.939 703.771C380.829 703.771 378.309 702.112 378.309 700.065C378.309 698.018 380.829 696.358 383.939 696.358C387.049 696.358 389.569 698.018 389.569 700.065Z" fill="url(#paint76_linear_414_295)"/>
<path d="M426.294 700.065C426.294 702.112 423.773 703.771 420.663 703.771C417.554 703.771 415.033 702.112 415.033 700.065C415.033 698.018 417.554 696.358 420.663 696.358C423.773 696.358 426.294 698.018 426.294 700.065Z" fill="url(#paint77_linear_414_295)"/>
<path d="M463.015 700.065C463.015 702.112 460.494 703.771 457.384 703.771C454.275 703.771 451.754 702.112 451.754 700.065C451.754 698.018 454.275 696.358 457.384 696.358C460.494 696.358 463.015 698.018 463.015 700.065Z" fill="url(#paint78_linear_414_295)"/>
<path d="M494.105 703.771C497.215 703.771 499.736 702.112 499.736 700.065C499.736 698.018 497.215 696.358 494.105 696.358C490.996 696.358 488.475 698.018 488.475 700.065C488.475 702.112 490.996 703.771 494.105 703.771Z" fill="url(#paint79_linear_414_295)"/>
<path d="M22.3497 716.825C22.3497 718.872 19.8292 720.531 16.7195 720.531C13.6098 720.531 11.0892 718.872 11.0892 716.825C11.0892 714.778 13.6098 713.118 16.7195 713.118C19.8292 713.118 22.3497 714.778 22.3497 716.825Z" fill="url(#paint80_linear_414_295)"/>
<path d="M59.0707 716.825C59.0707 718.872 56.5502 720.531 53.4405 720.531C50.3308 720.531 47.8102 718.872 47.8102 716.825C47.8102 714.778 50.3308 713.118 53.4405 713.118C56.5502 713.118 59.0707 714.778 59.0707 716.825Z" fill="url(#paint81_linear_414_295)"/>
<path d="M95.7918 716.825C95.7918 718.872 93.2712 720.531 90.1615 720.531C87.0518 720.531 84.5313 718.872 84.5313 716.825C84.5313 714.778 87.0518 713.118 90.1615 713.118C93.2712 713.118 95.7918 714.778 95.7918 716.825Z" fill="url(#paint82_linear_414_295)"/>
<path d="M132.516 716.825C132.516 718.872 129.995 720.531 126.886 720.531C123.776 720.531 121.255 718.872 121.255 716.825C121.255 714.778 123.776 713.118 126.886 713.118C129.995 713.118 132.516 714.778 132.516 716.825Z" fill="url(#paint83_linear_414_295)"/>
<path d="M169.237 716.825C169.237 718.872 166.716 720.531 163.607 720.531C160.497 720.531 157.976 718.872 157.976 716.825C157.976 714.778 160.497 713.118 163.607 713.118C166.716 713.118 169.237 714.778 169.237 716.825Z" fill="url(#paint84_linear_414_295)"/>
<path d="M205.958 716.825C205.958 718.872 203.437 720.531 200.328 720.531C197.218 720.531 194.697 718.872 194.697 716.825C194.697 714.778 197.218 713.118 200.328 713.118C203.437 713.118 205.958 714.778 205.958 716.825Z" fill="url(#paint85_linear_414_295)"/>
<path d="M242.682 716.825C242.682 718.872 240.162 720.531 237.052 720.531C233.942 720.531 231.422 718.872 231.422 716.825C231.422 714.778 233.942 713.118 237.052 713.118C240.162 713.118 242.682 714.778 242.682 716.825Z" fill="url(#paint86_linear_414_295)"/>
<path d="M279.403 716.825C279.403 718.872 276.883 720.531 273.773 720.531C270.663 720.531 268.143 718.872 268.143 716.825C268.143 714.778 270.663 713.118 273.773 713.118C276.883 713.118 279.403 714.778 279.403 716.825Z" fill="url(#paint87_linear_414_295)"/>
<path d="M316.124 716.825C316.124 718.872 313.604 720.531 310.494 720.531C307.384 720.531 304.864 718.872 304.864 716.825C304.864 714.778 307.384 713.118 310.494 713.118C313.604 713.118 316.124 714.778 316.124 716.825Z" fill="url(#paint88_linear_414_295)"/>
<path d="M352.848 716.825C352.848 718.872 350.328 720.531 347.218 720.531C344.108 720.531 341.588 718.872 341.588 716.825C341.588 714.778 344.108 713.118 347.218 713.118C350.328 713.118 352.848 714.778 352.848 716.825Z" fill="url(#paint89_linear_414_295)"/>
<path d="M389.569 716.825C389.569 718.872 387.049 720.531 383.939 720.531C380.829 720.531 378.309 718.872 378.309 716.825C378.309 714.778 380.829 713.118 383.939 713.118C387.049 713.118 389.569 714.778 389.569 716.825Z" fill="url(#paint90_linear_414_295)"/>
<path d="M426.294 716.825C426.294 718.872 423.773 720.531 420.663 720.531C417.554 720.531 415.033 718.872 415.033 716.825C415.033 714.778 417.554 713.118 420.663 713.118C423.773 713.118 426.294 714.778 426.294 716.825Z" fill="url(#paint91_linear_414_295)"/>
<path d="M463.015 716.825C463.015 718.872 460.494 720.531 457.384 720.531C454.275 720.531 451.754 718.872 451.754 716.825C451.754 714.778 454.275 713.118 457.384 713.118C460.494 713.118 463.015 714.778 463.015 716.825Z" fill="url(#paint92_linear_414_295)"/>
<path d="M499.736 716.825C499.736 718.872 497.215 720.531 494.105 720.531C490.996 720.531 488.475 718.872 488.475 716.825C488.475 714.778 490.996 713.118 494.105 713.118C497.215 713.118 499.736 714.778 499.736 716.825Z" fill="url(#paint93_linear_414_295)"/>
<path d="M22.3497 733.584C22.3497 735.631 19.8292 737.291 16.7195 737.291C13.6098 737.291 11.0892 735.631 11.0892 733.584C11.0892 731.537 13.6098 729.878 16.7195 729.878C19.8292 729.878 22.3497 731.537 22.3497 733.584Z" fill="url(#paint94_linear_414_295)"/>
<path d="M59.0707 733.584C59.0707 735.631 56.5502 737.291 53.4405 737.291C50.3308 737.291 47.8102 735.631 47.8102 733.584C47.8102 731.537 50.3308 729.878 53.4405 729.878C56.5502 729.878 59.0707 731.537 59.0707 733.584Z" fill="url(#paint95_linear_414_295)"/>
<path d="M95.7918 733.584C95.7918 735.631 93.2712 737.291 90.1615 737.291C87.0518 737.291 84.5313 735.631 84.5313 733.584C84.5313 731.537 87.0518 729.878 90.1615 729.878C93.2712 729.878 95.7918 731.537 95.7918 733.584Z" fill="url(#paint96_linear_414_295)"/>
<path d="M132.516 733.584C132.516 735.631 129.995 737.291 126.886 737.291C123.776 737.291 121.255 735.631 121.255 733.584C121.255 731.537 123.776 729.878 126.886 729.878C129.995 729.878 132.516 731.537 132.516 733.584Z" fill="url(#paint97_linear_414_295)"/>
<path d="M169.237 733.584C169.237 735.631 166.716 737.291 163.607 737.291C160.497 737.291 157.976 735.631 157.976 733.584C157.976 731.537 160.497 729.878 163.607 729.878C166.716 729.878 169.237 731.537 169.237 733.584Z" fill="url(#paint98_linear_414_295)"/>
<path d="M205.958 733.584C205.958 735.631 203.437 737.291 200.328 737.291C197.218 737.291 194.697 735.631 194.697 733.584C194.697 731.537 197.218 729.878 200.328 729.878C203.437 729.878 205.958 731.537 205.958 733.584Z" fill="url(#paint99_linear_414_295)"/>
<path d="M242.682 733.584C242.682 735.631 240.162 737.291 237.052 737.291C233.942 737.291 231.422 735.631 231.422 733.584C231.422 731.537 233.942 729.878 237.052 729.878C240.162 729.878 242.682 731.537 242.682 733.584Z" fill="url(#paint100_linear_414_295)"/>
<path d="M279.403 733.584C279.403 735.631 276.883 737.291 273.773 737.291C270.663 737.291 268.143 735.631 268.143 733.584C268.143 731.537 270.663 729.878 273.773 729.878C276.883 729.878 279.403 731.537 279.403 733.584Z" fill="url(#paint101_linear_414_295)"/>
<path d="M316.124 733.584C316.124 735.631 313.604 737.291 310.494 737.291C307.384 737.291 304.864 735.631 304.864 733.584C304.864 731.537 307.384 729.878 310.494 729.878C313.604 729.878 316.124 731.537 316.124 733.584Z" fill="url(#paint102_linear_414_295)"/>
<path d="M352.848 733.584C352.848 735.631 350.328 737.291 347.218 737.291C344.108 737.291 341.588 735.631 341.588 733.584C341.588 731.537 344.108 729.878 347.218 729.878C350.328 729.878 352.848 731.537 352.848 733.584Z" fill="url(#paint103_linear_414_295)"/>
<path d="M389.569 733.584C389.569 735.631 387.049 737.291 383.939 737.291C380.829 737.291 378.309 735.631 378.309 733.584C378.309 731.537 380.829 729.878 383.939 729.878C387.049 729.878 389.569 731.537 389.569 733.584Z" fill="url(#paint104_linear_414_295)"/>
<path d="M426.294 733.584C426.294 735.631 423.773 737.291 420.663 737.291C417.554 737.291 415.033 735.631 415.033 733.584C415.033 731.537 417.554 729.878 420.663 729.878C423.773 729.878 426.294 731.537 426.294 733.584Z" fill="url(#paint105_linear_414_295)"/>
<path d="M463.015 733.584C463.015 735.631 460.494 737.291 457.384 737.291C454.275 737.291 451.754 735.631 451.754 733.584C451.754 731.537 454.275 729.878 457.384 729.878C460.494 729.878 463.015 731.537 463.015 733.584Z" fill="url(#paint106_linear_414_295)"/>
<path d="M499.736 733.584C499.736 735.631 497.215 737.291 494.105 737.291C490.996 737.291 488.475 735.631 488.475 733.584C488.475 731.537 490.996 729.878 494.105 729.878C497.215 729.878 499.736 731.537 499.736 733.584Z" fill="url(#paint107_linear_414_295)"/>
<path d="M22.3497 750.345C22.3497 752.392 19.8292 754.051 16.7195 754.051C13.6098 754.051 11.0892 752.392 11.0892 750.345C11.0892 748.298 13.6098 746.638 16.7195 746.638C19.8292 746.638 22.3497 748.298 22.3497 750.345Z" fill="url(#paint108_linear_414_295)"/>
<path d="M59.0707 750.345C59.0707 752.392 56.5502 754.051 53.4405 754.051C50.3308 754.051 47.8102 752.392 47.8102 750.345C47.8102 748.298 50.3308 746.638 53.4405 746.638C56.5502 746.638 59.0707 748.298 59.0707 750.345Z" fill="url(#paint109_linear_414_295)"/>
<path d="M95.7918 750.345C95.7918 752.392 93.2712 754.051 90.1615 754.051C87.0518 754.051 84.5313 752.392 84.5313 750.345C84.5313 748.298 87.0518 746.638 90.1615 746.638C93.2712 746.638 95.7918 748.298 95.7918 750.345Z" fill="url(#paint110_linear_414_295)"/>
<path d="M132.516 750.345C132.516 752.392 129.995 754.051 126.886 754.051C123.776 754.051 121.255 752.392 121.255 750.345C121.255 748.298 123.776 746.638 126.886 746.638C129.995 746.638 132.516 748.298 132.516 750.345Z" fill="url(#paint111_linear_414_295)"/>
<path d="M169.237 750.345C169.237 752.392 166.716 754.051 163.607 754.051C160.497 754.051 157.976 752.392 157.976 750.345C157.976 748.298 160.497 746.638 163.607 746.638C166.716 746.638 169.237 748.298 169.237 750.345Z" fill="url(#paint112_linear_414_295)"/>
<path d="M205.958 750.345C205.958 752.392 203.437 754.051 200.328 754.051C197.218 754.051 194.697 752.392 194.697 750.345C194.697 748.298 197.218 746.638 200.328 746.638C203.437 746.638 205.958 748.298 205.958 750.345Z" fill="url(#paint113_linear_414_295)"/>
<path d="M242.682 750.345C242.682 752.392 240.162 754.051 237.052 754.051C233.942 754.051 231.422 752.392 231.422 750.345C231.422 748.298 233.942 746.638 237.052 746.638C240.162 746.638 242.682 748.298 242.682 750.345Z" fill="url(#paint114_linear_414_295)"/>
<path d="M279.403 750.345C279.403 752.392 276.883 754.051 273.773 754.051C270.663 754.051 268.143 752.392 268.143 750.345C268.143 748.298 270.663 746.638 273.773 746.638C276.883 746.638 279.403 748.298 279.403 750.345Z" fill="url(#paint115_linear_414_295)"/>
<path d="M316.124 750.345C316.124 752.392 313.604 754.051 310.494 754.051C307.384 754.051 304.864 752.392 304.864 750.345C304.864 748.298 307.384 746.638 310.494 746.638C313.604 746.638 316.124 748.298 316.124 750.345Z" fill="url(#paint116_linear_414_295)"/>
<path d="M352.848 750.345C352.848 752.392 350.328 754.051 347.218 754.051C344.108 754.051 341.588 752.392 341.588 750.345C341.588 748.298 344.108 746.638 347.218 746.638C350.328 746.638 352.848 748.298 352.848 750.345Z" fill="url(#paint117_linear_414_295)"/>
<path d="M389.569 750.345C389.569 752.392 387.049 754.051 383.939 754.051C380.829 754.051 378.309 752.392 378.309 750.345C378.309 748.298 380.829 746.638 383.939 746.638C387.049 746.638 389.569 748.298 389.569 750.345Z" fill="url(#paint118_linear_414_295)"/>
<path d="M426.294 750.345C426.294 752.392 423.773 754.051 420.663 754.051C417.554 754.051 415.033 752.392 415.033 750.345C415.033 748.298 417.554 746.638 420.663 746.638C423.773 746.638 426.294 748.298 426.294 750.345Z" fill="url(#paint119_linear_414_295)"/>
<path d="M463.015 750.345C463.015 752.392 460.494 754.051 457.384 754.051C454.275 754.051 451.754 752.392 451.754 750.345C451.754 748.298 454.275 746.638 457.384 746.638C460.494 746.638 463.015 748.298 463.015 750.345Z" fill="url(#paint120_linear_414_295)"/>
<path d="M499.736 750.345C499.736 752.392 497.215 754.051 494.105 754.051C490.996 754.051 488.475 752.392 488.475 750.345C488.475 748.298 490.996 746.638 494.105 746.638C497.215 746.638 499.736 748.298 499.736 750.345Z" fill="url(#paint121_linear_414_295)"/>
<path d="M22.3497 767.104C22.3497 769.151 19.8292 770.811 16.7195 770.811C13.6098 770.811 11.0892 769.151 11.0892 767.104C11.0892 765.057 13.6098 763.398 16.7195 763.398C19.8292 763.398 22.3497 765.057 22.3497 767.104Z" fill="url(#paint122_linear_414_295)"/>
<path d="M59.0707 767.104C59.0707 769.151 56.5502 770.811 53.4405 770.811C50.3308 770.811 47.8102 769.151 47.8102 767.104C47.8102 765.057 50.3308 763.398 53.4405 763.398C56.5502 763.398 59.0707 765.057 59.0707 767.104Z" fill="url(#paint123_linear_414_295)"/>
<path d="M95.7918 767.104C95.7918 769.151 93.2712 770.811 90.1615 770.811C87.0518 770.811 84.5313 769.151 84.5313 767.104C84.5313 765.057 87.0518 763.398 90.1615 763.398C93.2712 763.398 95.7918 765.057 95.7918 767.104Z" fill="url(#paint124_linear_414_295)"/>
<path d="M132.516 767.104C132.516 769.151 129.995 770.811 126.886 770.811C123.776 770.811 121.255 769.151 121.255 767.104C121.255 765.057 123.776 763.398 126.886 763.398C129.995 763.398 132.516 765.057 132.516 767.104Z" fill="url(#paint125_linear_414_295)"/>
<path d="M169.237 767.104C169.237 769.151 166.716 770.811 163.607 770.811C160.497 770.811 157.976 769.151 157.976 767.104C157.976 765.057 160.497 763.398 163.607 763.398C166.716 763.398 169.237 765.057 169.237 767.104Z" fill="url(#paint126_linear_414_295)"/>
<path d="M205.958 767.104C205.958 769.151 203.437 770.811 200.328 770.811C197.218 770.811 194.697 769.151 194.697 767.104C194.697 765.057 197.218 763.398 200.328 763.398C203.437 763.398 205.958 765.057 205.958 767.104Z" fill="url(#paint127_linear_414_295)"/>
<path d="M242.682 767.104C242.682 769.151 240.162 770.811 237.052 770.811C233.942 770.811 231.422 769.151 231.422 767.104C231.422 765.057 233.942 763.398 237.052 763.398C240.162 763.398 242.682 765.057 242.682 767.104Z" fill="url(#paint128_linear_414_295)"/>
<path d="M279.403 767.104C279.403 769.151 276.883 770.811 273.773 770.811C270.663 770.811 268.143 769.151 268.143 767.104C268.143 765.057 270.663 763.398 273.773 763.398C276.883 763.398 279.403 765.057 279.403 767.104Z" fill="url(#paint129_linear_414_295)"/>
<path d="M316.124 767.104C316.124 769.151 313.604 770.811 310.494 770.811C307.384 770.811 304.864 769.151 304.864 767.104C304.864 765.057 307.384 763.398 310.494 763.398C313.604 763.398 316.124 765.057 316.124 767.104Z" fill="url(#paint130_linear_414_295)"/>
<path d="M352.848 767.104C352.848 769.151 350.328 770.811 347.218 770.811C344.108 770.811 341.588 769.151 341.588 767.104C341.588 765.057 344.108 763.398 347.218 763.398C350.328 763.398 352.848 765.057 352.848 767.104Z" fill="url(#paint131_linear_414_295)"/>
<path d="M389.569 767.104C389.569 769.151 387.049 770.811 383.939 770.811C380.829 770.811 378.309 769.151 378.309 767.104C378.309 765.057 380.829 763.398 383.939 763.398C387.049 763.398 389.569 765.057 389.569 767.104Z" fill="url(#paint132_linear_414_295)"/>
<path d="M426.294 767.104C426.294 769.151 423.773 770.811 420.663 770.811C417.554 770.811 415.033 769.151 415.033 767.104C415.033 765.057 417.554 763.398 420.663 763.398C423.773 763.398 426.294 765.057 426.294 767.104Z" fill="url(#paint133_linear_414_295)"/>
<path d="M463.015 767.104C463.015 769.151 460.494 770.811 457.384 770.811C454.275 770.811 451.754 769.151 451.754 767.104C451.754 765.057 454.275 763.398 457.384 763.398C460.494 763.398 463.015 765.057 463.015 767.104Z" fill="url(#paint134_linear_414_295)"/>
<path d="M499.736 767.104C499.736 769.151 497.215 770.811 494.105 770.811C490.996 770.811 488.475 769.151 488.475 767.104C488.475 765.057 490.996 763.398 494.105 763.398C497.215 763.398 499.736 765.057 499.736 767.104Z" fill="url(#paint135_linear_414_295)"/>
<path d="M22.3497 783.864C22.3497 785.911 19.8292 787.571 16.7195 787.571C13.6098 787.571 11.0892 785.911 11.0892 783.864C11.0892 781.817 13.6098 780.158 16.7195 780.158C19.8292 780.158 22.3497 781.817 22.3497 783.864Z" fill="url(#paint136_linear_414_295)"/>
<path d="M59.0707 783.864C59.0707 785.911 56.5502 787.571 53.4405 787.571C50.3308 787.571 47.8102 785.911 47.8102 783.864C47.8102 781.817 50.3308 780.158 53.4405 780.158C56.5502 780.158 59.0707 781.817 59.0707 783.864Z" fill="url(#paint137_linear_414_295)"/>
<path d="M95.7918 783.864C95.7918 785.911 93.2712 787.571 90.1615 787.571C87.0518 787.571 84.5313 785.911 84.5313 783.864C84.5313 781.817 87.0518 780.158 90.1615 780.158C93.2712 780.158 95.7918 781.817 95.7918 783.864Z" fill="url(#paint138_linear_414_295)"/>
<path d="M132.516 783.864C132.516 785.911 129.995 787.571 126.886 787.571C123.776 787.571 121.255 785.911 121.255 783.864C121.255 781.817 123.776 780.158 126.886 780.158C129.995 780.158 132.516 781.817 132.516 783.864Z" fill="url(#paint139_linear_414_295)"/>
<path d="M169.237 783.864C169.237 785.911 166.716 787.571 163.607 787.571C160.497 787.571 157.976 785.911 157.976 783.864C157.976 781.817 160.497 780.158 163.607 780.158C166.716 780.158 169.237 781.817 169.237 783.864Z" fill="url(#paint140_linear_414_295)"/>
<path d="M205.958 783.864C205.958 785.911 203.437 787.571 200.328 787.571C197.218 787.571 194.697 785.911 194.697 783.864C194.697 781.817 197.218 780.158 200.328 780.158C203.437 780.158 205.958 781.817 205.958 783.864Z" fill="url(#paint141_linear_414_295)"/>
<path d="M242.682 783.864C242.682 785.911 240.162 787.571 237.052 787.571C233.942 787.571 231.422 785.911 231.422 783.864C231.422 781.817 233.942 780.158 237.052 780.158C240.162 780.158 242.682 781.817 242.682 783.864Z" fill="url(#paint142_linear_414_295)"/>
<path d="M279.403 783.864C279.403 785.911 276.883 787.571 273.773 787.571C270.663 787.571 268.143 785.911 268.143 783.864C268.143 781.817 270.663 780.158 273.773 780.158C276.883 780.158 279.403 781.817 279.403 783.864Z" fill="url(#paint143_linear_414_295)"/>
<path d="M316.124 783.864C316.124 785.911 313.604 787.571 310.494 787.571C307.384 787.571 304.864 785.911 304.864 783.864C304.864 781.817 307.384 780.158 310.494 780.158C313.604 780.158 316.124 781.817 316.124 783.864Z" fill="url(#paint144_linear_414_295)"/>
<path d="M352.848 783.864C352.848 785.911 350.328 787.571 347.218 787.571C344.108 787.571 341.588 785.911 341.588 783.864C341.588 781.817 344.108 780.158 347.218 780.158C350.328 780.158 352.848 781.817 352.848 783.864Z" fill="url(#paint145_linear_414_295)"/>
<path d="M389.569 783.864C389.569 785.911 387.049 787.571 383.939 787.571C380.829 787.571 378.309 785.911 378.309 783.864C378.309 781.817 380.829 780.158 383.939 780.158C387.049 780.158 389.569 781.817 389.569 783.864Z" fill="url(#paint146_linear_414_295)"/>
<path d="M426.294 783.864C426.294 785.911 423.773 787.571 420.663 787.571C417.554 787.571 415.033 785.911 415.033 783.864C415.033 781.817 417.554 780.158 420.663 780.158C423.773 780.158 426.294 781.817 426.294 783.864Z" fill="url(#paint147_linear_414_295)"/>
<path d="M463.015 783.864C463.015 785.911 460.494 787.571 457.384 787.571C454.275 787.571 451.754 785.911 451.754 783.864C451.754 781.817 454.275 780.158 457.384 780.158C460.494 780.158 463.015 781.817 463.015 783.864Z" fill="url(#paint148_linear_414_295)"/>
<path d="M499.736 783.864C499.736 785.911 497.215 787.571 494.105 787.571C490.996 787.571 488.475 785.911 488.475 783.864C488.475 781.817 490.996 780.158 494.105 780.158C497.215 780.158 499.736 781.817 499.736 783.864Z" fill="url(#paint149_linear_414_295)"/>
</g>
<path d="M1258.9 721.022H1347.48L1205.11 558.703L1347.48 396.383H1258.9L1116.54 558.703L1258.9 721.022Z" fill="url(#paint150_linear_414_295)"/>
<path d="M1121.54 721.022H1210.12L1067.75 558.703L1210.12 396.383H1121.54L979.179 558.703L1121.54 721.022Z" fill="url(#paint151_linear_414_295)"/>
<path d="M984.182 721.022H1072.75L930.388 558.703L1072.75 396.383H984.182L841.816 558.703L984.182 721.022Z" fill="url(#paint152_linear_414_295)"/>
<path d="M846.819 721.022H935.394L793.028 558.703L935.394 396.383H846.819L704.456 558.703L846.819 721.022Z" fill="url(#paint153_linear_414_295)"/>
<path d="M1367.57 340.12H1320.83L1395.97 254.451L1320.83 168.782H1367.57L1442.71 254.451L1367.57 340.12Z" fill="url(#paint154_linear_414_295)"/>
<path d="M1440.07 340.12H1393.32L1468.46 254.451L1393.32 168.782H1440.07L1515.21 254.451L1440.07 340.12Z" fill="url(#paint155_linear_414_295)"/>
<path d="M1512.57 340.12H1465.82L1540.96 254.451L1465.82 168.782H1512.57L1587.7 254.451L1512.57 340.12Z" fill="url(#paint156_linear_414_295)"/>
<path d="M1585.06 340.12H1538.32L1613.46 254.451L1538.32 168.782H1585.06L1660.2 254.451L1585.06 340.12Z" fill="url(#paint157_linear_414_295)"/>
</g>
<defs>
<linearGradient id="paint0_linear_414_295" x1="1206.52" y1="520.837" x2="2114.71" y2="520.837" gradientUnits="userSpaceOnUse">
<stop stop-color="#FF5404"/>
<stop offset="0.9946" stop-color="#EEC700"/>
</linearGradient>
<linearGradient id="paint1_linear_414_295" x1="1206.52" y1="606.606" x2="2114.72" y2="606.606" gradientUnits="userSpaceOnUse">
<stop stop-color="#FF5404"/>
<stop offset="0.9946" stop-color="#EEC700"/>
</linearGradient>
<linearGradient id="paint2_linear_414_295" x1="1253.19" y1="540.175" x2="2148.72" y2="540.175" gradientUnits="userSpaceOnUse">
<stop stop-color="#FF5404"/>
<stop offset="0.9946" stop-color="#EEC700"/>
</linearGradient>
<linearGradient id="paint3_linear_414_295" x1="829.295" y1="879.4" x2="781.403" y2="586.985" gradientUnits="userSpaceOnUse">
<stop stop-color="#FF5404"/>
<stop offset="0.9946" stop-color="#EEC700"/>
</linearGradient>
<linearGradient id="paint4_linear_414_295" x1="1794.08" y1="431.709" x2="1746.19" y2="139.294" gradientUnits="userSpaceOnUse">
<stop stop-color="#FF5404"/>
<stop offset="0.9946" stop-color="#EEC700"/>
</linearGradient>
<linearGradient id="paint5_linear_414_295" x1="793.336" y1="830.269" x2="772.686" y2="704.181" gradientUnits="userSpaceOnUse">
<stop stop-color="white"/>
<stop offset="0.9946" stop-color="#EEC700" stop-opacity="0"/>
</linearGradient>
<linearGradient id="paint6_linear_414_295" x1="1871.95" y1="507.652" x2="1851.3" y2="381.563" gradientUnits="userSpaceOnUse">
<stop stop-color="white"/>
<stop offset="0.9946" stop-color="#EEC700" stop-opacity="0"/>
</linearGradient>
<linearGradient id="paint7_linear_414_295" x1="1548.7" y1="34.4323" x2="1638" y2="266.995" gradientUnits="userSpaceOnUse">
<stop stop-color="white"/>
<stop offset="0.9946" stop-color="#EEC700" stop-opacity="0"/>
</linearGradient>
<linearGradient id="paint8_linear_414_295" x1="-437.515" y1="254.799" x2="233.839" y2="254.799" gradientUnits="userSpaceOnUse">
<stop stop-color="#FF5404"/>
<stop offset="0.9946" stop-color="#EEC700"/>
</linearGradient>
<linearGradient id="paint9_linear_414_295" x1="-421.184" y1="264.487" x2="259.672" y2="264.487" gradientUnits="userSpaceOnUse">
<stop stop-color="#FF5404"/>
<stop offset="0.9946" stop-color="#EEC700"/>
</linearGradient>
<linearGradient id="paint10_linear_414_295" x1="-112.656" y1="929.459" x2="-38.4562" y2="537.113" gradientUnits="userSpaceOnUse">
<stop stop-color="white"/>
<stop offset="0.9946" stop-color="#EEC700" stop-opacity="0"/>
</linearGradient>
<linearGradient id="paint11_linear_414_295" x1="-78.7337" y1="935.874" x2="-4.53412" y2="543.528" gradientUnits="userSpaceOnUse">
<stop stop-color="white"/>
<stop offset="0.9946" stop-color="#EEC700" stop-opacity="0"/>
</linearGradient>
<linearGradient id="paint12_linear_414_295" x1="-44.8117" y1="942.29" x2="29.3878" y2="549.944" gradientUnits="userSpaceOnUse">
<stop stop-color="white"/>
<stop offset="0.9946" stop-color="#EEC700" stop-opacity="0"/>
</linearGradient>
<linearGradient id="paint13_linear_414_295" x1="-10.8897" y1="948.706" x2="63.3101" y2="556.359" gradientUnits="userSpaceOnUse">
<stop stop-color="white"/>
<stop offset="0.9946" stop-color="#EEC700" stop-opacity="0"/>
</linearGradient>
<linearGradient id="paint14_linear_414_295" x1="23.0326" y1="955.12" x2="97.2322" y2="562.774" gradientUnits="userSpaceOnUse">
<stop stop-color="white"/>
<stop offset="0.9946" stop-color="#EEC700" stop-opacity="0"/>
</linearGradient>
<linearGradient id="paint15_linear_414_295" x1="56.9546" y1="961.536" x2="131.154" y2="569.189" gradientUnits="userSpaceOnUse">
<stop stop-color="white"/>
<stop offset="0.9946" stop-color="#EEC700" stop-opacity="0"/>
</linearGradient>
<linearGradient id="paint16_linear_414_295" x1="90.8778" y1="967.951" x2="165.077" y2="575.605" gradientUnits="userSpaceOnUse">
<stop stop-color="white"/>
<stop offset="0.9946" stop-color="#EEC700" stop-opacity="0"/>
</linearGradient>
<linearGradient id="paint17_linear_414_295" x1="124.8" y1="974.367" x2="199" y2="582.02" gradientUnits="userSpaceOnUse">
<stop stop-color="white"/>
<stop offset="0.9946" stop-color="#EEC700" stop-opacity="0"/>
</linearGradient>
<linearGradient id="paint18_linear_414_295" x1="158.722" y1="980.781" x2="232.922" y2="588.435" gradientUnits="userSpaceOnUse">
<stop stop-color="white"/>
<stop offset="0.9946" stop-color="#EEC700" stop-opacity="0"/>
</linearGradient>
<linearGradient id="paint19_linear_414_295" x1="192.644" y1="987.197" x2="266.843" y2="594.851" gradientUnits="userSpaceOnUse">
<stop stop-color="white"/>
<stop offset="0.9946" stop-color="#EEC700" stop-opacity="0"/>
</linearGradient>
<linearGradient id="paint20_linear_414_295" x1="226.566" y1="993.613" x2="300.766" y2="601.266" gradientUnits="userSpaceOnUse">
<stop stop-color="white"/>
<stop offset="0.9946" stop-color="#EEC700" stop-opacity="0"/>
</linearGradient>
<linearGradient id="paint21_linear_414_295" x1="260.489" y1="1000.03" x2="334.688" y2="607.681" gradientUnits="userSpaceOnUse">
<stop stop-color="white"/>
<stop offset="0.9946" stop-color="#EEC700" stop-opacity="0"/>
</linearGradient>
<linearGradient id="paint22_linear_414_295" x1="294.41" y1="1006.44" x2="368.61" y2="614.097" gradientUnits="userSpaceOnUse">
<stop stop-color="white"/>
<stop offset="0.9946" stop-color="#EEC700" stop-opacity="0"/>
</linearGradient>
<linearGradient id="paint23_linear_414_295" x1="328.333" y1="1012.86" x2="402.532" y2="620.512" gradientUnits="userSpaceOnUse">
<stop stop-color="white"/>
<stop offset="0.9946" stop-color="#EEC700" stop-opacity="0"/>
</linearGradient>
<linearGradient id="paint24_linear_414_295" x1="-105.899" y1="930.736" x2="-31.6991" y2="538.391" gradientUnits="userSpaceOnUse">
<stop stop-color="white"/>
<stop offset="0.9946" stop-color="#EEC700" stop-opacity="0"/>
</linearGradient>
<linearGradient id="paint25_linear_414_295" x1="-71.9764" y1="937.151" x2="2.22299" y2="544.806" gradientUnits="userSpaceOnUse">
<stop stop-color="white"/>
<stop offset="0.9946" stop-color="#EEC700" stop-opacity="0"/>
</linearGradient>
<linearGradient id="paint26_linear_414_295" x1="-38.0544" y1="943.567" x2="36.1448" y2="551.222" gradientUnits="userSpaceOnUse">
<stop stop-color="white"/>
<stop offset="0.9946" stop-color="#EEC700" stop-opacity="0"/>
</linearGradient>
<linearGradient id="paint27_linear_414_295" x1="-4.13218" y1="949.982" x2="70.0675" y2="557.636" gradientUnits="userSpaceOnUse">
<stop stop-color="white"/>
<stop offset="0.9946" stop-color="#EEC700" stop-opacity="0"/>
</linearGradient>
<linearGradient id="paint28_linear_414_295" x1="29.7901" y1="956.397" x2="103.989" y2="564.052" gradientUnits="userSpaceOnUse">
<stop stop-color="white"/>
<stop offset="0.9946" stop-color="#EEC700" stop-opacity="0"/>
</linearGradient>
<linearGradient id="paint29_linear_414_295" x1="63.7118" y1="962.813" x2="137.911" y2="570.467" gradientUnits="userSpaceOnUse">
<stop stop-color="white"/>
<stop offset="0.9946" stop-color="#EEC700" stop-opacity="0"/>
</linearGradient>
<linearGradient id="paint30_linear_414_295" x1="97.635" y1="969.228" x2="171.835" y2="576.883" gradientUnits="userSpaceOnUse">
<stop stop-color="white"/>
<stop offset="0.9946" stop-color="#EEC700" stop-opacity="0"/>
</linearGradient>
<linearGradient id="paint31_linear_414_295" x1="131.557" y1="975.644" x2="205.757" y2="583.298" gradientUnits="userSpaceOnUse">
<stop stop-color="white"/>
<stop offset="0.9946" stop-color="#EEC700" stop-opacity="0"/>
</linearGradient>
<linearGradient id="paint32_linear_414_295" x1="165.48" y1="982.058" x2="239.679" y2="589.713" gradientUnits="userSpaceOnUse">
<stop stop-color="white"/>
<stop offset="0.9946" stop-color="#EEC700" stop-opacity="0"/>
</linearGradient>
<linearGradient id="paint33_linear_414_295" x1="199.401" y1="988.474" x2="273.6" y2="596.129" gradientUnits="userSpaceOnUse">
<stop stop-color="white"/>
<stop offset="0.9946" stop-color="#EEC700" stop-opacity="0"/>
</linearGradient>
<linearGradient id="paint34_linear_414_295" x1="233.323" y1="994.89" x2="307.523" y2="602.543" gradientUnits="userSpaceOnUse">
<stop stop-color="white"/>
<stop offset="0.9946" stop-color="#EEC700" stop-opacity="0"/>
</linearGradient>
<linearGradient id="paint35_linear_414_295" x1="267.246" y1="1001.3" x2="341.445" y2="608.959" gradientUnits="userSpaceOnUse">
<stop stop-color="white"/>
<stop offset="0.9946" stop-color="#EEC700" stop-opacity="0"/>
</linearGradient>
<linearGradient id="paint36_linear_414_295" x1="301.168" y1="1007.72" x2="375.367" y2="615.374" gradientUnits="userSpaceOnUse">
<stop stop-color="white"/>
<stop offset="0.9946" stop-color="#EEC700" stop-opacity="0"/>
</linearGradient>
<linearGradient id="paint37_linear_414_295" x1="335.09" y1="1014.13" x2="409.29" y2="621.789" gradientUnits="userSpaceOnUse">
<stop stop-color="white"/>
<stop offset="0.9946" stop-color="#EEC700" stop-opacity="0"/>
</linearGradient>
<linearGradient id="paint38_linear_414_295" x1="-99.1418" y1="932.012" x2="-24.9436" y2="539.67" gradientUnits="userSpaceOnUse">
<stop stop-color="white"/>
<stop offset="0.9946" stop-color="#EEC700" stop-opacity="0"/>
</linearGradient>
<linearGradient id="paint39_linear_414_295" x1="-65.2195" y1="938.427" x2="8.97867" y2="546.085" gradientUnits="userSpaceOnUse">
<stop stop-color="white"/>
<stop offset="0.9946" stop-color="#EEC700" stop-opacity="0"/>
</linearGradient>
<linearGradient id="paint40_linear_414_295" x1="-31.2975" y1="944.843" x2="42.9006" y2="552.501" gradientUnits="userSpaceOnUse">
<stop stop-color="white"/>
<stop offset="0.9946" stop-color="#EEC700" stop-opacity="0"/>
</linearGradient>
<linearGradient id="paint41_linear_414_295" x1="2.62475" y1="951.258" x2="76.8231" y2="558.915" gradientUnits="userSpaceOnUse">
<stop stop-color="white"/>
<stop offset="0.9946" stop-color="#EEC700" stop-opacity="0"/>
</linearGradient>
<linearGradient id="paint42_linear_414_295" x1="36.5467" y1="957.673" x2="110.745" y2="565.331" gradientUnits="userSpaceOnUse">
<stop stop-color="white"/>
<stop offset="0.9946" stop-color="#EEC700" stop-opacity="0"/>
</linearGradient>
<linearGradient id="paint43_linear_414_295" x1="70.4687" y1="964.089" x2="144.667" y2="571.746" gradientUnits="userSpaceOnUse">
<stop stop-color="white"/>
<stop offset="0.9946" stop-color="#EEC700" stop-opacity="0"/>
</linearGradient>
<linearGradient id="paint44_linear_414_295" x1="104.392" y1="970.503" x2="178.59" y2="578.161" gradientUnits="userSpaceOnUse">
<stop stop-color="white"/>
<stop offset="0.9946" stop-color="#EEC700" stop-opacity="0"/>
</linearGradient>
<linearGradient id="paint45_linear_414_295" x1="138.314" y1="976.919" x2="212.512" y2="584.576" gradientUnits="userSpaceOnUse">
<stop stop-color="white"/>
<stop offset="0.9946" stop-color="#EEC700" stop-opacity="0"/>
</linearGradient>
<linearGradient id="paint46_linear_414_295" x1="172.236" y1="983.334" x2="246.435" y2="590.992" gradientUnits="userSpaceOnUse">
<stop stop-color="white"/>
<stop offset="0.9946" stop-color="#EEC700" stop-opacity="0"/>
</linearGradient>
<linearGradient id="paint47_linear_414_295" x1="206.158" y1="989.749" x2="280.356" y2="597.407" gradientUnits="userSpaceOnUse">
<stop stop-color="white"/>
<stop offset="0.9946" stop-color="#EEC700" stop-opacity="0"/>
</linearGradient>
<linearGradient id="paint48_linear_414_295" x1="240.08" y1="996.165" x2="314.278" y2="603.822" gradientUnits="userSpaceOnUse">
<stop stop-color="white"/>
<stop offset="0.9946" stop-color="#EEC700" stop-opacity="0"/>
</linearGradient>
<linearGradient id="paint49_linear_414_295" x1="274.003" y1="1002.58" x2="348.201" y2="610.237" gradientUnits="userSpaceOnUse">
<stop stop-color="white"/>
<stop offset="0.9946" stop-color="#EEC700" stop-opacity="0"/>
</linearGradient>
<linearGradient id="paint50_linear_414_295" x1="307.924" y1="1009" x2="382.123" y2="616.653" gradientUnits="userSpaceOnUse">
<stop stop-color="white"/>
<stop offset="0.9946" stop-color="#EEC700" stop-opacity="0"/>
</linearGradient>
<linearGradient id="paint51_linear_414_295" x1="341.847" y1="1015.41" x2="416.045" y2="623.067" gradientUnits="userSpaceOnUse">
<stop stop-color="white"/>
<stop offset="0.9946" stop-color="#EEC700" stop-opacity="0"/>
</linearGradient>
<linearGradient id="paint52_linear_414_295" x1="-92.3849" y1="933.292" x2="-18.1853" y2="540.947" gradientUnits="userSpaceOnUse">
<stop stop-color="white"/>
<stop offset="0.9946" stop-color="#EEC700" stop-opacity="0"/>
</linearGradient>
<linearGradient id="paint53_linear_414_295" x1="-58.4629" y1="939.708" x2="15.7366" y2="547.362" gradientUnits="userSpaceOnUse">
<stop stop-color="white"/>
<stop offset="0.9946" stop-color="#EEC700" stop-opacity="0"/>
</linearGradient>
<linearGradient id="paint54_linear_414_295" x1="-24.5409" y1="946.124" x2="49.6585" y2="553.778" gradientUnits="userSpaceOnUse">
<stop stop-color="white"/>
<stop offset="0.9946" stop-color="#EEC700" stop-opacity="0"/>
</linearGradient>
<linearGradient id="paint55_linear_414_295" x1="9.38134" y1="952.539" x2="83.5812" y2="560.192" gradientUnits="userSpaceOnUse">
<stop stop-color="white"/>
<stop offset="0.9946" stop-color="#EEC700" stop-opacity="0"/>
</linearGradient>
<linearGradient id="paint56_linear_414_295" x1="43.3037" y1="958.954" x2="117.503" y2="566.608" gradientUnits="userSpaceOnUse">
<stop stop-color="white"/>
<stop offset="0.9946" stop-color="#EEC700" stop-opacity="0"/>
</linearGradient>
<linearGradient id="paint57_linear_414_295" x1="77.2256" y1="965.37" x2="151.425" y2="573.023" gradientUnits="userSpaceOnUse">
<stop stop-color="white"/>
<stop offset="0.9946" stop-color="#EEC700" stop-opacity="0"/>
</linearGradient>
<linearGradient id="paint58_linear_414_295" x1="111.149" y1="971.784" x2="185.348" y2="579.438" gradientUnits="userSpaceOnUse">
<stop stop-color="white"/>
<stop offset="0.9946" stop-color="#EEC700" stop-opacity="0"/>
</linearGradient>
<linearGradient id="paint59_linear_414_295" x1="145.071" y1="978.2" x2="219.271" y2="585.854" gradientUnits="userSpaceOnUse">
<stop stop-color="white"/>
<stop offset="0.9946" stop-color="#EEC700" stop-opacity="0"/>
</linearGradient>
<linearGradient id="paint60_linear_414_295" x1="178.993" y1="984.615" x2="253.193" y2="592.269" gradientUnits="userSpaceOnUse">
<stop stop-color="white"/>
<stop offset="0.9946" stop-color="#EEC700" stop-opacity="0"/>
</linearGradient>
<linearGradient id="paint61_linear_414_295" x1="212.915" y1="991.03" x2="287.115" y2="598.684" gradientUnits="userSpaceOnUse">
<stop stop-color="white"/>
<stop offset="0.9946" stop-color="#EEC700" stop-opacity="0"/>
</linearGradient>
<linearGradient id="paint62_linear_414_295" x1="246.837" y1="997.446" x2="321.036" y2="605.099" gradientUnits="userSpaceOnUse">
<stop stop-color="white"/>
<stop offset="0.9946" stop-color="#EEC700" stop-opacity="0"/>
</linearGradient>
<linearGradient id="paint63_linear_414_295" x1="280.76" y1="1003.86" x2="354.959" y2="611.515" gradientUnits="userSpaceOnUse">
<stop stop-color="white"/>
<stop offset="0.9946" stop-color="#EEC700" stop-opacity="0"/>
</linearGradient>
<linearGradient id="paint64_linear_414_295" x1="314.681" y1="1010.28" x2="388.881" y2="617.93" gradientUnits="userSpaceOnUse">
<stop stop-color="white"/>
<stop offset="0.9946" stop-color="#EEC700" stop-opacity="0"/>
</linearGradient>
<linearGradient id="paint65_linear_414_295" x1="348.604" y1="1016.69" x2="422.803" y2="624.345" gradientUnits="userSpaceOnUse">
<stop stop-color="white"/>
<stop offset="0.9946" stop-color="#EEC700" stop-opacity="0"/>
</linearGradient>
<linearGradient id="paint66_linear_414_295" x1="-85.6305" y1="934.576" x2="-11.4292" y2="542.221" gradientUnits="userSpaceOnUse">
<stop stop-color="white"/>
<stop offset="0.9946" stop-color="#EEC700" stop-opacity="0"/>
</linearGradient>
<linearGradient id="paint67_linear_414_295" x1="-51.7085" y1="940.991" x2="22.4927" y2="548.637" gradientUnits="userSpaceOnUse">
<stop stop-color="white"/>
<stop offset="0.9946" stop-color="#EEC700" stop-opacity="0"/>
</linearGradient>
<linearGradient id="paint68_linear_414_295" x1="-17.7862" y1="947.406" x2="56.415" y2="555.052" gradientUnits="userSpaceOnUse">
<stop stop-color="white"/>
<stop offset="0.9946" stop-color="#EEC700" stop-opacity="0"/>
</linearGradient>
<linearGradient id="paint69_linear_414_295" x1="16.1357" y1="953.823" x2="90.3373" y2="561.467" gradientUnits="userSpaceOnUse">
<stop stop-color="white"/>
<stop offset="0.9946" stop-color="#EEC700" stop-opacity="0"/>
</linearGradient>
<linearGradient id="paint70_linear_414_295" x1="50.0581" y1="960.238" x2="124.259" y2="567.883" gradientUnits="userSpaceOnUse">
<stop stop-color="white"/>
<stop offset="0.9946" stop-color="#EEC700" stop-opacity="0"/>
</linearGradient>
<linearGradient id="paint71_linear_414_295" x1="83.9798" y1="966.654" x2="158.181" y2="574.298" gradientUnits="userSpaceOnUse">
<stop stop-color="white"/>
<stop offset="0.9946" stop-color="#EEC700" stop-opacity="0"/>
</linearGradient>
<linearGradient id="paint72_linear_414_295" x1="117.903" y1="973.068" x2="192.104" y2="580.713" gradientUnits="userSpaceOnUse">
<stop stop-color="white"/>
<stop offset="0.9946" stop-color="#EEC700" stop-opacity="0"/>
</linearGradient>
<linearGradient id="paint73_linear_414_295" x1="151.825" y1="979.485" x2="226.027" y2="587.129" gradientUnits="userSpaceOnUse">
<stop stop-color="white"/>
<stop offset="0.9946" stop-color="#EEC700" stop-opacity="0"/>
</linearGradient>
<linearGradient id="paint74_linear_414_295" x1="185.747" y1="985.899" x2="259.949" y2="593.545" gradientUnits="userSpaceOnUse">
<stop stop-color="white"/>
<stop offset="0.9946" stop-color="#EEC700" stop-opacity="0"/>
</linearGradient>
<linearGradient id="paint75_linear_414_295" x1="219.669" y1="992.314" x2="293.87" y2="599.96" gradientUnits="userSpaceOnUse">
<stop stop-color="white"/>
<stop offset="0.9946" stop-color="#EEC700" stop-opacity="0"/>
</linearGradient>
<linearGradient id="paint76_linear_414_295" x1="253.591" y1="998.731" x2="327.792" y2="606.375" gradientUnits="userSpaceOnUse">
<stop stop-color="white"/>
<stop offset="0.9946" stop-color="#EEC700" stop-opacity="0"/>
</linearGradient>
<linearGradient id="paint77_linear_414_295" x1="287.513" y1="1005.15" x2="361.715" y2="612.791" gradientUnits="userSpaceOnUse">
<stop stop-color="white"/>
<stop offset="0.9946" stop-color="#EEC700" stop-opacity="0"/>
</linearGradient>
<linearGradient id="paint78_linear_414_295" x1="321.435" y1="1011.56" x2="395.637" y2="619.206" gradientUnits="userSpaceOnUse">
<stop stop-color="white"/>
<stop offset="0.9946" stop-color="#EEC700" stop-opacity="0"/>
</linearGradient>
<linearGradient id="paint79_linear_414_295" x1="355.358" y1="1017.98" x2="429.559" y2="625.621" gradientUnits="userSpaceOnUse">
<stop stop-color="white"/>
<stop offset="0.9946" stop-color="#EEC700" stop-opacity="0"/>
</linearGradient>
<linearGradient id="paint80_linear_414_295" x1="-78.8711" y1="935.848" x2="-4.67151" y2="543.503" gradientUnits="userSpaceOnUse">
<stop stop-color="white"/>
<stop offset="0.9946" stop-color="#EEC700" stop-opacity="0"/>
</linearGradient>
<linearGradient id="paint81_linear_414_295" x1="-44.9491" y1="942.264" x2="29.2505" y2="549.918" gradientUnits="userSpaceOnUse">
<stop stop-color="white"/>
<stop offset="0.9946" stop-color="#EEC700" stop-opacity="0"/>
</linearGradient>
<linearGradient id="paint82_linear_414_295" x1="-11.0267" y1="948.679" x2="63.1727" y2="556.333" gradientUnits="userSpaceOnUse">
<stop stop-color="white"/>
<stop offset="0.9946" stop-color="#EEC700" stop-opacity="0"/>
</linearGradient>
<linearGradient id="paint83_linear_414_295" x1="22.8952" y1="955.095" x2="97.095" y2="562.748" gradientUnits="userSpaceOnUse">
<stop stop-color="white"/>
<stop offset="0.9946" stop-color="#EEC700" stop-opacity="0"/>
</linearGradient>
<linearGradient id="paint84_linear_414_295" x1="56.8176" y1="961.51" x2="131.017" y2="569.164" gradientUnits="userSpaceOnUse">
<stop stop-color="white"/>
<stop offset="0.9946" stop-color="#EEC700" stop-opacity="0"/>
</linearGradient>
<linearGradient id="paint85_linear_414_295" x1="90.7398" y1="967.925" x2="164.939" y2="575.578" gradientUnits="userSpaceOnUse">
<stop stop-color="white"/>
<stop offset="0.9946" stop-color="#EEC700" stop-opacity="0"/>
</linearGradient>
<linearGradient id="paint86_linear_414_295" x1="124.663" y1="974.34" x2="198.862" y2="581.994" gradientUnits="userSpaceOnUse">
<stop stop-color="white"/>
<stop offset="0.9946" stop-color="#EEC700" stop-opacity="0"/>
</linearGradient>
<linearGradient id="paint87_linear_414_295" x1="158.585" y1="980.756" x2="232.785" y2="588.409" gradientUnits="userSpaceOnUse">
<stop stop-color="white"/>
<stop offset="0.9946" stop-color="#EEC700" stop-opacity="0"/>
</linearGradient>
<linearGradient id="paint88_linear_414_295" x1="192.507" y1="987.171" x2="266.707" y2="594.825" gradientUnits="userSpaceOnUse">
<stop stop-color="white"/>
<stop offset="0.9946" stop-color="#EEC700" stop-opacity="0"/>
</linearGradient>
<linearGradient id="paint89_linear_414_295" x1="226.429" y1="993.586" x2="300.628" y2="601.24" gradientUnits="userSpaceOnUse">
<stop stop-color="white"/>
<stop offset="0.9946" stop-color="#EEC700" stop-opacity="0"/>
</linearGradient>
<linearGradient id="paint90_linear_414_295" x1="260.351" y1="1000" x2="334.55" y2="607.655" gradientUnits="userSpaceOnUse">
<stop stop-color="white"/>
<stop offset="0.9946" stop-color="#EEC700" stop-opacity="0"/>
</linearGradient>
<linearGradient id="paint91_linear_414_295" x1="294.273" y1="1006.42" x2="368.473" y2="614.071" gradientUnits="userSpaceOnUse">
<stop stop-color="white"/>
<stop offset="0.9946" stop-color="#EEC700" stop-opacity="0"/>
</linearGradient>
<linearGradient id="paint92_linear_414_295" x1="328.195" y1="1012.83" x2="402.395" y2="620.485" gradientUnits="userSpaceOnUse">
<stop stop-color="white"/>
<stop offset="0.9946" stop-color="#EEC700" stop-opacity="0"/>
</linearGradient>
<linearGradient id="paint93_linear_414_295" x1="362.118" y1="1019.25" x2="436.317" y2="626.901" gradientUnits="userSpaceOnUse">
<stop stop-color="white"/>
<stop offset="0.9946" stop-color="#EEC700" stop-opacity="0"/>
</linearGradient>
<linearGradient id="paint94_linear_414_295" x1="-72.1141" y1="937.126" x2="2.08543" y2="544.781" gradientUnits="userSpaceOnUse">
<stop stop-color="white"/>
<stop offset="0.9946" stop-color="#EEC700" stop-opacity="0"/>
</linearGradient>
<linearGradient id="paint95_linear_414_295" x1="-38.1919" y1="943.541" x2="36.0075" y2="551.196" gradientUnits="userSpaceOnUse">
<stop stop-color="white"/>
<stop offset="0.9946" stop-color="#EEC700" stop-opacity="0"/>
</linearGradient>
<linearGradient id="paint96_linear_414_295" x1="-4.26945" y1="949.956" x2="69.9298" y2="557.611" gradientUnits="userSpaceOnUse">
<stop stop-color="white"/>
<stop offset="0.9946" stop-color="#EEC700" stop-opacity="0"/>
</linearGradient>
<linearGradient id="paint97_linear_414_295" x1="29.6524" y1="956.372" x2="103.852" y2="564.026" gradientUnits="userSpaceOnUse">
<stop stop-color="white"/>
<stop offset="0.9946" stop-color="#EEC700" stop-opacity="0"/>
</linearGradient>
<linearGradient id="paint98_linear_414_295" x1="63.5748" y1="962.787" x2="137.774" y2="570.442" gradientUnits="userSpaceOnUse">
<stop stop-color="white"/>
<stop offset="0.9946" stop-color="#EEC700" stop-opacity="0"/>
</linearGradient>
<linearGradient id="paint99_linear_414_295" x1="97.4971" y1="969.202" x2="171.696" y2="576.856" gradientUnits="userSpaceOnUse">
<stop stop-color="white"/>
<stop offset="0.9946" stop-color="#EEC700" stop-opacity="0"/>
</linearGradient>
<linearGradient id="paint100_linear_414_295" x1="131.42" y1="975.617" x2="205.619" y2="583.272" gradientUnits="userSpaceOnUse">
<stop stop-color="white"/>
<stop offset="0.9946" stop-color="#EEC700" stop-opacity="0"/>
</linearGradient>
<linearGradient id="paint101_linear_414_295" x1="165.342" y1="982.033" x2="239.541" y2="589.687" gradientUnits="userSpaceOnUse">
<stop stop-color="white"/>
<stop offset="0.9946" stop-color="#EEC700" stop-opacity="0"/>
</linearGradient>
<linearGradient id="paint102_linear_414_295" x1="199.264" y1="988.447" x2="273.464" y2="596.102" gradientUnits="userSpaceOnUse">
<stop stop-color="white"/>
<stop offset="0.9946" stop-color="#EEC700" stop-opacity="0"/>
</linearGradient>
<linearGradient id="paint103_linear_414_295" x1="233.186" y1="994.863" x2="307.385" y2="602.518" gradientUnits="userSpaceOnUse">
<stop stop-color="white"/>
<stop offset="0.9946" stop-color="#EEC700" stop-opacity="0"/>
</linearGradient>
<linearGradient id="paint104_linear_414_295" x1="267.108" y1="1001.28" x2="341.307" y2="608.933" gradientUnits="userSpaceOnUse">
<stop stop-color="white"/>
<stop offset="0.9946" stop-color="#EEC700" stop-opacity="0"/>
</linearGradient>
<linearGradient id="paint105_linear_414_295" x1="301.031" y1="1007.69" x2="375.23" y2="615.349" gradientUnits="userSpaceOnUse">
<stop stop-color="white"/>
<stop offset="0.9946" stop-color="#EEC700" stop-opacity="0"/>
</linearGradient>
<linearGradient id="paint106_linear_414_295" x1="334.953" y1="1014.11" x2="409.152" y2="621.763" gradientUnits="userSpaceOnUse">
<stop stop-color="white"/>
<stop offset="0.9946" stop-color="#EEC700" stop-opacity="0"/>
</linearGradient>
<linearGradient id="paint107_linear_414_295" x1="368.875" y1="1020.52" x2="443.074" y2="628.179" gradientUnits="userSpaceOnUse">
<stop stop-color="white"/>
<stop offset="0.9946" stop-color="#EEC700" stop-opacity="0"/>
</linearGradient>
<linearGradient id="paint108_linear_414_295" x1="-65.3572" y1="938.402" x2="8.84096" y2="546.061" gradientUnits="userSpaceOnUse">
<stop stop-color="white"/>
<stop offset="0.9946" stop-color="#EEC700" stop-opacity="0"/>
</linearGradient>
<linearGradient id="paint109_linear_414_295" x1="-31.4346" y1="944.817" x2="42.7636" y2="552.475" gradientUnits="userSpaceOnUse">
<stop stop-color="white"/>
<stop offset="0.9946" stop-color="#EEC700" stop-opacity="0"/>
</linearGradient>
<linearGradient id="paint110_linear_414_295" x1="2.48748" y1="951.232" x2="76.6855" y2="558.891" gradientUnits="userSpaceOnUse">
<stop stop-color="white"/>
<stop offset="0.9946" stop-color="#EEC700" stop-opacity="0"/>
</linearGradient>
<linearGradient id="paint111_linear_414_295" x1="36.4093" y1="957.648" x2="110.608" y2="565.305" gradientUnits="userSpaceOnUse">
<stop stop-color="white"/>
<stop offset="0.9946" stop-color="#EEC700" stop-opacity="0"/>
</linearGradient>
<linearGradient id="paint112_linear_414_295" x1="70.3314" y1="964.063" x2="144.53" y2="571.721" gradientUnits="userSpaceOnUse">
<stop stop-color="white"/>
<stop offset="0.9946" stop-color="#EEC700" stop-opacity="0"/>
</linearGradient>
<linearGradient id="paint113_linear_414_295" x1="104.254" y1="970.479" x2="178.452" y2="578.136" gradientUnits="userSpaceOnUse">
<stop stop-color="white"/>
<stop offset="0.9946" stop-color="#EEC700" stop-opacity="0"/>
</linearGradient>
<linearGradient id="paint114_linear_414_295" x1="138.176" y1="976.894" x2="212.375" y2="584.552" gradientUnits="userSpaceOnUse">
<stop stop-color="white"/>
<stop offset="0.9946" stop-color="#EEC700" stop-opacity="0"/>
</linearGradient>
<linearGradient id="paint115_linear_414_295" x1="172.099" y1="983.31" x2="246.297" y2="590.967" gradientUnits="userSpaceOnUse">
<stop stop-color="white"/>
<stop offset="0.9946" stop-color="#EEC700" stop-opacity="0"/>
</linearGradient>
<linearGradient id="paint116_linear_414_295" x1="206.021" y1="989.724" x2="280.22" y2="597.382" gradientUnits="userSpaceOnUse">
<stop stop-color="white"/>
<stop offset="0.9946" stop-color="#EEC700" stop-opacity="0"/>
</linearGradient>
<linearGradient id="paint117_linear_414_295" x1="239.943" y1="996.139" x2="314.141" y2="603.797" gradientUnits="userSpaceOnUse">
<stop stop-color="white"/>
<stop offset="0.9946" stop-color="#EEC700" stop-opacity="0"/>
</linearGradient>
<linearGradient id="paint118_linear_414_295" x1="273.865" y1="1002.56" x2="348.063" y2="610.212" gradientUnits="userSpaceOnUse">
<stop stop-color="white"/>
<stop offset="0.9946" stop-color="#EEC700" stop-opacity="0"/>
</linearGradient>
<linearGradient id="paint119_linear_414_295" x1="307.788" y1="1008.97" x2="381.986" y2="616.627" gradientUnits="userSpaceOnUse">
<stop stop-color="white"/>
<stop offset="0.9946" stop-color="#EEC700" stop-opacity="0"/>
</linearGradient>
<linearGradient id="paint120_linear_414_295" x1="341.71" y1="1015.39" x2="415.908" y2="623.042" gradientUnits="userSpaceOnUse">
<stop stop-color="white"/>
<stop offset="0.9946" stop-color="#EEC700" stop-opacity="0"/>
</linearGradient>
<linearGradient id="paint121_linear_414_295" x1="375.632" y1="1021.8" x2="449.83" y2="629.458" gradientUnits="userSpaceOnUse">
<stop stop-color="white"/>
<stop offset="0.9946" stop-color="#EEC700" stop-opacity="0"/>
</linearGradient>
<linearGradient id="paint122_linear_414_295" x1="-58.6003" y1="939.682" x2="15.5992" y2="547.336" gradientUnits="userSpaceOnUse">
<stop stop-color="white"/>
<stop offset="0.9946" stop-color="#EEC700" stop-opacity="0"/>
</linearGradient>
<linearGradient id="paint123_linear_414_295" x1="-24.678" y1="946.097" x2="49.5217" y2="553.751" gradientUnits="userSpaceOnUse">
<stop stop-color="white"/>
<stop offset="0.9946" stop-color="#EEC700" stop-opacity="0"/>
</linearGradient>
<linearGradient id="paint124_linear_414_295" x1="9.24408" y1="952.512" x2="83.4435" y2="560.166" gradientUnits="userSpaceOnUse">
<stop stop-color="white"/>
<stop offset="0.9946" stop-color="#EEC700" stop-opacity="0"/>
</linearGradient>
<linearGradient id="paint125_linear_414_295" x1="43.1662" y1="958.928" x2="117.366" y2="566.581" gradientUnits="userSpaceOnUse">
<stop stop-color="white"/>
<stop offset="0.9946" stop-color="#EEC700" stop-opacity="0"/>
</linearGradient>
<linearGradient id="paint126_linear_414_295" x1="77.0887" y1="965.343" x2="151.288" y2="572.997" gradientUnits="userSpaceOnUse">
<stop stop-color="white"/>
<stop offset="0.9946" stop-color="#EEC700" stop-opacity="0"/>
</linearGradient>
<linearGradient id="paint127_linear_414_295" x1="111.011" y1="971.759" x2="185.21" y2="579.412" gradientUnits="userSpaceOnUse">
<stop stop-color="white"/>
<stop offset="0.9946" stop-color="#EEC700" stop-opacity="0"/>
</linearGradient>
<linearGradient id="paint128_linear_414_295" x1="144.933" y1="978.173" x2="219.133" y2="585.828" gradientUnits="userSpaceOnUse">
<stop stop-color="white"/>
<stop offset="0.9946" stop-color="#EEC700" stop-opacity="0"/>
</linearGradient>
<linearGradient id="paint129_linear_414_295" x1="178.855" y1="984.59" x2="253.055" y2="592.243" gradientUnits="userSpaceOnUse">
<stop stop-color="white"/>
<stop offset="0.9946" stop-color="#EEC700" stop-opacity="0"/>
</linearGradient>
<linearGradient id="paint130_linear_414_295" x1="212.778" y1="991.004" x2="286.978" y2="598.658" gradientUnits="userSpaceOnUse">
<stop stop-color="white"/>
<stop offset="0.9946" stop-color="#EEC700" stop-opacity="0"/>
</linearGradient>
<linearGradient id="paint131_linear_414_295" x1="246.7" y1="997.419" x2="320.899" y2="605.073" gradientUnits="userSpaceOnUse">
<stop stop-color="white"/>
<stop offset="0.9946" stop-color="#EEC700" stop-opacity="0"/>
</linearGradient>
<linearGradient id="paint132_linear_414_295" x1="280.622" y1="1003.84" x2="354.821" y2="611.488" gradientUnits="userSpaceOnUse">
<stop stop-color="white"/>
<stop offset="0.9946" stop-color="#EEC700" stop-opacity="0"/>
</linearGradient>
<linearGradient id="paint133_linear_414_295" x1="314.545" y1="1010.25" x2="388.744" y2="617.904" gradientUnits="userSpaceOnUse">
<stop stop-color="white"/>
<stop offset="0.9946" stop-color="#EEC700" stop-opacity="0"/>
</linearGradient>
<linearGradient id="paint134_linear_414_295" x1="348.466" y1="1016.67" x2="422.666" y2="624.319" gradientUnits="userSpaceOnUse">
<stop stop-color="white"/>
<stop offset="0.9946" stop-color="#EEC700" stop-opacity="0"/>
</linearGradient>
<linearGradient id="paint135_linear_414_295" x1="382.389" y1="1023.08" x2="456.588" y2="630.735" gradientUnits="userSpaceOnUse">
<stop stop-color="white"/>
<stop offset="0.9946" stop-color="#EEC700" stop-opacity="0"/>
</linearGradient>
<linearGradient id="paint136_linear_414_295" x1="-51.8431" y1="940.959" x2="22.3565" y2="548.614" gradientUnits="userSpaceOnUse">
<stop stop-color="white"/>
<stop offset="0.9946" stop-color="#EEC700" stop-opacity="0"/>
</linearGradient>
<linearGradient id="paint137_linear_414_295" x1="-17.9208" y1="947.374" x2="56.2786" y2="555.029" gradientUnits="userSpaceOnUse">
<stop stop-color="white"/>
<stop offset="0.9946" stop-color="#EEC700" stop-opacity="0"/>
</linearGradient>
<linearGradient id="paint138_linear_414_295" x1="16.0013" y1="953.79" x2="90.2006" y2="561.445" gradientUnits="userSpaceOnUse">
<stop stop-color="white"/>
<stop offset="0.9946" stop-color="#EEC700" stop-opacity="0"/>
</linearGradient>
<linearGradient id="paint139_linear_414_295" x1="49.9232" y1="960.206" x2="124.123" y2="567.86" gradientUnits="userSpaceOnUse">
<stop stop-color="white"/>
<stop offset="0.9946" stop-color="#EEC700" stop-opacity="0"/>
</linearGradient>
<linearGradient id="paint140_linear_414_295" x1="83.8459" y1="966.62" x2="158.045" y2="574.275" gradientUnits="userSpaceOnUse">
<stop stop-color="white"/>
<stop offset="0.9946" stop-color="#EEC700" stop-opacity="0"/>
</linearGradient>
<linearGradient id="paint141_linear_414_295" x1="117.768" y1="973.036" x2="191.967" y2="580.69" gradientUnits="userSpaceOnUse">
<stop stop-color="white"/>
<stop offset="0.9946" stop-color="#EEC700" stop-opacity="0"/>
</linearGradient>
<linearGradient id="paint142_linear_414_295" x1="151.69" y1="979.451" x2="225.89" y2="587.106" gradientUnits="userSpaceOnUse">
<stop stop-color="white"/>
<stop offset="0.9946" stop-color="#EEC700" stop-opacity="0"/>
</linearGradient>
<linearGradient id="paint143_linear_414_295" x1="185.613" y1="985.866" x2="259.813" y2="593.52" gradientUnits="userSpaceOnUse">
<stop stop-color="white"/>
<stop offset="0.9946" stop-color="#EEC700" stop-opacity="0"/>
</linearGradient>
<linearGradient id="paint144_linear_414_295" x1="219.535" y1="992.281" x2="293.735" y2="599.936" gradientUnits="userSpaceOnUse">
<stop stop-color="white"/>
<stop offset="0.9946" stop-color="#EEC700" stop-opacity="0"/>
</linearGradient>
<linearGradient id="paint145_linear_414_295" x1="253.457" y1="998.697" x2="327.656" y2="606.352" gradientUnits="userSpaceOnUse">
<stop stop-color="white"/>
<stop offset="0.9946" stop-color="#EEC700" stop-opacity="0"/>
</linearGradient>
<linearGradient id="paint146_linear_414_295" x1="287.379" y1="1005.11" x2="361.578" y2="612.767" gradientUnits="userSpaceOnUse">
<stop stop-color="white"/>
<stop offset="0.9946" stop-color="#EEC700" stop-opacity="0"/>
</linearGradient>
<linearGradient id="paint147_linear_414_295" x1="321.302" y1="1011.53" x2="395.501" y2="619.182" gradientUnits="userSpaceOnUse">
<stop stop-color="white"/>
<stop offset="0.9946" stop-color="#EEC700" stop-opacity="0"/>
</linearGradient>
<linearGradient id="paint148_linear_414_295" x1="355.224" y1="1017.94" x2="429.423" y2="625.597" gradientUnits="userSpaceOnUse">
<stop stop-color="white"/>
<stop offset="0.9946" stop-color="#EEC700" stop-opacity="0"/>
</linearGradient>
<linearGradient id="paint149_linear_414_295" x1="389.146" y1="1024.36" x2="463.345" y2="632.013" gradientUnits="userSpaceOnUse">
<stop stop-color="white"/>
<stop offset="0.9946" stop-color="#EEC700" stop-opacity="0"/>
</linearGradient>
<linearGradient id="paint150_linear_414_295" x1="494.029" y1="558.702" x2="1284.21" y2="558.702" gradientUnits="userSpaceOnUse">
<stop stop-color="white"/>
<stop offset="0.9946" stop-color="#EEC700" stop-opacity="0"/>
</linearGradient>
<linearGradient id="paint151_linear_414_295" x1="494.029" y1="558.702" x2="1284.21" y2="558.702" gradientUnits="userSpaceOnUse">
<stop stop-color="white"/>
<stop offset="0.9946" stop-color="#EEC700" stop-opacity="0"/>
</linearGradient>
<linearGradient id="paint152_linear_414_295" x1="494.03" y1="558.702" x2="1284.21" y2="558.702" gradientUnits="userSpaceOnUse">
<stop stop-color="white"/>
<stop offset="0.9946" stop-color="#EEC700" stop-opacity="0"/>
</linearGradient>
<linearGradient id="paint153_linear_414_295" x1="494.029" y1="558.702" x2="1284.21" y2="558.702" gradientUnits="userSpaceOnUse">
<stop stop-color="white"/>
<stop offset="0.9946" stop-color="#EEC700" stop-opacity="0"/>
</linearGradient>
<linearGradient id="paint154_linear_414_295" x1="1771.26" y1="254.451" x2="1354.22" y2="254.451" gradientUnits="userSpaceOnUse">
<stop stop-color="white"/>
<stop offset="0.9946" stop-color="#EEC700" stop-opacity="0"/>
</linearGradient>
<linearGradient id="paint155_linear_414_295" x1="1771.26" y1="254.451" x2="1354.22" y2="254.451" gradientUnits="userSpaceOnUse">
<stop stop-color="white"/>
<stop offset="0.9946" stop-color="#EEC700" stop-opacity="0"/>
</linearGradient>
<linearGradient id="paint156_linear_414_295" x1="1771.26" y1="254.451" x2="1354.22" y2="254.451" gradientUnits="userSpaceOnUse">
<stop stop-color="white"/>
<stop offset="0.9946" stop-color="#EEC700" stop-opacity="0"/>
</linearGradient>
<linearGradient id="paint157_linear_414_295" x1="1771.26" y1="254.451" x2="1354.22" y2="254.451" gradientUnits="userSpaceOnUse">
<stop stop-color="white"/>
<stop offset="0.9946" stop-color="#EEC700" stop-opacity="0"/>
</linearGradient>
</defs>
</svg>
